<svg width="453" height="356" viewBox="0 0 453 356" xmlns="http://www.w3.org/2000/svg"><title>Cat Logo</title><g fill="none" fill-rule="evenodd"><path d="M339.244 67.87c-32.66-8.922-70.886-14.052-111.744-14.052-39.112 0-75.813 4.7-107.526 12.93l-55.597-44.86L49.9 95.667C24.77 111.82 10 131.55 10 152.853c0 54.695 97.378 99.034 217.5 99.034S445 207.547 445 152.853c0-20.835-14.13-40.167-38.263-56.117L392.623 24.8l-53.38 43.07z" stroke="#000" stroke-width="15"/><text font-family="Ohmega Sans" font-size="124" fill="#000"><tspan x="170" y="199">X</tspan></text><path d="M229.175 258.45v89.147M46 287.5h362.1M46 317.5h362.1M46 347.5h362.1" stroke="#000" stroke-width="15" stroke-linecap="square"/></g></svg>