<svg xmlns="http://www.w3.org/2000/svg" viewBox="0 0 400 300"><g fill="#414141" opacity=".85"><path d="M128.9 64.5c-2.3.6-4.3 1.1-6.6 1.9 1.1-.4 2.1-.9 3.2-1.5 1.4-.6 2.3-.4 3.4-.4zM116.4 68.2c-.4.2-.8.2-1.1.4-.4 0-.8.2-.9.2.5-.4 1.2-.4 2-.6zM105.1 71.6c1.9-.9 3.8-1.5 5.6-2.1-1.5.8-3.3 1.4-5.6 2.1zM113.8 68.1c-.6.6-.9.9.4.8-1.1.2-2.2.6-3.4.9 1.1-.6 2.2-1.2 3-1.7zM113.8 68.1c.6-.4 1.5-.9 1.9-1.3-.5.3-1.2.9-1.9 1.3zM108.9 63c-1.3.2-.4 1.9-2.8 2.3-5.4 1.5-10.3 2.6-15.2 5.1-1.1.4-2.4 1.5-3.8 2.4-1.1 1.1-2.4 2.2-3.6 2.6-2.6 1.1-7.5 3.2-10.5 4.7-1.5.8-2.8 1.1-3 1.1-.4 0 .2-.6 2.1-1.9 5.6-3.8 10.5-6.4 15.2-8.6 4.9-2.2 9.6-4.3 15-6.2 9.2-2.8 18.2-4.7 27.8-6.2 2.6-.6 5.1-1.1 7.5-1.7-3.2.9-6.4 1.9-9.9 3-4.9 1.9-11.1 1.3-18.8 3.4zM178.4 56.8c-.6 0-1.5-.2-2.2-.4-.8 0-1.3-.2-1.3-.2-5.3 1.5-10.9 1.5-16.5 1.5.8-.4 1.5-.8 2.4-1.1 3.2-.2 3.6.4.8.9 3.2-.7 6.4-1.5 9.4-1.7 1.5-.2 3.2-.4 4.7-.4h4.7c-.3.7-.1 1.2-2 1.4z"/><path d="M184.2 55.5h-3.8s0-.2.2-.2c1.4.2 2.5.2 3.6.2z"/><path d="M81.9 81.4c-6.8 4.1-12.9 8.8-18 14.4-5.1 5.4-9.2 11.8-11.1 18.8-.6.9-1.3 1.7-1.3 3.2 0 1.1.4 2.2.4 3.4 0 .9.2 2.1.2 3 .2.9.4 2.1.6 3 0 .8.4 1.5.4 2.1.2 1.1-.2.9-.8.4-.4-.8-.9-1.3-1.3-2.1.2.4.8 1.3 1.3 2.1.6.9.9 1.9 1.7 3 .4.9.8 1.9 1.1 2.6.6.9 1.1 1.7 1.7 2.6-.6-1.1-1.1-1.9-1.5-2.8-.4-.9-.8-1.7-1.3-2.4-.6-1.1-.8-2.2-.9-3.4 0-.4-.2-.8-.2-.9 1.3 4.5 3.8 8.6 6.8 12.2.4.4.6.9.9 1.3.4.4.6.8.9 1.1.6.6 1.1 1.3 1.7 1.9.6.6 1.1 1.1 1.9 1.7.6.6 1.1.9 1.7 1.3.6.4 1.1.6 1.7.8.8.6 1.3.9 2.1 1.5-.2 0-.4-.2-.6-.2.4.2.6.4.9.4 3 1.9 6.2 3.6 9.6 5.1 1.9 1.3 3.9 2.6 6.2 3.8h2.6c.8.8 2.1 1.5 3.6 2.2-2.1-.2-3.9-.2-5.6-.4-2.6-.2-4.5-3.8-7.7-3.6 3.4-.2 5.1 3.4 7.7 3.6 1.7.2 3.6.4 5.6.4 3.2 1.5 7.7 2.4 11.2 2.4-4.1-1.9-7.9-2.2-11.2-2.4-1.5-.8-2.8-1.5-3.6-2.2h-2.6c-2.2-1.1-4.3-2.4-6.2-3.8 6.4 3 13.3 5.3 20.4 6.9 11.4 3 22.9 4.9 34.3 6.2 11.4 1.3 22.9 2.2 34.5 2.6l17.4.6c5.8 0 11.6-.2 17.4-.2 11.8-.4 23.8-.9 36-2.1 13.3-1.3 26.2-3 38.8-5.4 12.6-2.6 24.8-5.8 35.6-10.7 5.4-2.4 10.5-5.3 14.8-8.4 2.1-1.7 3.9-3.4 5.6-5.3 1.5-1.9 2.6-3.8 3.4-5.8l.6-1.5c0-.6.2-.9.2-1.5 0-.9.2-2.1.2-3.2-.2-2.2-.6-4.5-1.5-6.8-1.5-4.7-4.5-9.2-7.9-13.3-6.9-8.3-16.1-15.2-26.4-20.2-10.3-5.2-21.6-9-33.6-11.2-9.2-1.9-22.1-4.7-35.4-6.4-13.3-1.7-26.6-2.8-35.8-3-12.2-1.7-15.4-4.1-15.2-6.6s3.8-4.5 4.3-4.7c3.9-1.7 7.5-2.6 11.4-3.2s7.9-.8 12.4-.6c9 .2 20.1.8 36.4 1.7-5.6-.4-7.3 0-6.6.6.8.6 3.9 1.3 8.6 2.2 4.7.9 10.5 2.1 16.7 3.2 3 .6 6.2 1.1 9.2 1.7 1.5.2 3 .6 4.5.8 1.5.2 2.8.4 4.1.6 15.6 1.7 33.8 9.6 49.3 23.6 7.7 7.1 14.8 15.8 19.1 26.8 2.1 5.4 3.6 11.6 3.2 18.4 0 .8-.2 1.7-.2 2.4l-.6 2.6c-.4 1.7-.9 3.2-1.5 4.7-1.3 3-2.8 5.8-4.5 8.4-3.6 5.1-8.1 8.8-12.9 12-4.9 3.2-10.1 5.6-15.6 7.9-14.1 6.2-28.3 9.4-42.4 11.8-14.1 2.2-28.1 3.6-42 4.3-14.1.8-28.1.9-42.4.9H189s-3.8-.2-5.6-.2c-3.6-.2-7.3-.4-10.9-.6-7.3-.4-14.8-.8-22.3-1.5-16.1-1.5-30-5.3-43.1-9.2-9.8-2.4-20.2-5.1-28.1-8.4-6-2.6-11.6-6-16.5-9.9-4.9-3.9-9-8.4-12-13.7 3.6 5.6 7.7 9.7 12.2 13.3 4.5 3.6 9.4 6.7 15.6 9.6 4.1 1.9 2.8.8 0-1.3s-7.3-5.1-9.6-6.9c-.9-.9-2.6-1.3-4.1-2.1-1.7-.8-3.2-1.3-4.1-2.4-4.5-3.8-7.7-8.4-10.3-14.4-.8-2.6-2.3-1.7-2.8-3-.4-1.1-.6-2.1-.9-3.2-.2-1.1-.6-2.1-.6-3s-.2-2.1-.2-3v-1.3c0-.6 0-.9.2-1.5.4-3.8 1.1-6.8 1.7-9.4.8-4.1 2.2-7.7 3.8-10.9.6-.9 1.1-1.9 1.7-3 .6-.9 1.3-1.9 2.1-2.8.9-1.1 2.1-2.1 3.2-3.2-.4 1.3-.2 2.1.2 2.8 1.3-1.7 3-4.1 4.5-5.6-1.5 1.5-3.2 3.9-4.5 5.6-.2-.8-.6-1.5-.2-2.8 7.9-7.3 18.2-13.5 28.3-18v.2c-5.6 2.8-10.9 6.4-15.4 11.4 2.1-2.1 1.5-2.2-1.3-.4-.6.8-.9 1.5-1.3 2.2 4.7-3.4 9.4-6 13.3-9.9 0 0 2.3-.9 3.4-1.3 1.5-1.1 1.1-1.5 1.1-2.1 1.1-.6 2.2-1.1 3.4-1.7-.9 1.1-3.2 2.6-5.1 4.3-.9.8-1.9 1.5-2.4 2.1-.2-.1-.5.3-.5.3z"/><path d="M54.5 132.8c-.4-.8-.6-1.7-.9-2.8.6 1.9 1.7 3.6 2.4 5.4 1.1 1.7 2.1 3.4 3.4 4.9-.6-.2-.9-.8-1.5-1.1-.6-.6-.9-1.1-1.3-1.7-.4-.8-.9-1.3-1.3-2.1-.2-1.2-.6-1.9-.8-2.6z"/></g><g fill="#414141" opacity=".85"><path d="M302.4 200.1H300c.4.2.8.4 1.3.6.5.3.7-.3 1.1-.6zM297.9 200.1h-.4c-.2 0-.2.2-.4.2.2-.2.4-.2.8-.2zM293.6 200.6c.7 0 1.5 0 2.1-.2-.6 0-1.2 0-2.1.2z"/><path d="M296.9 201c-.2-.2-.4-.6 0-.8-.4.2-.8.2-1.3.2.6.2 1 .4 1.3.6zM296.9 201c.2.2.7.6.7.6-.1-.2-.3-.4-.7-.6zM296 207.4c-.4.2-.4-1.5-1.1-1.1-1.9.6-3.6 1.3-5.4 1.5-.8.4-2.2-1.5-3-1.1-2.1.6-6.9 3-3.9 2.8 4.5-.4 7.3-.9 11.4-1.3 3.2-.8 6.4-1.7 9.8-2.4.9-.2 1.9 0 2.6.2-1.1-.2-2.2-.6-3.6-.8-2.1-.6-4.2 1.6-6.8 2.2zM320.4 200.8c-.4.2-1.3.6-1.3.6-1.9-1.3-3.9-.8-5.8-.2l.9.9c1.1-.2 1.3-.6.2-.9 2.2 1.1 4.5 1.1 6.8.9-.3-.5-.3-1.1-.8-1.3z"/><path d="M322.4 201.9c-.4 0-.9.2-1.3.2v.2c.4-.2 1-.2 1.3-.4zM284.8 202.5c-5.6.2-10.9.2-16.1.2-.4.4-.7.8-1.1.6-.4-.4-.8-.6-1.3-.6h-2.2c-.2 0-.6.2-.7.2-.4.2-.4.6 0 .8s.6.4.7.6c-.2-.2-.6-.4-.7-.6-.4-.2-.8-.4-1.3-.6-.8.2-1.3.2-2.1.2.7-.2 1.5-.2 2.1-.2.4 0 .9-.2 1.3-.2.2 0 .2-.2.4-.2-1.7 0-3.4 0-5.1-.2-.4 0-.8.2-1.1.2-1.3.2-2.4.6-3.2-.4h-.9l.2.2c-.2 0-.2-.2-.4-.2-1.3 0-2.6-.2-3.9-.2-.8.4-1.7.8-2.6 1.1l-.9-.9c-.4.4-.8.8-1.5.9.8.6 1.3 1.1 1.9 1.5.9.9 1.9-1.9 3-.2-1.1-1.7-2.1 1.1-3 .2-.6-.4-1.3-.9-1.9-1.5-1.3.4-2.8 0-4.1-.8 1.5-.8 3 0 4.1.8.6-.2 1.1-.6 1.5-.9l.9.9c.9-.2 1.7-.8 2.6-1.1-2.6-.2-5.1-.2-7.7-.4-16.9-.8-32.4-.2-49.9-.8-9.6-.4-18.6-.9-27.6-1.7-17.8-1.7-34.1 1.1-52.1-3-6.9-1.5-19.7-.4-26.4 0-8.8 3.2-4.1 10.9-3.6 11.2 5.6 6.4 9.8 2.6 21 6.4-7.7-2.1 5.4-4.3 12.8 0 10.5 6.6 25.3.8 38.1 2.2 3.2.4 6.6 0 10.5 0 19.9 1.9 38.2-1.5 59.2-1.3 5.6-.2 10.3-1.9 15-3 3.4-.4 7.1.4 9.8.4 4.3-.2 8.1-.8 11.6-1.7-3.9.4-6.9.9-11.4 1.3-3 .2 2.1-2.4 3.9-2.8.7-.4 2.2 1.5 3 1.1 1.9 0 3.6-.9 5.4-1.5.7-.4.7 1.3 1.1 1.1 2.6-.4 4.7-2.8 6.4-2.4 1.3.2 2.4.6 3.6.8.8 0 1.5.2 2.2 0 .6-.2.9-.4 1.5-.6-.4-.6-.6-1.1-.7-1.9.7 0 1.7.4 2.4.6-.8 0-1.7-.4-2.4-.6.2.8.4 1.3.7 1.9 3.6-1.1 7.5-2.2 11.4-3v-.2c-2.2.2-4.3.2-6.8-.9.9.4.9.9-.2.9l-.9-.9c1.9-.6 3.9-1.1 5.8.2 0 0 .8-.4 1.3-.6.6.2.6.8.8 1.3.4 0 .9-.2 1.3-.2-.9-.4-3.7-1.5-3.7-1.5z"/><path d="M261.9 202.9c.4 0 .8-.2 1.1-.2-1.5 0-2.8-.2-4.3-.2.7.9 1.9.7 3.2.4z"/></g><g fill="#414141" opacity=".85"><path d="M303.1 267.6h-2.2c.4.2.8.4 1.1.6.6.3.8-.3 1.1-.6zM298.6 267.6h-.4c-.2 0-.2.2-.4.2.3-.2.6-.2.8-.2zM294.7 268.1c.8 0 1.5 0 2.1-.2-.8 0-1.4 0-2.1.2z"/><path d="M297.9 268.5c-.2-.2-.4-.6 0-.8-.4.2-.8.2-1.3.2.5.2.9.4 1.3.6zM297.9 268.5c.2.2.6.6.7.6-.2-.2-.5-.4-.7-.6zM296.9 274.9c-.4.2-.4-1.5-1.1-1.1-1.9.6-3.6 1.3-5.2 1.5-.7.4-2.1-1.5-3-1.1-1.9.6-6.8 3-3.9 2.8 4.3-.4 7.1-.9 11.1-1.3 3.2-.8 6.2-1.7 9.4-2.4.9-.2 1.7 0 2.6.2-1.1-.2-2.2-.6-3.6-.7-1.8-.7-3.6 1.5-6.3 2.1zM320.4 268.3c-.4.2-1.1.6-1.1.6-1.9-1.3-3.8-.8-5.6-.2l.9.9c1.1-.2 1.1-.6.2-.9 2.2 1.1 4.3 1.1 6.6.9-.5-.5-.5-1.1-1-1.3z"/><path d="M322.4 269.4c-.4 0-.7.2-1.3.2v.2c.6-.2 1-.2 1.3-.4zM286.1 270c-5.4.2-10.5.2-15.6.2-.4.4-.6.8-1.1.6-.4-.4-.8-.6-1.1-.6h-2.2c-.2 0-.6.2-.8.2-.4.2-.2.6 0 .7.4.2.6.4.8.6-.2-.2-.6-.4-.8-.6-.4-.2-.7-.4-1.1-.6-.8.2-1.3.2-2.1.2.8-.2 1.5-.2 2.1-.2.4 0 .7-.2 1.1-.2.2 0 .2-.2.4-.2-1.7 0-3.4 0-4.9-.2-.4 0-.8.2-1.1.2-1.1.2-2.4.6-3.2-.4h-.9l.2.2c-.2 0-.2-.2-.4-.2-1.3 0-2.4-.2-3.8-.2-.8.4-1.7.8-2.4 1.1l-.9-.9c-.4.4-.8.7-1.3.9.8.6 1.3 1.1 1.9 1.5.9.9 1.9-1.9 2.8-.2-.9-1.7-2.1 1.1-2.8.2-.6-.4-1.1-.9-1.9-1.5-1.1.4-2.6 0-3.9-.8 1.5-.8 2.8 0 3.9.8.6-.2 1.1-.6 1.3-.9l.9.9c.8-.2 1.7-.8 2.4-1.1-2.4-.2-4.9-.2-7.5-.4-16.3-.7-31.3-.2-48.2-.7-9.2-.4-18-.9-26.6-1.7-17.2-1.7-32.8 1.1-50.2-3-6.8-1.5-18.9-.4-25.5 0-8.4 3.2-3.9 10.9-3.6 11.2 5.4 6.4 9.6 2.6 20.2 6.4-7.3-2.1 5.2-4.3 12.4 0 10.1 6.6 24.4.8 36.8 2.2 3.2.4 6.4 0 10.1 0 19.1 1.9 36.9-1.5 57.2-1.3 5.2-.2 9.9-1.9 14.4-3 3.2-.4 6.8.4 9.6.4 4.1-.2 7.9-.8 11.2-1.7-3.9.4-6.8.9-11.1 1.3-2.8.2 1.9-2.4 3.7-2.8.7-.4 2.1 1.5 3 1.1 1.7 0 3.4-.9 5.2-1.5.8-.4.8 1.3 1.1 1.1 2.6-.4 4.5-2.8 6.2-2.4 1.3.2 2.4.6 3.6.8.8 0 1.3.2 2.1 0 .4-.2.9-.4 1.3-.6-.4-.6-.6-1.1-.7-1.9.7 0 1.7.4 2.4.6-.8 0-1.7-.4-2.4-.6.2.7.4 1.3.7 1.9 3.4-1.1 7.3-2.2 10.9-3v-.2c-2.1.2-4.3.2-6.6-.9.9.4.9.9-.2.9l-.9-.9c1.9-.6 3.8-1.1 5.6.2 0 0 .8-.4 1.1-.6.6.2.6.8.7 1.3.4 0 .8-.2 1.3-.2 0-.4-2.8-1.5-2.8-1.5z"/><path d="M263.9 270.4c.4 0 .6-.2.9-.2-1.3 0-2.8-.2-4.1-.2 1 .9 2.1.8 3.2.4z"/></g><g fill="#414141" opacity=".85"><path d="M288.7 232.7h-2.1c.4.2.7.4 1.1.6.4.1.8-.2 1-.6zM284.8 232.5h-.4c-.2 0-.2.2-.4.2.4 0 .6-.2.8-.2zM281.2 233.1c.6 0 1.3 0 1.9-.2-.6 0-1.2 0-1.9.2z"/><path d="M284.2 233.4c-.2-.2-.4-.6 0-.8-.4 0-.8.2-1.1.2.3.3.7.4 1.1.6zM284.2 233.4c.2.2.6.6.7.6-.3-.2-.5-.4-.7-.6zM283.4 239.8c-.4.2-.4-1.5-.9-1.1-1.7.6-3 1.3-4.7 1.5-.8.4-1.9-1.5-2.6-1.1-1.7.6-5.8 3-3.4 2.8 3.8-.4 6.2-.9 9.6-1.3 2.8-.8 5.4-1.7 8.2-2.4.8-.2 1.5 0 2.2.2-.9-.2-2.1-.6-3-.8-1.4-.6-3.1 1.8-5.4 2.2zM303.9 233.4c-.4.2-1.1.6-1.1.6-1.7-1.3-3.2-.8-4.9-.2.2.4.6.6.7.9.9-.2 1.1-.6.2-.9 1.9 1.1 3.8 1.1 5.6.9 0-.5 0-1.1-.5-1.3zM305.6 234.6c-.4 0-.7.2-1.1.2v.2c.5-.2.9-.4 1.1-.4zM273.7 234.9c-4.7.2-9.2.2-13.5 0-.4.4-.6.8-.9.6-.4-.4-.7-.6-1.1-.6h-1.9c-.2 0-.4.2-.7.2-.4.2-.2.6 0 .8.2.2.6.4.7.6-.2-.2-.4-.4-.7-.6-.4-.2-.6-.4-1.1-.6-.6.2-1.1.2-1.9.2.7-.2 1.3-.2 1.9-.2.4 0 .7-.2 1.1-.2.2 0 .2-.2.4-.2-1.5 0-2.8-.2-4.3-.2-.4 0-.6.2-.9.2-1.1.2-2.1.6-2.8-.4h-.8l.2.2c-.2 0-.2-.2-.4-.2-1.1 0-2.2-.2-3.4-.2-.8.4-1.5.8-2.1 1.1 0 0-.6-.6-.8-.9-.4.4-.8.8-1.1.9.6.6 1.1 1.1 1.7 1.5.8.9 1.7-1.9 2.4-.2-.9-1.7-1.7 1.1-2.4.2-.6-.4-1.1-.9-1.7-1.5-.9.4-2.4 0-3.6-.8 1.3-.8 2.4 0 3.6.8.6-.2.9-.4 1.1-.9.2.4.8.9.8.9.8-.2 1.5-.8 2.1-1.1-2.1-.2-4.3-.2-6.6-.4-14.2-.9-27.4-.4-42.2-.9-8.1-.4-15.8-.9-23.3-1.9-15-1.9-28.7.9-44.1-3.4-5.8-1.5-16.7-.4-22.3 0-7.5 3.2-3.4 10.9-3 11.2 4.7 6.6 8.2 2.8 17.8 6.4-6.6-2.1 4.7-4.3 10.9 0 9 6.8 21.4.9 32.2 2.4 2.6.4 5.6 0 8.8 0 16.9 2.1 32.4-1.3 50.1-1.1 4.7-.2 8.8-1.9 12.8-2.8 2.8-.4 6 .4 8.2.4 3.8 0 6.8-.7 9.9-1.7-3.4.4-5.8.9-9.6 1.3-2.4.2 1.7-2.2 3.4-2.8.8-.4 1.9 1.5 2.6 1.1 1.5 0 3-.9 4.7-1.5.8-.4.8 1.3.9 1.1 2.2-.4 3.9-2.8 5.4-2.2 1.1.2 2.1.6 3 .8.6 0 1.3.2 1.9 0 .4-.2.8-.4 1.3-.6-.4-.6-.6-1.1-.6-1.9.6 0 1.5.4 2.1.6-.6 0-1.5-.4-2.1-.6.2.8.2 1.3.6 1.9 3-1.1 6.4-2.1 9.6-3v-.2c-1.9.2-3.8.2-5.6-.9.9.4.8.9-.2.9-.2-.4-.6-.6-.8-.9 1.7-.6 3.4-1.1 4.9.2 0 0 .7-.4 1.1-.6.6.2.6.8.6 1.3.4 0 .8-.2 1.1-.2-.8-.4-3.4-1.4-3.4-1.4z"/><path d="M254.6 235.1c.2 0 .6-.2.9-.2-1.1 0-2.4-.2-3.6-.2.4 1 1.5.8 2.7.4z"/></g><g fill="#414141" opacity=".85"><path d="M141.5 51.4l-.8-.8v.9c.1.3.4.1.8-.1zM140 49.9l-.4-.2c.2 0 .2.2.4.2zM138.1 48.9c.2.4.6.6.8.6 0-.2-.2-.6-.8-.6z"/><path d="M139.1 50.2c0-.2.2-.6.6-.6-.2 0-.4-.2-.6-.2v.8zM139.1 50.2c0 .2-.2.6-.2.7.2-.1.2-.5.2-.7zM134.6 54.8c-.2 0 .9-1.3.4-1.3-.9-.2-2.1-.2-2.8-.8-.6 0 .2-1.9-.2-1.9-.9-.2-4.3 0-3.2.9 1.7 1.1 3 1.7 4.7 2.6 1.7.4 3.4.8 4.9 1.3.4.2.6.6.8.9-.2-.6-.4-1.1-.8-1.7-.5-.6-2.7.5-3.8 0zM147.1 57.8h-.8c.2-1.5-.8-1.7-1.9-2.1l-.2.9c.4.2.8 0 .8-.7 0 1.5.8 2.2 1.7 2.8.1-.2.4-.6.4-.9zM146.9 59.1c-.2 0-.4-.2-.6-.4v.2c.3.2.5.2.6.2z"/><path d="M134 47.4c-2.1-1.7-3.8-3.4-5.4-5.1-.4.2-.8.4-.8 0v-.9l-.9-.6c-.2 0-.2 0-.4-.2-.4 0-.4.2-.6.6 0 .2 0 .6-.2.8 0-.2 0-.4.2-.8v-.8c-.4-.2-.6-.4-.8-.6.4 0 .8.4.8.6.2 0 .4.2.6.2h.2L125 39c-.2 0-.4-.2-.6-.2-.6-.2-1.1-.4-.9-1.3l-.4-.4v.2-.2l-1.1-1.3h-1.5s.2-.6.2-.9c-.4.2-.8.4-1.1.2-.2.6-.2 1.3-.4 1.7-.4.9 1.9-.8 1.1.8.8-1.7-1.3.2-1.1-.8 0-.4.2-1.1.4-1.7-.8-.2-.9-.9-1.1-2.1 1.1-.2 1.3 1.1 1.1 2.1.4 0 .8 0 1.1-.2 0 .4-.2.9-.2.9h1.5c-.8-.9-1.5-1.7-2.6-2.8-2.8-3.2-6-6.2-9.4-9.4s-6.8-6.2-10.5-9.9c-.2.9-.4 1.9-.6 2.8-.9 5.1-2.3 9.9-3.9 15.6-.8 2.8-1.3 6-1.9 9.2-.4 2.1-.6 4.1-.9 6.4-.6 3.9-1.5 7.9-4.3 11.8-1.9 3-1.7 9-1.9 12.2 2.6 4.5 10.5 3 10.9 3 6.8-1.9 3.4-4.1 7.7-9-2.6 3.4-3.9-3 .9-5.8 3.8-2.1 4.3-4.9 4.3-8.1 0-1.5-.2-3.2-.2-4.7 0-.7 0-1.5.2-2.2 0-.6.2-.4.2-.6h.2c.4 0 .2-.2.4-.4.6.2.9.6.9.6s-.2-.4-.4-.9c-.2-.6 0-.9.4-.4 0 0 .2-.4.6-.9.2-.4.8-.9 1.1-1.1.2 0 .4.4.4.6s0 .2.2.2c.2.2.2.4.4.4.2.4.4.6.8.8 1.5 1.3 3.2 2.1 5.1 2.4-1.7-.9-3-1.5-4.7-2.6-1.1-.8 2.2-1.1 3.2-.9.6 0-.2 1.9.2 1.9.6.6 1.7.4 2.8.8.6 0-.6 1.3-.4 1.3 1.1.6 3.4-.6 3.8.4.4.6.6 1.1.8 1.7.2.4.4.6.8.8.2 0 .6 0 .8.2.2-.6.6-1.1.9-1.7.2.4.2.9.4 1.1-.2-.4-.2-.9-.4-1.1-.4.6-.8 1.1-.9 1.7 1.9.2 3.9.8 5.8 1.3v-.2c-.9-.6-1.5-1.3-1.7-2.8 0 .6-.2.9-.8.8l.4-.9c.9.2 2.1.4 1.9 2.1h.8c0 .4-.4.8-.6 1.1.2.2.4.2.6.4.4-1.7.2-3.6.2-3.6z"/><path d="M125.9 40.5c.2 0 .4.2.6.2l-1.3-1.5c-.4.9.2 1.1.7 1.3z"/></g><g fill="#414141" opacity=".85"><path d="M194 289.3V288l-.6.6c-.2.5.2.5.6.7zM194.2 287.1v-.2l-.2-.2s.2.2.2.4zM193.6 284.8c0 .4 0 .7.2 1.1 0-.3 0-.7-.2-1.1z"/><path d="M193.2 286.5c.2-.2.6-.2.8 0 0-.2-.2-.4-.2-.6l-.6.6zM193.2 286.5c-.2.2-.6.4-.6.4.3 0 .5-.2.6-.4zM186.9 286.1c-.2-.2 1.7-.2 1.1-.6-.6-.9-1.3-1.9-1.3-2.8-.4-.4 1.5-1.1 1.1-1.5-.6-.9-3-3.6-2.8-2.1.4 2.2.8 3.8 1.1 5.8.8 1.7 1.7 3.2 2.2 5.1.2.6 0 .9-.2 1.3.2-.6.6-1.1.8-1.9.8-.8-1.7-2-2-3.3zM193.1 298.7l-.6-.6c1.3-.9.8-2.1.2-3-.4.2-.6.4-.9.6.2.6.6.6.9.2-1.1 1.1-1.1 2.2-.9 3.6.5-.4 1.1-.4 1.3-.8z"/><path d="M191.9 299.8c0-.2-.2-.4-.2-.8h-.2c.3.2.4.6.4.8zM191.9 280.1c-.2-2.8-.2-5.6 0-8.2-.4-.2-.8-.4-.6-.6.4-.2.6-.4.6-.6v-1.1c0-.2-.2-.2-.2-.4-.2-.2-.6-.2-.8 0-.2.2-.4.4-.6.4.2 0 .4-.4.6-.4l.6-.6c-.2-.4-.2-.7-.2-1.1.2.4.2.7.2 1.1 0 .2.2.4.2.6l.2.2c0-.9.2-1.7.2-2.6 0-.2-.2-.4-.2-.6-.2-.6-.6-1.3.4-1.7v-.6s-.2 0-.2.2l.2-.2c0-.7.2-1.3.2-2.1-.4-.4-.8-.9-1.1-1.3l.9-.6c-.4-.2-.8-.4-.9-.8-.6.4-1.1.8-1.5 1.1-.9.6 1.9.9.2 1.5 1.7-.6-1.1-1.1-.2-1.5.4-.4.9-.8 1.5-1.1-.4-.6 0-1.5.8-2.1.8.7 0 1.5-.8 2.1.2.4.4.6.9.8-.4.2-.9.6-.9.6.2.4.8.9 1.1 1.3.2-1.3.2-2.6.4-3.9.9-8.8.6-16.9 1.3-25.9.4-4.9 1.1-9.6 2.1-14.2 1.9-9.2-.8-17.6 3.8-27 1.5-3.6.6-10.3.2-13.7-3-4.5-10.7-2.1-11.2-1.7-6.6 3-2.8 5.1-6.6 11.1 2.1-3.9 4.3 2.8-.2 6.6-6.8 5.4-1.1 13.1-2.6 19.7-.4 1.7 0 3.4-.2 5.4-2.1 10.3.9 19.9.8 30.6 0 2.8 1.9 5.4 2.8 7.7.4 1.7-.6 3.8-.4 5.1 0 2.2.8 4.1 1.5 6-.4-2.1-.9-3.6-1.1-5.8-.2-1.5 2.2.9 2.8 2.1.4.4-1.5 1.1-1.1 1.5 0 .9.9 1.9 1.3 2.8.4.4-1.3.4-1.1.6.4 1.3 2.8 2.4 2.2 3.4-.2.8-.6 1.3-.8 1.9 0 .4-.2.8 0 1.1.2.2.4.6.4.7.6-.2 1.1-.4 1.9-.4 0 .4-.6.9-.6 1.3 0-.4.6-.9.6-1.3-.8 0-1.3.2-1.9.4 1.1 1.9 2.1 3.9 3 5.8h.2c-.2-1.1 0-2.2.9-3.6-.4.6-.9.6-.9-.2.4-.2.6-.4.9-.6.6.9 1.1 2.1-.2 3l.6.6c-.2.4-.8.4-1.3.4 0 .2 0 .4.2.8.6-.3 1.7-2 1.7-2z"/><path d="M191.8 268.3c0 .2.2.4.2.6 0-.8.2-1.5.2-2.2-1 .5-.8 1.1-.4 1.6z"/></g><g fill="#414141" opacity=".85"><path d="M224 147.7l-.6-.6v.8c0 .3.2.2.6-.2zM222.9 146.8c0-.2 0-.2 0 0h-.4c.2-.2.2-.2.4 0zM221.4 146.2c.2.2.4.4.6.4-.1-.2-.2-.4-.6-.4z"/><path d="M222.1 147.1c0-.2.2-.6.4-.6h-.6c.2.3.2.4.2.6zM222.1 147.1c0 .2-.2.6-.2.8 0-.2.2-.4.2-.8zM218 152c-.2 0 .9-1.3.4-1.1-.8 0-1.9.4-2.2 0-.6.2.4-1.7-.2-1.5-.8 0-3.8.9-2.8 1.5 1.3.8 2.4.9 3.8 1.5 1.3.2 2.6 0 3.9.2.4.2.4.4.6.8-.2-.4-.4-.9-.6-1.3-.1-1.2-2 .3-2.9-.1zM228.1 152.4c-.2 0-.8.2-.8.2.2-1.5-.6-1.5-1.5-1.5-.2.4-.2.6-.4.9.4.2.8-.2.8-.8 0 1.3.4 1.9 1.1 2.2.6-.3 1-.8.8-1zM228.1 153.7c-.2 0-.4 0-.4-.2v.2h.4zM218 145.6c-1.5-1.1-3-2.2-4.3-3.4-.4.2-.6.4-.8.2v-.8l-.6-.6h-.4c-.2 0-.4.4-.4.6 0 .2-.2.4-.2.8 0-.2 0-.4.2-.8v-.6c-.2 0-.6-.2-.6-.4.4 0 .6.2.6.4h.8l-1.3-1.3c-.2 0-.2 0-.4-.2-.6 0-.9-.2-.6-.9l-.2-.2v.2-.2l-.9-.9c-.4.2-.9.2-1.3.4 0 0 .2-.6.4-.9-.4.4-.8.4-.9.4-.2.6-.4 1.1-.4 1.7-.4.9 1.7-1.1.9.6.8-1.5-1.1.4-.9-.6 0-.4.2-.9.4-1.7-.6 0-.8-.6-.6-1.5.9-.2.8.6.6 1.5.2 0 .6-.2.9-.4-.2.4-.4.9-.4.9.4 0 .9-.2 1.3-.4-.6-.6-1.1-1.3-1.9-1.9-3.9-4.3-8.2-7.5-12.6-11.6-2.2-2.4-4.3-4.9-6-7.5-3.6-5.2-9.4-6.8-11.6-14.1-.9-2.6-4.9-4.7-6.8-5.8-4.3.6-7.7 7.7-7.7 8.1-2.4 6.4.9 4.3 1.5 9.8-.8-3.4 4.1-2.2 3.4 2.8-1.3 7.7 6 6.2 8.4 10.3.6.9 1.7 1.5 2.6 2.4 3.9 6 10.7 7.5 16.1 12.2 1.5 1.1 3.8.8 5.6.9 1.1.4 1.5 1.9 2.2 2.4 1.1.9 2.6 1.1 4.1 1.3-1.3-.6-2.4-.8-3.8-1.5-.9-.6 1.9-1.5 2.8-1.5.6-.2-.4 1.7.2 1.5.6.4 1.5 0 2.2 0 .6-.2-.6 1.3-.4 1.1.9.2 3-1.1 3.2-.4.2.6.4.9.6 1.3l.6.6h.8c.2-.6.6-1.1.9-1.7.2.2.2.8.4.9-.2-.2-.2-.8-.4-.9-.4.6-.8 1.1-.9 1.7 1.7-.2 3.4 0 4.9.2v-.2c-.8-.4-1.1-.9-1.1-2.2 0 .6-.4.9-.8.8.2-.4.2-.6.4-.9.8 0 1.7 0 1.5 1.5 0 0 .6-.2.8-.2 0 .4-.4.8-.6 1.1.2 0 .4.2.4.2.3-1.1.1-2.6.1-2.6z"/><path d="M211.8 140.9c.2 0 .2 0 .4.2-.4-.4-.8-.8-.9-1.1-.4.8.1.9.5.9z"/></g><g fill="#414141" opacity=".85"><path d="M154 150.1c.2-.2.6-.4.8-.6v.8c-.2.4-.4 0-.8-.2zM155.3 149c.2 0 .2 0 0 0h.4-.4zM157 148.4c-.2.2-.4.4-.8.4.2-.2.4-.4.8-.4zM156.1 149.6c0-.2-.2-.6-.4-.6h.6c-.1 0-.2.4-.2.6zM156.1 149.6c0 .2 0 .6.2.8-.1-.5-.2-.6-.2-.8zM160 154.6c.2 0-.8-1.5-.2-1.3.9 0 1.9.4 2.4 0 .6.2-.2-1.9.4-1.7.9 0 3.9.9 2.8 1.5-1.5.8-2.8.9-4.3 1.5-1.5 0-3 0-4.3.2-.4.2-.6.4-.8.8.2-.6.4-.9.8-1.5.2-.8 2.1.7 3.2.5zM148.8 154.6c.2 0 .8.2.8.2 0-1.5.8-1.5 1.7-1.5 0 .4.2.6.2.9-.4.2-.8-.2-.6-.8-.2 1.3-.8 2.1-1.5 2.2-.3 0-.6-.6-.6-1zM148.8 156.1c.2 0 .4 0 .6-.2v.2h-.6zM160.8 148.1c1.9-1.1 3.6-2.2 5.1-3.6.4.2.6.6.8.2v-.8c.2-.2.4-.4.8-.6h.4c.2 0 .4.4.4.6 0 .2 0 .4.2.8 0-.2 0-.4-.2-.8 0-.2 0-.6.2-.8.4 0 .6-.2.8-.4-.4 0-.6.2-.8.4h-.8c.6-.4.9-.9 1.5-1.3.2 0 .4 0 .4-.2.6 0 1.1-.2.8-.9l.2-.2v.2-.2c.4-.4.8-.8 1.1-.9.4.2.9.4 1.3.4 0 0-.2-.6-.2-.9.4.4.8.4.9.4 0 .6.2 1.3.2 1.7.2.9-1.7-1.1-.9.6-.6-1.7 1.3.4.9-.6 0-.4-.2-1.1-.2-1.7.6 0 .9-.6.9-1.5-.9-.4-.9.6-.9 1.5-.2 0-.6-.2-.9-.4 0 .4.2.9.2.9-.4 0-.9-.2-1.3-.4.8-.8 1.5-1.3 2.2-2.1 4.9-4.5 9.9-7.5 15.2-11.8 2.8-2.4 5.2-4.9 7.7-7.7 4.7-5.4 11.2-6.8 14.4-14.2 1.3-2.8 6-4.7 8.2-6 4.5.8 7.1 8.1 7.3 8.6 1.9 6.7-1.5 4.5-3 10.1 1.3-3.4-4.1-2.4-3.9 2.8.4 7.9-7.3 6.4-10.5 10.5-.8 1.1-2.1 1.5-3.2 2.4-5.1 6-12.8 7.5-19.1 12.2-1.9 1.1-4.3.8-6.2.9-1.3.4-1.9 1.9-2.8 2.4-1.5.9-3 1.1-4.5 1.1 1.5-.6 2.6-.8 4.3-1.5.9-.6-1.9-1.5-2.8-1.5-.6-.2.2 1.9-.4 1.7-.6.4-1.5 0-2.4 0-.6-.2.6 1.3.2 1.3-1.1.2-3-1.3-3.4-.6-.2.6-.6.9-.8 1.5l-.6.6h-.8c-.2-.6-.6-1.1-.8-1.7-.2.2-.4.8-.4.9.2-.2.4-.8.4-.9.4.6.6 1.1.8 1.7-1.7-.2-3.6-.2-5.3 0v-.2c.8-.4 1.5-.9 1.5-2.2-.2.6.2.9.6.8 0-.4-.2-.6-.2-.9-.9 0-1.9 0-1.7 1.5 0 0-.6-.2-.8-.2 0 .4.2.8.4 1.3-.2 0-.4.2-.6.2-.3-1 .1-2.5.1-2.5z"/><path d="M168.1 143.2c-.2 0-.2 0-.4.2.4-.4.8-.8 1.3-1.1.2.9-.4.9-.9.9z"/></g><g fill="#414141" opacity=".85"><path d="M241.4 49.5l.8-.8v.9c0 .3-.4.1-.8-.1zM242.9 48l.4-.2c-.2 0-.4.2-.4.2zM244.6 47.1c-.2.4-.6.6-.8.6.3-.3.4-.6.8-.6z"/><path d="M243.9 48.4c0-.2-.2-.6-.6-.6.2 0 .4-.2.6-.2 0 .2-.2.6 0 .8zM243.9 48.4c0 .2.2.6.2.7-.2-.2-.2-.5-.2-.7zM248.4 52.9c.2 0-.9-1.3-.4-1.3.9-.2 2.1-.2 2.8-.8.6 0-.2-1.9.2-1.9.9-.2 4.3 0 3.2.9-1.7 1.1-3 1.7-4.7 2.6-1.7.4-3.4.8-4.9 1.3-.4.2-.6.6-.8.9.2-.6.4-1.1.8-1.7.2-.6 2.5.5 3.8 0zM235.8 55.9h.8c-.2-1.5.8-1.7 1.9-2.1l.2.9c-.4.2-.8 0-.8-.7 0 1.5-.8 2.2-1.7 2.8 0-.2-.4-.6-.4-.9zM235.8 57.2c.2 0 .4-.2.6-.4v.2c0 .2-.2.2-.6.2z"/><path d="M248.9 45.6c2.1-1.7 3.8-3.4 5.4-5.1.4.2.7.4.7 0v-.9l.7-.8c.2 0 .2 0 .4-.2.4 0 .4.2.6.6 0 .2 0 .6.2.8 0-.2 0-.4-.2-.8v-.8c.4-.2.6-.4.8-.6-.4 0-.8.4-.8.6-.2 0-.4.2-.6.2h-.2l1.7-1.7c.2 0 .4-.2.6-.2.6-.2 1.1-.4.9-1.3l.4-.4v.2-.2l1.1-1.3h1.5s-.2-.6-.2-.9c.4.2.8.4 1.1.2.2.6.2 1.3.4 1.7.4.9-1.9-.8-1.1.8-.7-1.7 1.3.2 1.1-.8 0-.4-.2-1.1-.4-1.7.7-.2.9-.9 1.1-2.1-1.1-.2-1.3 1.1-1.1 2.1-.4 0-.8 0-1.1-.2 0 .4.2.9.2.9h-1.5c.7-.9 1.5-1.7 2.6-2.8 2.8-3.2 6-6.2 9.4-9.4s6.8-6.2 10.5-9.9c.2.9.4 1.9.6 2.8.9 5.1 2.2 9.9 3.9 15.6.8 2.8 1.3 6 1.9 9.2.4 2.1.6 4.1.9 6.4.6 3.9 1.5 7.9 4.3 11.8 1.9 3 1.7 9 1.9 12.2-2.6 4.5-10.5 3-10.9 3-6.8-1.9-3.4-4.1-7.7-9 2.6 3.4 3.9-3-.9-5.8-3.8-2.1-4.3-4.9-4.3-8.1 0-1.5.2-3.2.2-4.7 0-.8 0-1.5-.2-2.2 0-.6-.2-.4-.2-.6h-.2c-.4 0-.2-.2-.4-.4-.6.2-.9.6-.9.6s.2-.4.4-.9c.2-.6 0-.9-.4-.4 0 0-.2-.4-.6-.9-.2-.4-.8-.9-1.1-1.1-.2 0-.4.4-.4.6s0 .2-.2.2c-.2.2-.2.4-.4.4-.2.4-.4.6-.8.8-1.5 1.3-3.2 2.1-5.1 2.4 1.7-.9 3-1.5 4.7-2.6 1.1-.8-2.2-1.1-3.2-.9-.6 0 .2 1.9-.2 1.9-.6.6-1.7.4-2.8.8-.6 0 .6 1.3.4 1.3-1.1.6-3.4-.6-3.8.4-.4.6-.6 1.1-.8 1.7-.2.4-.4.6-.8.8-.2 0-.6 0-.7.2-.2-.6-.6-1.1-.9-1.7-.2.4-.2.9-.4 1.1.2-.4.2-.9.4-1.1.4.6.7 1.1.9 1.7-1.9.2-3.9.8-5.8 1.3v-.2c.9-.6 1.5-1.3 1.7-2.8 0 .6.2.9.8.8l-.4-.9c-.9.2-2.1.4-1.9 2.1h-.8c0 .4.4.8.6 1.1-.2.2-.4.2-.6.4-.3-1.5 0-3.3 0-3.3z"/><path d="M256.8 38.6c-.2 0-.4.2-.6.2l1.3-1.5c.6.9.1 1.1-.7 1.3z"/></g></svg>