<?xml version="1.0" encoding="UTF-8" standalone="no"?>
<svg width="453px" height="356px" viewBox="0 0 453 356" version="1.1" xmlns="http://www.w3.org/2000/svg" xmlns:xlink="http://www.w3.org/1999/xlink" xmlns:sketch="http://www.bohemiancoding.com/sketch/ns">
    <!-- Generator: Sketch 3.3.3 (12081) - http://www.bohemiancoding.com/sketch -->
    <title>Cat Logo</title>
    <desc>Created with Sketch.</desc>
    <defs></defs>
    <g id="Welcome" stroke="none" stroke-width="1" fill="none" fill-rule="evenodd" sketch:type="MSPage">
        <g id="Cat-Logo" sketch:type="MSArtboardGroup">
            <path d="M339.381425,62.3989333 C306.69268,53.1854936 268.415721,47.8871778 227.5,47.8871778 C188.332827,47.8871778 151.583697,52.7423194 119.839856,61.2392736 L119.839856,61.2392736 L64.029295,15 L50.1726613,90.8109462 C24.8763809,107.480282 10,127.869004 10,149.887178 C10,206.220222 107.378067,251.887178 227.5,251.887178 C347.621933,251.887178 445,206.220222 445,149.887178 C445,128.353187 430.770694,108.377772 406.480983,91.9160041 L392.970705,18 L339.381425,62.3989333 Z" id="Oval-64" stroke="#000000" stroke-width="15" sketch:type="MSShapeGroup"></path>
            <text id="X" sketch:type="MSTextLayer" font-family="Ohmega Sans" font-size="124" font-weight="normal" fill="#000000">
                <tspan x="170" y="189">X</tspan>
            </text>
            <path d="M229.175347,258.451429 L229.175347,347.597046" id="Line-Copy-2" stroke="#000000" stroke-width="15" stroke-linecap="square" sketch:type="MSShapeGroup"></path>
            <path d="M46,287.5 L408.1,287.5" id="Line" stroke="#000000" stroke-width="15" stroke-linecap="square" sketch:type="MSShapeGroup"></path>
            <path d="M71,317.5 L383.1,317.5" id="Line-Copy-3" stroke="#000000" stroke-width="15" stroke-linecap="square" sketch:type="MSShapeGroup"></path>
            <path d="M46,347.5 L408.1,347.5" id="Line-Copy-4" stroke="#000000" stroke-width="15" stroke-linecap="square" sketch:type="MSShapeGroup"></path>
        </g>
    </g>
</svg>