<?xml version="1.0" encoding="UTF-8" standalone="no"?>
<svg width="453px" height="356px" viewBox="0 0 453 356" version="1.1" xmlns="http://www.w3.org/2000/svg" xmlns:xlink="http://www.w3.org/1999/xlink" xmlns:sketch="http://www.bohemiancoding.com/sketch/ns">
    <!-- Generator: Sketch 3.3.3 (12081) - http://www.bohemiancoding.com/sketch -->
    <title>Cat Logo</title>
    <desc>Created with Sketch.</desc>
    <defs></defs>
    <g id="Welcome" stroke="none" stroke-width="1" fill="none" fill-rule="evenodd" sketch:type="MSPage">
        <g id="Cat-Logo" sketch:type="MSArtboardGroup">
            <path d="M339.243727,67.8703997 C306.585209,58.9480464 268.358283,53.8182049 227.5,53.8182049 C188.388067,53.8182049 151.687361,58.5189022 119.974197,66.7472211 L119.974197,66.7472211 L64.3773272,21.8871778 L49.9012817,95.6680478 C24.7700181,111.82053 10,131.551228 10,152.852691 C10,207.547928 107.378067,251.887178 227.5,251.887178 C347.621933,251.887178 445,207.547928 445,152.852691 C445,132.018244 430.870522,112.686441 406.736674,96.7355734 L392.622673,24.7999568 L339.243727,67.8703997 Z" id="Oval-64" stroke="#000000" stroke-width="15" sketch:type="MSShapeGroup"></path>
            <text id="X" sketch:type="MSTextLayer" font-family="Ohmega Sans" font-size="124" font-weight="normal" fill="#000000">
                <tspan x="170" y="199">X</tspan>
            </text>
            <path d="M229.175347,258.451429 L229.175347,347.597046" id="Line-Copy-2" stroke="#000000" stroke-width="15" stroke-linecap="square" sketch:type="MSShapeGroup"></path>
            <path d="M46,287.5 L408.1,287.5" id="Line" stroke="#000000" stroke-width="15" stroke-linecap="square" sketch:type="MSShapeGroup"></path>
            <path d="M46,317.5 L408.1,317.5" id="Line-Copy-7" stroke="#000000" stroke-width="15" stroke-linecap="square" sketch:type="MSShapeGroup"></path>
            <path d="M46,347.5 L408.1,347.5" id="Line-Copy-4" stroke="#000000" stroke-width="15" stroke-linecap="square" sketch:type="MSShapeGroup"></path>
        </g>
    </g>
</svg>