<?xml version="1.0" encoding="utf-8"?>
<!-- Generator: Adobe Illustrator 18.1.0, SVG Export Plug-In . SVG Version: 6.00 Build 0)  -->
<svg version="1.1" xmlns="http://www.w3.org/2000/svg" xmlns:xlink="http://www.w3.org/1999/xlink" x="0px" y="0px"
	 viewBox="0 0 400 300" enable-background="new 0 0 400 300" xml:space="preserve">
<g id="orig" display="none">
	<g>
		
			<image display="inline" overflow="visible" enable-background="new    " width="1224" height="1632" xlink:href="31D418289C2AD33C.jpeg"  transform="matrix(0.4013 0 0 0.4013 -36.0689 -221.5408)">
		</image>
		
			<image display="inline" overflow="visible" enable-background="new    " width="1224" height="1632" xlink:href="31D418289C2AD33C.jpeg"  transform="matrix(0.4013 0 0 0.4013 -36.0689 -221.5408)">
		</image>
	</g>
	<g>
		<g display="inline">
			<g>
				
					<rect x="83.4" y="186.2" transform="matrix(0.9992 -4.071198e-02 4.071198e-02 0.9992 -7.9483 9.7082)" fill="none" width="301.9" height="27.6"/>
				<path d="M323.4,184.9c0.2-0.2,0.4-0.2,0.8-0.2C324.1,184.9,323.8,185.1,323.4,184.9z"/>
				<path d="M336.1,203.1c0.2,0,0.9-0.4,0.9,0C336.7,203.1,336.5,203.1,336.1,203.1z"/>
				<path d="M337.4,203.4c0-0.2,0.6,0,0.9,0C338.4,203.6,337.6,203.4,337.4,203.4z"/>
				<path d="M341,200.4c0.2-0.2,0.7-0.2,0.9,0C341.9,200.4,341.4,200.4,341,200.4z"/>
				<path d="M342.9,203.4c0.4-0.2,0.7-0.2,1.5-0.2C344.2,203.2,343.4,203.2,342.9,203.4z"/>
				<path d="M346.8,188.4c0.8,0,2.4-0.4,3,0C348.9,188.2,347.8,188.6,346.8,188.4z"/>
				<path d="M349.2,194.8c0.9-0.4,2.8,0,4.1-0.4c0.2,0.4-1.9,0.2-2.2,0.4c-0.4,0-0.6,0-0.7-0.2C350,194.8,349.6,195,349.2,194.8z"/>
				<path d="M361.6,195.4c0-0.2,0-0.4,0.4-0.2c0.2,0,0.2,0.2,0.2,0.2C362,195.2,361.8,195.2,361.6,195.4z"/>
				<path d="M366.7,192.8c0.7-0.4,2.6-0.4,3.8-0.2c0.2,0,0.2-0.2,0.4-0.2c0.6,0,2.1,0,0.6,0C369.7,192.8,368.4,192.6,366.7,192.8z"
					/>
				<path d="M367.4,196.1c0.2-0.2,0.6-0.2,0.9-0.2C368.2,196.1,367.6,196.1,367.4,196.1z"/>
				<path d="M368.2,187.3c0.2-0.2,0.7,0,1.1-0.2C369.1,187.3,368.6,187.3,368.2,187.3z"/>
				<path d="M368.4,195c0.4-0.2,1.1-0.2,1.5-0.4C370.1,195,368.8,195,368.4,195z"/>
				<path d="M368.9,195.9c0.2-0.2,0.9-0.2,1.5-0.2C370.2,195.8,369.5,195.8,368.9,195.9z"/>
				<path d="M369.5,185.6c0-0.2,0.6-0.2,0.9-0.4C370.2,185.6,369.9,185.4,369.5,185.6z"/>
				<path d="M370.1,187.3c0.4-0.2,1.9-0.2,2.6-0.2C371.8,187.1,371.2,187.3,370.1,187.3z"/>
				<path d="M370.8,195.6c0.8-0.4,1.7-0.2,2.2-0.2C372.5,195.8,371.6,195.4,370.8,195.6z"/>
				<path d="M372.5,192.4c0.2-0.2,0.8-0.2,1.1-0.2C373.6,192.6,372.9,192.4,372.5,192.4z"/>
				<path d="M373.6,193.1c0.4-0.2,0.6-0.2,1.1-0.2C374.6,193.1,373.8,192.9,373.6,193.1z"/>
				<path d="M374.8,193.9c0.2-0.2,1.1-0.2,0.9,0.2c-0.2,0-0.2,0-0.2-0.2C375.1,193.7,375.1,193.9,374.8,193.9z"/>
				<path d="M377.4,188.6C376.6,188.8,375.5,188.4,377.4,188.6L377.4,188.6z"/>
				<path d="M378.7,186c0.6-0.2,1.1-0.2,1.7-0.2C380,186,378.9,186,378.7,186z"/>
				<path d="M379.1,185.6c-0.2-0.2,0.9-0.2,0.6,0C379.4,185.6,379.2,185.6,379.1,185.6z"/>
				<path d="M380.2,182.1c0.2-0.2,0.6-0.2,0.9-0.2C380.9,182.1,380.4,182.1,380.2,182.1z"/>
				<path d="M383.8,182.2C384.9,181.9,385.2,182.1,383.8,182.2L383.8,182.2z"/>
				<path d="M354.3,183.2c0.2-0.2,0.6-0.2,0.8-0.4c0.4,0.2,1.1,0,1.7,0C356,183.4,355.2,183,354.3,183.2z"/>
				<path d="M369.1,188.4c0.4,0,0.4,0.2,0.6,0c0,0.2-0.2,0.2-0.2,0.2c0.7,0,0.9,0,1.5-0.2l-0.2,0.2c0.8-0.4,1.7,0.2,3.2,0
					c-1.5,0.4-4.7,0.4-6,0.4c0.2-0.2,1.3,0,1.5-0.4C369.7,188.6,368.9,188.8,369.1,188.4z"/>
				<path d="M370.8,194.8C371,194.8,370.8,194.6,370.8,194.8c0-0.2,0.6-0.2,0.8,0C371.4,194.8,369.5,194.8,370.8,194.8z"/>
				<path d="M380.6,193.7v0.2c0.8,0,2.2-0.2,2.8,0c-0.9,0.2-3.2-0.2-3.8,0.4c-0.2,0-0.6,0-0.6-0.2c-2.2,0.6-4.9,0.2-7.3,0.6
					c1.1-0.8,3.6,0.2,4.7-0.8c0.2,0,0,0-0.2,0C377.2,194.1,379.2,194.1,380.6,193.7z"/>
				<path d="M379.2,185.1c0.2-0.2,0.6-0.2,0.8-0.4C380.2,184.9,379.6,185.2,379.2,185.1z"/>
				<path d="M116.4,190.9c-0.6,0-1.3,0.4-1.9,0.4c-1.5,0-2.8-0.2-4.1,0s-2.4,0.6-3.8,0.8c-0.9,0.2-1.3,0.2-2.1,0.4
					c-1.9,0.4-3.6,0.2-4.3,0.9c-1.3,0.6-3,0.9-4.1,1.3c-0.2,0-0.6,0-0.8,0c-3,1.1-4.7,3-8.2,3.9c-0.4,0.4-0.6,0.9-1.1,1.5
					c-0.2,0.2-0.9,0.4-1.1,0.6c-0.8,0.9,0,1.9-1.3,2.6c0,0.2,0.2,0.2,0.2,0.4c0,1.7,0.6,3,0.4,4.3c0.9,0.8,0.8,1.7,1.5,2.2
					c0.4,0.4,1.3,0.8,1.9,1.3c0.8,0.4,1.3,0.8,1.9,1.3c0,0.6,0.9,0.6,1.1,0.9c1.1,0.2,1.9,0.8,2.8,0.9c0.2,0.2,0.4,0.2,0.4,0.4
					c2.2,0.8,4.5,1.7,7.5,1.9c0.2,0,0.9,0,1.1,0c2.3-0.2,5.6,0,6.8,0.6c0.4,0,0.4-0.2,0.8,0c0.2,0.4,1.5,0.9,2.4,0.8
					c0.4,0,0.9-0.6,1.7-0.6c1.1-0.2,2.2,0.4,3.2,0.2c0.6,0,0.9-0.6,1.5-0.6c1.3-0.4,3.9-0.2,5.1-0.2c0.9,0,1.1,0.4,1.9,0.4
					c0.6,0,0.9-0.4,0.9-0.9c1.7-1.1,6-0.6,8.6-1.1c1.9,0.4,3.8-0.4,5.4-0.4c0.4,0,0.8,0.2,1.1,0.2c0.6,0,1.5-0.4,2.2-0.4
					c1.3-0.2,2.6-0.2,3.8-0.4c1.7,0.6,3-0.2,4.5-0.2c0.6,0,1.1,0.2,1.7,0.2c0.6,0,0.9-0.2,1.5-0.2c0.6,0,1.1,0.2,1.7,0.2
					c0.4,0,0.8-0.2,1.1-0.2c0.4,0,0.8,0.2,1.1,0.2c0.6,0,0.9-0.4,1.5-0.4c1.9-0.2,3.8,0,5.4-0.6c3,0.4,5.6-0.6,9.4-0.2
					c0.9-0.2,1.5-0.4,2.4-0.2c0.2,0,0.2-0.2,0.6-0.2c1.9,0.2,3.8-0.6,5.8-0.4l0.2-0.2c2.6,0.2,6,0.2,8.1-0.4
					c1.7,0.2,3.6-0.2,5.4-0.4c0.9,0,1.9,0.2,2.8,0c1.7-0.2,3.9-0.2,5.6-0.4c0.6,0,0.9-0.2,1.5-0.4c0.9,0,1.9,0,2.8,0
					c3.6-0.6,7.7-0.4,10.9-0.6c0.9,0,1.9-0.4,2.8-0.4c1.9-0.2,3.8,0,5.4,0c0.4,0,0.9-0.2,1.3-0.2c1.1-0.2,2.1,0,3.4,0
					c2.8-0.2,5.6-0.6,8.2-0.4c3.4-0.6,8.2-0.6,12.2-0.9c0.9-0.4,1.7-0.2,2.6-0.2c2.8-0.2,6.4-0.8,9.4-0.8
					c12.4-1.1,25.3-1.3,37.5-2.6c0.9,0.2,2.4,0,3.4-0.2c0.2,0.2,0.8,0.2,1.1,0.2c1.5-0.6,3.4-0.2,5.4-0.4c0.6-0.4,1.7-0.2,2.4-0.6
					c0.4,0.2-0.4,0.2,0.2,0.4c1.3-0.9,5.4-0.6,7.3-0.9c-0.2,0-0.2-0.2,0-0.2c0.4,0.2,0.7-0.2,1.1-0.2c3.4-0.2,5.8-1.1,8.8-1.5
					c0.4,0.2,1.3,0.4,1.7,0c-0.6,0-1.1,0-1.1-0.4c0.9,0,2.1-0.2,2.6-0.4c1.1,0,1.7,0,2.6-0.2c0.2,0-0.2-0.4,0.2-0.4
					c1.5,0.2,2.2-0.2,3.8-0.2c0.4-0.4,2.1-0.6,2.4-0.4c0.4-0.2-0.6-0.2-0.2-0.4c1.3-0.2,2.4-0.4,3.6-0.2c0.2-0.2,0.4-0.4,0.9-0.4
					c0.4,0,0,0.4,0.4,0.2c0.4-0.2-0.4-0.4-0.2-0.6c0.6-0.2,0.6-0.4,0.8-0.6c0.9,0.2,1.5-0.2,2.2-0.4c0.7-0.2,1.7,0,2.4-0.2
					c0.8-0.2,0.9-0.4,1.7-0.4c0.6,0,1.1,0.2,1.9,0.2c0.4,0-0.2-0.2,0.2-0.2c2.4-0.2,4.9-0.4,6.6-0.9c-2.6,0.6-4.7,0.2-7.1,0.8
					c-0.4-0.4-1.1,0.2-1.5-0.2c-0.2,0.2,0.4,0.2-0.2,0.2c-0.2,0-0.2,0-0.6,0c0.4-0.4-0.2-0.4-0.4-0.6c-2.1,0.2-3.6,0.4-5.4,0.4
					c-0.4,0.2,0.2,0.2-0.2,0.2c-0.7,0-1.1,0-2.1,0.2c-0.2-0.2-0.8-0.4-0.6-0.8c2.4,0,5.6-0.8,8.4-0.9c0.9,0,1.7,0.2,2.2-0.2
					c-1.3,0.2-2.2-0.2-3.4-0.2c-1.5,0-3,0.6-4.3,0.4c-0.4,0-0.6-0.2-0.9-0.2c-0.2,0-0.7,0.2-1.1,0.2c-0.4,0-0.4-0.2-0.6-0.2
					c-0.6,0-1.1,0.4-1.7,0.4c-1.1,0-2.2-0.2-3.4,0c-0.2-0.2-0.2-0.4,0.2-0.6c1.5,0,1.7,0,3.2-0.2c-0.2,0-0.2,0-0.2-0.2
					c0.4,0,0.6,0,0.9,0c-1.1,0-0.9-0.4-0.6-0.8c2.6,0,6-0.4,8.2-0.4c0.2-0.2,0.4-0.4,0.8-0.4c2.4-0.2,5.2-0.2,8.1-0.6
					c-3-0.2-6.4,0-9.9,0.4c-0.2,0,0-0.2-0.4-0.2c-1.5,0.2-3.4,0.2-4.5,0.4c-0.6-0.2-1.1-0.6-1.5-0.8c-3.8,0.4-6.6-0.8-10.1-0.6
					c0-0.2-0.2-0.2-0.4-0.4c0.4-0.2,0.4-0.4,0.7-0.6c0.6,0,1.1-0.2,1.7,0c3-0.8,7.3-0.6,11.1-0.9c0.4-0.4,0-0.6-0.2-0.9
					c-1.9-0.2-3.4,0.4-5.4,0c-0.8-0.8,0-1.3,1.5-1.5c2.4-0.2,6.8-0.2,8.2-0.2c7.1-0.8,14.3-0.9,21.8-1.5c-4.1,0-7.9,0.6-11.6,0.4
					c0,0.2-0.2,0.2-0.4,0.2c-3.6,0-7.7,0.2-10.7,0.6c-1.3-0.4-3.9,0.2-5.2-0.2c0.4-0.8,1.3-1.1,2.8-1.5c-1.5,0.2-2.8-0.2-3.9-0.2
					c-0.9,0-2.6,0.4-3.2,0.2c-0.2,0,0.2-0.2-0.2-0.2c0.4,0-0.8,0-0.8,0c-0.6,0.2-0.4,0.2-1.1,0.2s-0.8,0-1.3-0.2
					c-2.8,0-5.4,0.4-8.2,0.4c-0.4,0-0.9,0-0.9,0c-0.2,0,0-0.2-0.4-0.2c-0.2,0-0.2,0.2-0.4,0.2c-1.1,0-2.2,0-3.4,0
					c-2.6,0.2-6,0.2-8.1,0.2c-0.6,0,0.2-0.4-0.6-0.2c-3.8,0-7.9,0-12,0.2c-0.4,0,0-0.4-0.6-0.2c-0.6,0-0.4,0.4-0.9,0.4
					c-0.4,0-0.6-0.2-0.8-0.4c-4.7,0-9.6,0.4-14.2,0.8c-4.5,0.4-9,0.4-13.3,0.8c-3.4,0.2-6.6,0.6-9.6,0.6c-3.9,0.4-7.5,0.6-11.2,0.8
					c-2.8,0.2-5.8,0.2-8.1,0.4c-0.4,0-0.9,0.2-1.3,0.2c-0.8,0-1.3-0.2-2.1-0.2c-1.9,0-3.8,0.4-5.6,0.6c-2.1,0-4.1,0.2-6.2,0.2
					c-1.1,0-2.2,0.4-3.4,0.4c-0.8,0-1.5-0.2-2.4,0c-2.2,0.2-4.5,0.6-6.6,0.6c-2.8,0-5.6-0.2-8.6,0.4c-3.2,0-6.9,0.2-9.9,0.4
					c-2.4-0.4-5.1,0.2-7.7,0.2c-0.4,0-0.6-0.2-0.8-0.2c-4.1-0.2-8.8,0.8-12.2,0.4c-1.3,0.4-2.4,0-3.6,0c-1.3,0-2.4,0.2-3.8,0.4
					c-0.4,0-0.8-0.2-1.1-0.2c-1.3,0-2.4,0.2-3.8,0.4c-2.1,0.2-4.3-0.4-6.6,0.2c-1.9-0.2-4.5-0.4-6.6,0c-3.6-0.4-6.9,0.4-10.7,0.4
					c-1.1,0-2.2-0.4-3.6,0c-1.3-0.4-2.8,0-4.3,0c-1.5,0-3.2-0.2-4.7-0.2c-2.2,0-5.1,0.4-6.7-0.4c-0.8-1.5-2.2,0.8-4.1,0.6
					c-0.9-0.2-0.9-0.8-1.3-1.3c-0.9-0.2-1.7,0-2.4,0.2C118.4,191.4,117.7,190.9,116.4,190.9z M346.8,198
					C346.8,198.2,347,198.2,346.8,198C346.8,198.6,346.1,198,346.8,198z M347.2,197.8c1.1,0,2.6-0.4,3.4-0.2c0.2,0-0.2-0.4,0.2-0.6
					c0.6,0.2,0.9,0.2,1.9,0.2c0,0.6-1.5,0.4-1.5,0.8c-0.6,0-0.9,0-1.1,0.2c-1.3-0.2-1.5,0.2-2.4,0
					C347.6,198.2,347,198.2,347.2,197.8z"/>
			</g>
		</g>
	</g>
	<g>
		<path display="inline" d="M82.4,196.3c0,0,2.4,15,16.3,16.9s93.4-5.1,108.9-5.6c15.6-0.6,104.6-1.9,137.4-5.4
			c13.5-1.5,31.1-9,31.1-9s-103.7,0-126.4-0.6C169.2,190.7,99.1,191.4,82.4,196.3z"/>
	</g>
	<path fill="none" stroke="#000000" stroke-width="0.3" stroke-miterlimit="10" d="M248.8,188.1"/>
	<g>
		<path display="inline" d="M87.7,269.4c0,0,2.4,15,16.3,16.9s93.4-5.1,108.9-5.6c15.6-0.6,104.6-1.9,137.4-5.4
			c13.5-1.5,31.1-9,31.1-9s-103.7,0-126.4-0.6C174.5,263.8,104.2,264.6,87.7,269.4z"/>
	</g>
	<g>
		<path display="inline" d="M99.3,231.9c0,0,2.4,15,16.3,16.9s93.4-5.1,108.9-5.6c15.6-0.6,67.1-1.9,99.9-5.4
			c13.5-1.5,31.1-9,31.1-9s-66.2,0-88.9-0.6C186.1,226.3,116,227.1,99.3,231.9z"/>
	</g>
	<polygon points="187.8,180.9 198.7,273 207.9,271.9 197,179.2 186.3,177.8 	"/>
	<g>
		<path display="inline" d="M175.4,92.6c0,0-5.6,6-5.8,7.3c-0.2,1.3-0.9,4.7,0.4,6c1.3,1.5,12,16.3,12.6,17.2
			c0.6,0.9-18.9,18.2-18.9,18.2s-1.1,1.1-0.8,1.9c0.4,0.8,3.6,4.9,3.6,4.9s1.1,0.9,2.6,0s21.6-13.7,21.6-13.7s0.6-0.6,0.9,0
			c0.4,0.6,12.8,13.1,12.8,13.1s3.6,0,5.1-0.8c0.4-1.5-0.6-4.9-0.6-4.9l-11.6-15.2c0,0,16.3-12.8,18.6-16.3c2.3-3.6,3.4-5.1,3.4-8.8
			c-0.4-1.9,0-4.1-3-3.2S191,116.6,191,116.6L175.4,92.6z"/>
	</g>
	<path fill="none" stroke="#FFFFFF" stroke-miterlimit="10" d="M53.9,128.1c-0.2,7.3,10.7,23.1,39.4,34.7c24,9.6,56.1,12,91.1,13.9
		c42.6,0,93.8-4.7,114.6-9.4c21.9-4.9,44.8-18.8,47.6-26.6c0.2-6.4-4.1-12.9-24.2-34.5c-10.3-9.2-19.5-16.1-65.2-29.4
		c-53.2-15.6-81.2-9.6-109.9-6.4C125.6,72.6,55.1,87.8,53.9,128.1z"/>
	<path fill="none" stroke="#FFFFFF" stroke-miterlimit="10" d="M93.3,162.8"/>
	<g display="inline">
		<g>
			<g>
				<g>
					<g opacity="0.85">
						<g>
							<path fill="#414141" d="M128.9,64.5c-2.3,0.6-4.3,1.1-6.6,1.9c1.1-0.4,2.1-0.9,3.2-1.5C126.9,64.3,127.8,64.5,128.9,64.5z"/>
							<path fill="#414141" d="M116.4,68.2c-0.4,0.2-0.8,0.2-1.1,0.4c-0.4,0-0.8,0.2-0.9,0.2C114.9,68.4,115.6,68.4,116.4,68.2z"/>
							<path fill="#414141" d="M105.1,71.6c1.9-0.9,3.8-1.5,5.6-2.1C109.2,70.3,107.4,70.9,105.1,71.6z"/>
							<path fill="#414141" d="M113.8,68.1c-0.6,0.6-0.9,0.9,0.4,0.8l0,0c-1.1,0.2-2.2,0.6-3.4,0.9C111.9,69.2,113,68.6,113.8,68.1z
								"/>
							<path fill="#414141" d="M113.8,68.1c0.6-0.4,1.5-0.9,1.9-1.3C115.2,67.1,114.5,67.7,113.8,68.1z"/>
							<path fill="#414141" d="M108.9,63c-1.3,0.2-0.4,1.9-2.8,2.3c-5.4,1.5-10.3,2.6-15.2,5.1c-1.1,0.4-2.4,1.5-3.8,2.4
								c-1.1,1.1-2.4,2.2-3.6,2.6c-2.6,1.1-7.5,3.2-10.5,4.7c-1.5,0.8-2.8,1.1-3,1.1c-0.4,0,0.2-0.6,2.1-1.9
								c5.6-3.8,10.5-6.4,15.2-8.6c4.9-2.2,9.6-4.3,15-6.2c9.2-2.8,18.2-4.7,27.8-6.2c2.6-0.6,5.1-1.1,7.5-1.7
								c-3.2,0.9-6.4,1.9-9.9,3C122.8,61.5,116.6,60.9,108.9,63z"/>
							<path fill="#414141" d="M178.4,56.8c-0.6,0-1.5-0.2-2.2-0.4c-0.8,0-1.3-0.2-1.3-0.2c-5.3,1.5-10.9,1.5-16.5,1.5
								c0.8-0.4,1.5-0.8,2.4-1.1c3.2-0.2,3.6,0.4,0.8,0.9c3.2-0.7,6.4-1.5,9.4-1.7c1.5-0.2,3.2-0.4,4.7-0.4s3.2,0,4.7,0
								C180.1,56.1,180.3,56.6,178.4,56.8z"/>
							<path fill="#414141" d="M184.2,55.5c-1.3,0-2.4,0-3.8,0c0,0,0-0.2,0.2-0.2C182,55.5,183.1,55.5,184.2,55.5L184.2,55.5z"/>
							<path fill="#414141" d="M81.9,81.4c-6.8,4.1-12.9,8.8-18,14.4c-5.1,5.4-9.2,11.8-11.1,18.8c-0.6,0.9-1.3,1.7-1.3,3.2
								c0,1.1,0.4,2.2,0.4,3.4c0,0.9,0.2,2.1,0.2,3c0.2,0.9,0.4,2.1,0.6,3c0,0.8,0.4,1.5,0.4,2.1l0,0c0.2,1.1-0.2,0.9-0.8,0.4
								c-0.4-0.8-0.9-1.3-1.3-2.1c0.2,0.4,0.8,1.3,1.3,2.1c0.6,0.9,0.9,1.9,1.7,3c0.4,0.9,0.8,1.9,1.1,2.6c0.6,0.9,1.1,1.7,1.7,2.6
								c-0.6-1.1-1.1-1.9-1.5-2.8c-0.4-0.9-0.8-1.7-1.3-2.4c-0.6-1.1-0.8-2.2-0.9-3.4c0-0.4-0.2-0.8-0.2-0.9
								c1.3,4.5,3.8,8.6,6.8,12.2c0.4,0.4,0.6,0.9,0.9,1.3c0.4,0.4,0.6,0.8,0.9,1.1c0.6,0.6,1.1,1.3,1.7,1.9
								c0.6,0.6,1.1,1.1,1.9,1.7c0.6,0.6,1.1,0.9,1.7,1.3c0.6,0.4,1.1,0.6,1.7,0.8c0.8,0.6,1.3,0.9,2.1,1.5c-0.2,0-0.4-0.2-0.6-0.2
								c0.4,0.2,0.6,0.4,0.9,0.4c3,1.9,6.2,3.6,9.6,5.1c1.9,1.3,3.9,2.6,6.2,3.8c0,0,0.4,0,0.9,0s1.1,0,1.7,0
								c0.8,0.8,2.1,1.5,3.6,2.2c-2.1-0.2-3.9-0.2-5.6-0.4c-2.6-0.2-4.5-3.8-7.7-3.6c3.4-0.2,5.1,3.4,7.7,3.6
								c1.7,0.2,3.6,0.4,5.6,0.4c3.2,1.5,7.7,2.4,11.2,2.4c-4.1-1.9-7.9-2.2-11.2-2.4c-1.5-0.8-2.8-1.5-3.6-2.2c-0.4,0-1.1,0-1.7,0
								c-0.6,0-0.9,0-0.9,0c-2.2-1.1-4.3-2.4-6.2-3.8c6.4,3,13.3,5.3,20.4,6.9c11.4,3,22.9,4.9,34.3,6.2c11.4,1.3,22.9,2.2,34.5,2.6
								c5.8,0.2,11.6,0.4,17.4,0.6c5.8,0,11.6-0.2,17.4-0.2c11.8-0.4,23.8-0.9,36-2.1c13.3-1.3,26.2-3,38.8-5.4
								c12.6-2.6,24.8-5.8,35.6-10.7c5.4-2.4,10.5-5.3,14.8-8.4c2.1-1.7,3.9-3.4,5.6-5.3c1.5-1.9,2.6-3.8,3.4-5.8l0.6-1.5
								c0-0.6,0.2-0.9,0.2-1.5c0-0.9,0.2-2.1,0.2-3.2c-0.2-2.2-0.6-4.5-1.5-6.8c-1.5-4.7-4.5-9.2-7.9-13.3
								c-6.9-8.3-16.1-15.2-26.4-20.2c-10.3-5.2-21.6-9-33.6-11.2c-9.2-1.9-22.1-4.7-35.4-6.4c-13.3-1.7-26.6-2.8-35.8-3
								c-12.2-1.7-15.4-4.1-15.2-6.6s3.8-4.5,4.3-4.7c3.9-1.7,7.5-2.6,11.4-3.2s7.9-0.8,12.4-0.6c9,0.2,20.1,0.8,36.4,1.7
								c-5.6-0.4-7.3,0-6.6,0.6c0.8,0.6,3.9,1.3,8.6,2.2c4.7,0.9,10.5,2.1,16.7,3.2c3,0.6,6.2,1.1,9.2,1.7c1.5,0.2,3,0.6,4.5,0.8
								c1.5,0.2,2.8,0.4,4.1,0.6c15.6,1.7,33.8,9.6,49.3,23.6c7.7,7.1,14.8,15.8,19.1,26.8c2.1,5.4,3.6,11.6,3.2,18.4
								c0,0.8-0.2,1.7-0.2,2.4l-0.6,2.6c-0.4,1.7-0.9,3.2-1.5,4.7c-1.3,3-2.8,5.8-4.5,8.4c-3.6,5.1-8.1,8.8-12.9,12
								c-4.9,3.2-10.1,5.6-15.6,7.9c-14.1,6.2-28.3,9.4-42.4,11.8c-14.1,2.2-28.1,3.6-42,4.3c-14.1,0.8-28.1,0.9-42.4,0.9
								c-1.9,0-3.6,0-5.4,0s-3.8-0.2-5.6-0.2c-3.6-0.2-7.3-0.4-10.9-0.6c-7.3-0.4-14.8-0.8-22.3-1.5c-16.1-1.5-30-5.3-43.1-9.2
								c-9.8-2.4-20.2-5.1-28.1-8.4c-6-2.6-11.6-6-16.5-9.9c-4.9-3.9-9-8.4-12-13.7c3.6,5.6,7.7,9.7,12.2,13.3
								c4.5,3.6,9.4,6.7,15.6,9.6c4.1,1.9,2.8,0.8,0-1.3s-7.3-5.1-9.6-6.9c-0.9-0.9-2.6-1.3-4.1-2.1c-1.7-0.8-3.2-1.3-4.1-2.4
								c-4.5-3.8-7.7-8.4-10.3-14.4c-0.8-2.6-2.3-1.7-2.8-3c-0.4-1.1-0.6-2.1-0.9-3.2c-0.2-1.1-0.6-2.1-0.6-3s-0.2-2.1-0.2-3
								c0-0.4,0-0.9,0-1.3c0-0.6,0-0.9,0.2-1.5c0.4-3.8,1.1-6.8,1.7-9.4c0.8-4.1,2.2-7.7,3.8-10.9c0.6-0.9,1.1-1.9,1.7-3
								c0.6-0.9,1.3-1.9,2.1-2.8c0.9-1.1,2.1-2.1,3.2-3.2c-0.4,1.3-0.2,2.1,0.2,2.8c1.3-1.7,3-4.1,4.5-5.6c-1.5,1.5-3.2,3.9-4.5,5.6
								c-0.2-0.8-0.6-1.5-0.2-2.8c7.9-7.3,18.2-13.5,28.3-18v0.2c-5.6,2.8-10.9,6.4-15.4,11.4c2.1-2.1,1.5-2.2-1.3-0.4
								c-0.6,0.8-0.9,1.5-1.3,2.2c4.7-3.4,9.4-6,13.3-9.9c0,0,2.3-0.9,3.4-1.3c1.5-1.1,1.1-1.5,1.1-2.1c1.1-0.6,2.2-1.1,3.4-1.7
								c-0.9,1.1-3.2,2.6-5.1,4.3c-0.9,0.8-1.9,1.5-2.4,2.1C82.2,81,81.9,81.4,81.9,81.4z"/>
							<path fill="#414141" d="M54.5,132.8c-0.4-0.8-0.6-1.7-0.9-2.8c0.6,1.9,1.7,3.6,2.4,5.4c1.1,1.7,2.1,3.4,3.4,4.9
								c-0.6-0.2-0.9-0.8-1.5-1.1c-0.6-0.6-0.9-1.1-1.3-1.7c-0.4-0.8-0.9-1.3-1.3-2.1C55.1,134.2,54.7,133.5,54.5,132.8z"/>
						</g>
					</g>
				</g>
			</g>
		</g>
	</g>
	<g display="inline">
		<g>
			<g>
				<g>
					<g opacity="0.85">
						<g>
							<path fill="#414141" d="M302.4,200.1c-0.7,0-1.7,0-2.4,0c0.4,0.2,0.8,0.4,1.3,0.6C301.8,201,302,200.4,302.4,200.1z"/>
							<path fill="#414141" d="M297.9,200.1c-0.2,0-0.4,0-0.4,0c-0.2,0-0.2,0.2-0.4,0.2C297.3,200.1,297.5,200.1,297.9,200.1z"/>
							<path fill="#414141" d="M293.6,200.6c0.7,0,1.5,0,2.1-0.2C295.1,200.4,294.5,200.4,293.6,200.6z"/>
							<path fill="#414141" d="M296.9,201c-0.2-0.2-0.4-0.6,0-0.8l0,0c-0.4,0.2-0.8,0.2-1.3,0.2C296.2,200.6,296.6,200.8,296.9,201z
								"/>
							<path fill="#414141" d="M296.9,201c0.2,0.2,0.7,0.6,0.7,0.6C297.5,201.4,297.3,201.2,296.9,201z"/>
							<path fill="#414141" d="M296,207.4c-0.4,0.2-0.4-1.5-1.1-1.1c-1.9,0.6-3.6,1.3-5.4,1.5c-0.8,0.4-2.2-1.5-3-1.1
								c-2.1,0.6-6.9,3-3.9,2.8c4.5-0.4,7.3-0.9,11.4-1.3c3.2-0.8,6.4-1.7,9.8-2.4c0.9-0.2,1.9,0,2.6,0.2c-1.1-0.2-2.2-0.6-3.6-0.8
								C300.7,204.6,298.6,206.8,296,207.4z"/>
							<path fill="#414141" d="M320.4,200.8c-0.4,0.2-1.3,0.6-1.3,0.6c-1.9-1.3-3.9-0.8-5.8-0.2c0.4,0.4,0.6,0.6,0.9,0.9
								c1.1-0.2,1.3-0.6,0.2-0.9c2.2,1.1,4.5,1.1,6.8,0.9C320.9,201.6,320.9,201,320.4,200.8z"/>
							<path fill="#414141" d="M322.4,201.9c-0.4,0-0.9,0.2-1.3,0.2v0.2C321.5,202.1,322.1,202.1,322.4,201.9L322.4,201.9z"/>
							<path fill="#414141" d="M284.8,202.5c-5.6,0.2-10.9,0.2-16.1,0.2c-0.4,0.4-0.7,0.8-1.1,0.6c-0.4-0.4-0.8-0.6-1.3-0.6
								c-0.7,0-1.5,0-2.2,0c-0.2,0-0.6,0.2-0.7,0.2l0,0c-0.4,0.2-0.4,0.6,0,0.8s0.6,0.4,0.7,0.6c-0.2-0.2-0.6-0.4-0.7-0.6
								c-0.4-0.2-0.8-0.4-1.3-0.6c-0.8,0.2-1.3,0.2-2.1,0.2c0.7-0.2,1.5-0.2,2.1-0.2c0.4,0,0.9-0.2,1.3-0.2c0.2,0,0.2-0.2,0.4-0.2
								c-1.7,0-3.4,0-5.1-0.2c-0.4,0-0.8,0.2-1.1,0.2c-1.3,0.2-2.4,0.6-3.2-0.4c-0.4,0-0.6,0-0.9,0l0.2,0.2c-0.2,0-0.2-0.2-0.4-0.2
								c-1.3,0-2.6-0.2-3.9-0.2c-0.8,0.4-1.7,0.8-2.6,1.1c0,0-0.6-0.6-0.9-0.9c-0.4,0.4-0.8,0.8-1.5,0.9c0.8,0.6,1.3,1.1,1.9,1.5
								c0.9,0.9,1.9-1.9,3-0.2c-1.1-1.7-2.1,1.1-3,0.2c-0.6-0.4-1.3-0.9-1.9-1.5c-1.3,0.4-2.8,0-4.1-0.8c1.5-0.8,3,0,4.1,0.8
								c0.6-0.2,1.1-0.6,1.5-0.9c0.4,0.4,0.9,0.9,0.9,0.9c0.9-0.2,1.7-0.8,2.6-1.1c-2.6-0.2-5.1-0.2-7.7-0.4
								c-16.9-0.8-32.4-0.2-49.9-0.8c-9.6-0.4-18.6-0.9-27.6-1.7c-17.8-1.7-34.1,1.1-52.1-3c-6.9-1.5-19.7-0.4-26.4,0
								c-8.8,3.2-4.1,10.9-3.6,11.2c5.6,6.4,9.8,2.6,21,6.4c-7.7-2.1,5.4-4.3,12.8,0c10.5,6.6,25.3,0.8,38.1,2.2
								c3.2,0.4,6.6,0,10.5,0c19.9,1.9,38.2-1.5,59.2-1.3c5.6-0.2,10.3-1.9,15-3c3.4-0.4,7.1,0.4,9.8,0.4c4.3-0.2,8.1-0.8,11.6-1.7
								c-3.9,0.4-6.9,0.9-11.4,1.3c-3,0.2,2.1-2.4,3.9-2.8c0.7-0.4,2.2,1.5,3,1.1c1.9,0,3.6-0.9,5.4-1.5c0.7-0.4,0.7,1.3,1.1,1.1
								c2.6-0.4,4.7-2.8,6.4-2.4c1.3,0.2,2.4,0.6,3.6,0.8c0.8,0,1.5,0.2,2.2,0c0.6-0.2,0.9-0.4,1.5-0.6c-0.4-0.6-0.6-1.1-0.7-1.9
								c0.7,0,1.7,0.4,2.4,0.6c-0.8,0-1.7-0.4-2.4-0.6c0.2,0.8,0.4,1.3,0.7,1.9c3.6-1.1,7.5-2.2,11.4-3v-0.2
								c-2.2,0.2-4.3,0.2-6.8-0.9c0.9,0.4,0.9,0.9-0.2,0.9c-0.4-0.4-0.6-0.6-0.9-0.9c1.9-0.6,3.9-1.1,5.8,0.2c0,0,0.8-0.4,1.3-0.6
								c0.6,0.2,0.6,0.8,0.8,1.3c0.4,0,0.9-0.2,1.3-0.2C287.6,203.6,284.8,202.5,284.8,202.5z"/>
							<path fill="#414141" d="M261.9,202.9c0.4,0,0.8-0.2,1.1-0.2c-1.5,0-2.8-0.2-4.3-0.2C259.4,203.4,260.6,203.2,261.9,202.9z"/>
						</g>
					</g>
				</g>
			</g>
		</g>
	</g>
	<g display="inline">
		<g>
			<g>
				<g>
					<g opacity="0.85">
						<g>
							<path fill="#414141" d="M303.1,267.6c-0.8,0-1.5,0-2.2,0c0.4,0.2,0.8,0.4,1.1,0.6C302.6,268.5,302.8,267.9,303.1,267.6z"/>
							<path fill="#414141" d="M298.6,267.6c-0.2,0-0.4,0-0.4,0c-0.2,0-0.2,0.2-0.4,0.2C298.1,267.6,298.4,267.6,298.6,267.6z"/>
							<path fill="#414141" d="M294.7,268.1c0.8,0,1.5,0,2.1-0.2C296,267.9,295.4,267.9,294.7,268.1z"/>
							<path fill="#414141" d="M297.9,268.5c-0.2-0.2-0.4-0.6,0-0.8l0,0c-0.4,0.2-0.8,0.2-1.3,0.2
								C297.1,268.1,297.5,268.3,297.9,268.5z"/>
							<path fill="#414141" d="M297.9,268.5c0.2,0.2,0.6,0.6,0.7,0.6C298.4,268.9,298.1,268.7,297.9,268.5z"/>
							<path fill="#414141" d="M296.9,274.9c-0.4,0.2-0.4-1.5-1.1-1.1c-1.9,0.6-3.6,1.3-5.2,1.5c-0.7,0.4-2.1-1.5-3-1.1
								c-1.9,0.6-6.8,3-3.9,2.8c4.3-0.4,7.1-0.9,11.1-1.3c3.2-0.8,6.2-1.7,9.4-2.4c0.9-0.2,1.7,0,2.6,0.2c-1.1-0.2-2.2-0.6-3.6-0.7
								C301.4,272.1,299.6,274.3,296.9,274.9z"/>
							<path fill="#414141" d="M320.4,268.3c-0.4,0.2-1.1,0.6-1.1,0.6c-1.9-1.3-3.8-0.8-5.6-0.2c0.4,0.4,0.6,0.6,0.9,0.9
								c1.1-0.2,1.1-0.6,0.2-0.9c2.2,1.1,4.3,1.1,6.6,0.9C320.9,269.1,320.9,268.5,320.4,268.3z"/>
							<path fill="#414141" d="M322.4,269.4c-0.4,0-0.7,0.2-1.3,0.2v0.2C321.7,269.6,322.1,269.6,322.4,269.4L322.4,269.4z"/>
							<path fill="#414141" d="M286.1,270c-5.4,0.2-10.5,0.2-15.6,0.2c-0.4,0.4-0.6,0.8-1.1,0.6c-0.4-0.4-0.8-0.6-1.1-0.6
								c-0.8,0-1.5,0-2.2,0c-0.2,0-0.6,0.2-0.8,0.2l0,0c-0.4,0.2-0.2,0.6,0,0.7c0.4,0.2,0.6,0.4,0.8,0.6c-0.2-0.2-0.6-0.4-0.8-0.6
								c-0.4-0.2-0.7-0.4-1.1-0.6c-0.8,0.2-1.3,0.2-2.1,0.2c0.8-0.2,1.5-0.2,2.1-0.2c0.4,0,0.7-0.2,1.1-0.2c0.2,0,0.2-0.2,0.4-0.2
								c-1.7,0-3.4,0-4.9-0.2c-0.4,0-0.8,0.2-1.1,0.2c-1.1,0.2-2.4,0.6-3.2-0.4c-0.4,0-0.6,0-0.9,0l0.2,0.2c-0.2,0-0.2-0.2-0.4-0.2
								c-1.3,0-2.4-0.2-3.8-0.2c-0.8,0.4-1.7,0.8-2.4,1.1c0,0-0.6-0.6-0.9-0.9c-0.4,0.4-0.8,0.7-1.3,0.9c0.8,0.6,1.3,1.1,1.9,1.5
								c0.9,0.9,1.9-1.9,2.8-0.2c-0.9-1.7-2.1,1.1-2.8,0.2c-0.6-0.4-1.1-0.9-1.9-1.5c-1.1,0.4-2.6,0-3.9-0.8c1.5-0.8,2.8,0,3.9,0.8
								c0.6-0.2,1.1-0.6,1.3-0.9c0.4,0.4,0.9,0.9,0.9,0.9c0.8-0.2,1.7-0.8,2.4-1.1c-2.4-0.2-4.9-0.2-7.5-0.4
								c-16.3-0.7-31.3-0.2-48.2-0.7c-9.2-0.4-18-0.9-26.6-1.7c-17.2-1.7-32.8,1.1-50.2-3c-6.8-1.5-18.9-0.4-25.5,0
								c-8.4,3.2-3.9,10.9-3.6,11.2c5.4,6.4,9.6,2.6,20.2,6.4c-7.3-2.1,5.2-4.3,12.4,0c10.1,6.6,24.4,0.8,36.8,2.2
								c3.2,0.4,6.4,0,10.1,0c19.1,1.9,36.9-1.5,57.2-1.3c5.2-0.2,9.9-1.9,14.4-3c3.2-0.4,6.8,0.4,9.6,0.4c4.1-0.2,7.9-0.8,11.2-1.7
								c-3.9,0.4-6.8,0.9-11.1,1.3c-2.8,0.2,1.9-2.4,3.7-2.8c0.7-0.4,2.1,1.5,3,1.1c1.7,0,3.4-0.9,5.2-1.5c0.8-0.4,0.8,1.3,1.1,1.1
								c2.6-0.4,4.5-2.8,6.2-2.4c1.3,0.2,2.4,0.6,3.6,0.8c0.8,0,1.3,0.2,2.1,0c0.4-0.2,0.9-0.4,1.3-0.6c-0.4-0.6-0.6-1.1-0.7-1.9
								c0.7,0,1.7,0.4,2.4,0.6c-0.8,0-1.7-0.4-2.4-0.6c0.2,0.7,0.4,1.3,0.7,1.9c3.4-1.1,7.3-2.2,10.9-3v-0.2
								c-2.1,0.2-4.3,0.2-6.6-0.9c0.9,0.4,0.9,0.9-0.2,0.9c-0.4-0.4-0.6-0.6-0.9-0.9c1.9-0.6,3.8-1.1,5.6,0.2c0,0,0.8-0.4,1.1-0.6
								c0.6,0.2,0.6,0.8,0.7,1.3c0.4,0,0.8-0.2,1.3-0.2C288.9,271.1,286.1,270,286.1,270z"/>
							<path fill="#414141" d="M263.9,270.4c0.4,0,0.6-0.2,0.9-0.2c-1.3,0-2.8-0.2-4.1-0.2C261.7,270.9,262.8,270.8,263.9,270.4z"/>
						</g>
					</g>
				</g>
			</g>
		</g>
	</g>
	<g display="inline">
		<g>
			<g>
				<g>
					<g opacity="0.85">
						<g>
							<path fill="#414141" d="M288.7,232.7c-0.7,0-1.3,0-2.1,0c0.4,0.2,0.7,0.4,1.1,0.6C288.1,233.4,288.5,233.1,288.7,232.7z"/>
							<path fill="#414141" d="M284.8,232.5c-0.2,0-0.2,0-0.4,0c-0.2,0-0.2,0.2-0.4,0.2C284.4,232.7,284.6,232.5,284.8,232.5z"/>
							<path fill="#414141" d="M281.2,233.1c0.6,0,1.3,0,1.9-0.2C282.5,232.9,281.9,232.9,281.2,233.1z"/>
							<path fill="#414141" d="M284.2,233.4c-0.2-0.2-0.4-0.6,0-0.8l0,0c-0.4,0-0.8,0.2-1.1,0.2
								C283.4,233.1,283.8,233.2,284.2,233.4z"/>
							<path fill="#414141" d="M284.2,233.4c0.2,0.2,0.6,0.6,0.7,0.6C284.6,233.8,284.4,233.6,284.2,233.4z"/>
							<path fill="#414141" d="M283.4,239.8c-0.4,0.2-0.4-1.5-0.9-1.1c-1.7,0.6-3,1.3-4.7,1.5c-0.8,0.4-1.9-1.5-2.6-1.1
								c-1.7,0.6-5.8,3-3.4,2.8c3.8-0.4,6.2-0.9,9.6-1.3c2.8-0.8,5.4-1.7,8.2-2.4c0.8-0.2,1.5,0,2.2,0.2c-0.9-0.2-2.1-0.6-3-0.8
								C287.4,237,285.7,239.4,283.4,239.8z"/>
							<path fill="#414141" d="M303.9,233.4c-0.4,0.2-1.1,0.6-1.1,0.6c-1.7-1.3-3.2-0.8-4.9-0.2c0.2,0.4,0.6,0.6,0.7,0.9
								c0.9-0.2,1.1-0.6,0.2-0.9c1.9,1.1,3.8,1.1,5.6,0.9C304.4,234.2,304.4,233.6,303.9,233.4z"/>
							<path fill="#414141" d="M305.6,234.6c-0.4,0-0.7,0.2-1.1,0.2v0.2C305,234.8,305.4,234.6,305.6,234.6L305.6,234.6z"/>
							<path fill="#414141" d="M273.7,234.9c-4.7,0.2-9.2,0.2-13.5,0c-0.4,0.4-0.6,0.8-0.9,0.6c-0.4-0.4-0.7-0.6-1.1-0.6
								c-0.6,0-1.3,0-1.9,0c-0.2,0-0.4,0.2-0.7,0.2l0,0c-0.4,0.2-0.2,0.6,0,0.8c0.2,0.2,0.6,0.4,0.7,0.6c-0.2-0.2-0.4-0.4-0.7-0.6
								c-0.4-0.2-0.6-0.4-1.1-0.6c-0.6,0.2-1.1,0.2-1.9,0.2c0.7-0.2,1.3-0.2,1.9-0.2c0.4,0,0.7-0.2,1.1-0.2c0.2,0,0.2-0.2,0.4-0.2
								c-1.5,0-2.8-0.2-4.3-0.2c-0.4,0-0.6,0.2-0.9,0.2c-1.1,0.2-2.1,0.6-2.8-0.4c-0.2,0-0.6,0-0.8,0l0.2,0.2
								c-0.2,0-0.2-0.2-0.4-0.2c-1.1,0-2.2-0.2-3.4-0.2c-0.8,0.4-1.5,0.8-2.1,1.1c0,0-0.6-0.6-0.8-0.9c-0.4,0.4-0.8,0.8-1.1,0.9
								c0.6,0.6,1.1,1.1,1.7,1.5c0.8,0.9,1.7-1.9,2.4-0.2c-0.9-1.7-1.7,1.1-2.4,0.2c-0.6-0.4-1.1-0.9-1.7-1.5
								c-0.9,0.4-2.4,0-3.6-0.8c1.3-0.8,2.4,0,3.6,0.8c0.6-0.2,0.9-0.4,1.1-0.9c0.2,0.4,0.8,0.9,0.8,0.9c0.8-0.2,1.5-0.8,2.1-1.1
								c-2.1-0.2-4.3-0.2-6.6-0.4c-14.2-0.9-27.4-0.4-42.2-0.9c-8.1-0.4-15.8-0.9-23.3-1.9c-15-1.9-28.7,0.9-44.1-3.4
								c-5.8-1.5-16.7-0.4-22.3,0c-7.5,3.2-3.4,10.9-3,11.2c4.7,6.6,8.2,2.8,17.8,6.4c-6.6-2.1,4.7-4.3,10.9,0
								c9,6.8,21.4,0.9,32.2,2.4c2.6,0.4,5.6,0,8.8,0c16.9,2.1,32.4-1.3,50.1-1.1c4.7-0.2,8.8-1.9,12.8-2.8c2.8-0.4,6,0.4,8.2,0.4
								c3.8,0,6.8-0.7,9.9-1.7c-3.4,0.4-5.8,0.9-9.6,1.3c-2.4,0.2,1.7-2.2,3.4-2.8c0.8-0.4,1.9,1.5,2.6,1.1c1.5,0,3-0.9,4.7-1.5
								c0.8-0.4,0.8,1.3,0.9,1.1c2.2-0.4,3.9-2.8,5.4-2.2c1.1,0.2,2.1,0.6,3,0.8c0.6,0,1.3,0.2,1.9,0c0.4-0.2,0.8-0.4,1.3-0.6
								c-0.4-0.6-0.6-1.1-0.6-1.9c0.6,0,1.5,0.4,2.1,0.6c-0.6,0-1.5-0.4-2.1-0.6c0.2,0.8,0.2,1.3,0.6,1.9c3-1.1,6.4-2.1,9.6-3v-0.2
								c-1.9,0.2-3.8,0.2-5.6-0.9c0.9,0.4,0.8,0.9-0.2,0.9c-0.2-0.4-0.6-0.6-0.8-0.9c1.7-0.6,3.4-1.1,4.9,0.2c0,0,0.7-0.4,1.1-0.6
								c0.6,0.2,0.6,0.8,0.6,1.3c0.4,0,0.8-0.2,1.1-0.2C276.3,235.9,273.7,234.9,273.7,234.9z"/>
							<path fill="#414141" d="M254.6,235.1c0.2,0,0.6-0.2,0.9-0.2c-1.1,0-2.4-0.2-3.6-0.2C252.3,235.7,253.4,235.5,254.6,235.1z"/>
						</g>
					</g>
				</g>
			</g>
		</g>
	</g>
	<path fill="none" stroke="#000000" stroke-width="6" stroke-miterlimit="10" d="M97.1,72.6"/>
	<path fill="none" stroke="#000000" stroke-width="6" stroke-miterlimit="10" d="M136.4,60.2"/>
	<g display="inline">
		<g>
			<g>
				<g>
					<g opacity="0.85">
						<g>
							<path fill="#414141" d="M141.5,51.4l-0.8-0.8c0,0.2,0,0.6,0,0.9C140.8,51.8,141.1,51.6,141.5,51.4z"/>
							<path fill="#414141" d="M140,49.9L140,49.9l-0.4-0.2C139.8,49.7,139.8,49.9,140,49.9z"/>
							<path fill="#414141" d="M138.1,48.9c0.2,0.4,0.6,0.6,0.8,0.6C138.9,49.3,138.7,48.9,138.1,48.9z"/>
							<path fill="#414141" d="M139.1,50.2c0-0.2,0.2-0.6,0.6-0.6l0,0c-0.2,0-0.4-0.2-0.6-0.2C139.1,49.7,139.1,50.1,139.1,50.2z"/>
							<path fill="#414141" d="M139.1,50.2c0,0.2-0.2,0.6-0.2,0.7C139.1,50.8,139.1,50.4,139.1,50.2z"/>
							<path fill="#414141" d="M134.6,54.8c-0.2,0,0.9-1.3,0.4-1.3c-0.9-0.2-2.1-0.2-2.8-0.8c-0.6,0,0.2-1.9-0.2-1.9
								c-0.9-0.2-4.3,0-3.2,0.9c1.7,1.1,3,1.7,4.7,2.6c1.7,0.4,3.4,0.8,4.9,1.3c0.4,0.2,0.6,0.6,0.8,0.9c-0.2-0.6-0.4-1.1-0.8-1.7
								C137.9,54.2,135.7,55.3,134.6,54.8z"/>
							<path fill="#414141" d="M147.1,57.8c-0.2,0-0.8,0-0.8,0c0.2-1.5-0.8-1.7-1.9-2.1l-0.2,0.9c0.4,0.2,0.8,0,0.8-0.7
								c0,1.5,0.8,2.2,1.7,2.8C146.8,58.5,147.1,58.1,147.1,57.8z"/>
							<path fill="#414141" d="M146.9,59.1c-0.2,0-0.4-0.2-0.6-0.4v0.2C146.6,59.1,146.8,59.1,146.9,59.1L146.9,59.1z"/>
							<path fill="#414141" d="M134,47.4c-2.1-1.7-3.8-3.4-5.4-5.1c-0.4,0.2-0.8,0.4-0.8,0c0-0.4,0-0.6,0-0.9l-0.9-0.6
								c-0.2,0-0.2,0-0.4-0.2l0,0c-0.4,0-0.4,0.2-0.6,0.6c0,0.2,0,0.6-0.2,0.8c0-0.2,0-0.4,0.2-0.8c0-0.2,0-0.6,0-0.8
								c-0.4-0.2-0.6-0.4-0.8-0.6c0.4,0,0.8,0.4,0.8,0.6c0.2,0,0.4,0.2,0.6,0.2h0.2L125,39c-0.2,0-0.4-0.2-0.6-0.2
								c-0.6-0.2-1.1-0.4-0.9-1.3l-0.4-0.4v0.2v-0.2l-1.1-1.3c-0.6,0-1.1,0-1.5,0c0,0,0.2-0.6,0.2-0.9c-0.4,0.2-0.8,0.4-1.1,0.2
								c-0.2,0.6-0.2,1.3-0.4,1.7c-0.4,0.9,1.9-0.8,1.1,0.8c0.8-1.7-1.3,0.2-1.1-0.8c0-0.4,0.2-1.1,0.4-1.7
								c-0.8-0.2-0.9-0.9-1.1-2.1c1.1-0.2,1.3,1.1,1.1,2.1c0.4,0,0.8,0,1.1-0.2c0,0.4-0.2,0.9-0.2,0.9c0.6,0,1.1,0,1.5,0
								c-0.8-0.9-1.5-1.7-2.6-2.8c-2.8-3.2-6-6.2-9.4-9.4s-6.8-6.2-10.5-9.9c-0.2,0.9-0.4,1.9-0.6,2.8c-0.9,5.1-2.3,9.9-3.9,15.6
								c-0.8,2.8-1.3,6-1.9,9.2c-0.4,2.1-0.6,4.1-0.9,6.4c-0.6,3.9-1.5,7.9-4.3,11.8c-1.9,3-1.7,9-1.9,12.2c2.6,4.5,10.5,3,10.9,3
								c6.8-1.9,3.4-4.1,7.7-9c-2.6,3.4-3.9-3,0.9-5.8c3.8-2.1,4.3-4.9,4.3-8.1c0-1.5-0.2-3.2-0.2-4.7c0-0.7,0-1.5,0.2-2.2
								c0-0.6,0.2-0.4,0.2-0.6h0.2c0.4,0,0.2-0.2,0.4-0.4c0.6,0.2,0.9,0.6,0.9,0.6s-0.2-0.4-0.4-0.9c-0.2-0.6,0-0.9,0.4-0.4
								c0,0,0.2-0.4,0.6-0.9c0.2-0.4,0.8-0.9,1.1-1.1c0.2,0,0.4,0.4,0.4,0.6s0,0.2,0.2,0.2c0.2,0.2,0.2,0.4,0.4,0.4
								c0.2,0.4,0.4,0.6,0.8,0.8c1.5,1.3,3.2,2.1,5.1,2.4c-1.7-0.9-3-1.5-4.7-2.6c-1.1-0.8,2.2-1.1,3.2-0.9c0.6,0-0.2,1.9,0.2,1.9
								c0.6,0.6,1.7,0.4,2.8,0.8c0.6,0-0.6,1.3-0.4,1.3c1.1,0.6,3.4-0.6,3.8,0.4c0.4,0.6,0.6,1.1,0.8,1.7c0.2,0.4,0.4,0.6,0.8,0.8
								c0.2,0,0.6,0,0.8,0.2c0.2-0.6,0.6-1.1,0.9-1.7c0.2,0.4,0.2,0.9,0.4,1.1c-0.2-0.4-0.2-0.9-0.4-1.1c-0.4,0.6-0.8,1.1-0.9,1.7
								c1.9,0.2,3.9,0.8,5.8,1.3v-0.2c-0.9-0.6-1.5-1.3-1.7-2.8c0,0.6-0.2,0.9-0.8,0.8l0.4-0.9c0.9,0.2,2.1,0.4,1.9,2.1
								c0,0,0.6,0,0.8,0c0,0.4-0.4,0.8-0.6,1.1c0.2,0.2,0.4,0.2,0.6,0.4C134.2,49.3,134,47.4,134,47.4z"/>
							<path fill="#414141" d="M125.9,40.5c0.2,0,0.4,0.2,0.6,0.2l-1.3-1.5C124.8,40.1,125.4,40.3,125.9,40.5z"/>
						</g>
					</g>
				</g>
			</g>
		</g>
	</g>
	<g display="inline">
		<g>
			<g>
				<g>
					<g opacity="0.85">
						<g>
							<path fill="#414141" d="M194,289.3c0-0.4,0-0.7,0-1.3c-0.2,0.2-0.4,0.4-0.6,0.6C193.2,289.1,193.6,289.1,194,289.3z"/>
							<path fill="#414141" d="M194.2,287.1v-0.2l-0.2-0.2C194,286.7,194.2,286.9,194.2,287.1z"/>
							<path fill="#414141" d="M193.6,284.8c0,0.4,0,0.7,0.2,1.1C193.8,285.6,193.8,285.2,193.6,284.8z"/>
							<path fill="#414141" d="M193.2,286.5c0.2-0.2,0.6-0.2,0.8,0l0,0c0-0.2-0.2-0.4-0.2-0.6C193.6,286.1,193.4,286.3,193.2,286.5z
								"/>
							<path fill="#414141" d="M193.2,286.5c-0.2,0.2-0.6,0.4-0.6,0.4C192.9,286.9,193.1,286.7,193.2,286.5z"/>
							<path fill="#414141" d="M186.9,286.1c-0.2-0.2,1.7-0.2,1.1-0.6c-0.6-0.9-1.3-1.9-1.3-2.8c-0.4-0.4,1.5-1.1,1.1-1.5
								c-0.6-0.9-3-3.6-2.8-2.1c0.4,2.2,0.8,3.8,1.1,5.8c0.8,1.7,1.7,3.2,2.2,5.1c0.2,0.6,0,0.9-0.2,1.3c0.2-0.6,0.6-1.1,0.8-1.9
								C189.7,288.6,187.2,287.4,186.9,286.1z"/>
							<path fill="#414141" d="M193.1,298.7c-0.2-0.2-0.6-0.6-0.6-0.6c1.3-0.9,0.8-2.1,0.2-3c-0.4,0.2-0.6,0.4-0.9,0.6
								c0.2,0.6,0.6,0.6,0.9,0.2c-1.1,1.1-1.1,2.2-0.9,3.6C192.3,299.1,192.9,299.1,193.1,298.7z"/>
							<path fill="#414141" d="M191.9,299.8c0-0.2-0.2-0.4-0.2-0.8h-0.2C191.8,299.2,191.9,299.6,191.9,299.8L191.9,299.8z"/>
							<path fill="#414141" d="M191.9,280.1c-0.2-2.8-0.2-5.6,0-8.2c-0.4-0.2-0.8-0.4-0.6-0.6c0.4-0.2,0.6-0.4,0.6-0.6
								c0-0.4,0-0.8,0-1.1c0-0.2-0.2-0.2-0.2-0.4l0,0c-0.2-0.2-0.6-0.2-0.8,0c-0.2,0.2-0.4,0.4-0.6,0.4c0.2,0,0.4-0.4,0.6-0.4
								c0.2-0.2,0.4-0.4,0.6-0.6c-0.2-0.4-0.2-0.7-0.2-1.1c0.2,0.4,0.2,0.7,0.2,1.1c0,0.2,0.2,0.4,0.2,0.6l0.2,0.2
								c0-0.9,0.2-1.7,0.2-2.6c0-0.2-0.2-0.4-0.2-0.6c-0.2-0.6-0.6-1.3,0.4-1.7c0-0.2,0-0.4,0-0.6c0,0-0.2,0-0.2,0.2l0.2-0.2
								c0-0.7,0.2-1.3,0.2-2.1c-0.4-0.4-0.8-0.9-1.1-1.3c0,0,0.6-0.4,0.9-0.6c-0.4-0.2-0.8-0.4-0.9-0.8c-0.6,0.4-1.1,0.8-1.5,1.1
								c-0.9,0.6,1.9,0.9,0.2,1.5c1.7-0.6-1.1-1.1-0.2-1.5c0.4-0.4,0.9-0.8,1.5-1.1c-0.4-0.6,0-1.5,0.8-2.1c0.8,0.7,0,1.5-0.8,2.1
								c0.2,0.4,0.4,0.6,0.9,0.8c-0.4,0.2-0.9,0.6-0.9,0.6c0.2,0.4,0.8,0.9,1.1,1.3c0.2-1.3,0.2-2.6,0.4-3.9
								c0.9-8.8,0.6-16.9,1.3-25.9c0.4-4.9,1.1-9.6,2.1-14.2c1.9-9.2-0.8-17.6,3.8-27c1.5-3.6,0.6-10.3,0.2-13.7
								c-3-4.5-10.7-2.1-11.2-1.7c-6.6,3-2.8,5.1-6.6,11.1c2.1-3.9,4.3,2.8-0.2,6.6c-6.8,5.4-1.1,13.1-2.6,19.7
								c-0.4,1.7,0,3.4-0.2,5.4c-2.1,10.3,0.9,19.9,0.8,30.6c0,2.8,1.9,5.4,2.8,7.7c0.4,1.7-0.6,3.8-0.4,5.1c0,2.2,0.8,4.1,1.5,6
								c-0.4-2.1-0.9-3.6-1.1-5.8c-0.2-1.5,2.2,0.9,2.8,2.1c0.4,0.4-1.5,1.1-1.1,1.5c0,0.9,0.9,1.9,1.3,2.8c0.4,0.4-1.3,0.4-1.1,0.6
								c0.4,1.3,2.8,2.4,2.2,3.4c-0.2,0.8-0.6,1.3-0.8,1.9c0,0.4-0.2,0.8,0,1.1c0.2,0.2,0.4,0.6,0.4,0.7c0.6-0.2,1.1-0.4,1.9-0.4
								c0,0.4-0.6,0.9-0.6,1.3c0-0.4,0.6-0.9,0.6-1.3c-0.8,0-1.3,0.2-1.9,0.4c1.1,1.9,2.1,3.9,3,5.8h0.2c-0.2-1.1,0-2.2,0.9-3.6
								c-0.4,0.6-0.9,0.6-0.9-0.2c0.4-0.2,0.6-0.4,0.9-0.6c0.6,0.9,1.1,2.1-0.2,3c0,0,0.4,0.4,0.6,0.6c-0.2,0.4-0.8,0.4-1.3,0.4
								c0,0.2,0,0.4,0.2,0.8C190.8,281.8,191.9,280.1,191.9,280.1z"/>
							<path fill="#414141" d="M191.8,268.3c0,0.2,0.2,0.4,0.2,0.6c0-0.8,0.2-1.5,0.2-2.2C191.2,267.2,191.4,267.8,191.8,268.3z"/>
						</g>
					</g>
				</g>
			</g>
		</g>
	</g>
	<g display="inline">
		<g>
			<g>
				<g>
					<g opacity="0.85">
						<g>
							<path fill="#414141" d="M224,145.7c-0.2-0.2-0.4-0.4-0.6-0.6c0,0.2,0,0.4,0,0.8C223.4,146.2,223.6,146.1,224,145.7z"/>
							<path fill="#414141" d="M222.9,144.8C222.9,144.6,222.9,144.6,222.9,144.8c-0.2,0-0.2,0-0.4,0
								C222.7,144.6,222.7,144.6,222.9,144.8z"/>
							<path fill="#414141" d="M221.4,144.2c0.2,0.2,0.4,0.4,0.6,0.4C221.9,144.4,221.8,144.2,221.4,144.2z"/>
							<path fill="#414141" d="M222.1,145.1c0-0.2,0.2-0.6,0.4-0.6l0,0c-0.2,0-0.4,0-0.6,0C222.1,144.8,222.1,144.9,222.1,145.1z"/>
							<path fill="#414141" d="M222.1,145.1c0,0.2-0.2,0.6-0.2,0.8C221.9,145.7,222.1,145.5,222.1,145.1z"/>
							<path fill="#414141" d="M218,150c-0.2,0,0.9-1.3,0.4-1.1c-0.8,0-1.9,0.4-2.2,0c-0.6,0.2,0.4-1.7-0.2-1.5
								c-0.8,0-3.8,0.9-2.8,1.5c1.3,0.8,2.4,0.9,3.8,1.5c1.3,0.2,2.6,0,3.9,0.2c0.4,0.2,0.4,0.4,0.6,0.8c-0.2-0.4-0.4-0.9-0.6-1.3
								C220.8,148.9,218.9,150.4,218,150z"/>
							<path fill="#414141" d="M228.1,150.4c-0.2,0-0.8,0.2-0.8,0.2c0.2-1.5-0.6-1.5-1.5-1.5c-0.2,0.4-0.2,0.6-0.4,0.9
								c0.4,0.2,0.8-0.2,0.8-0.8c0,1.3,0.4,1.9,1.1,2.2C227.9,151.1,228.3,150.6,228.1,150.4z"/>
							<path fill="#414141" d="M228.1,151.7c-0.2,0-0.4,0-0.4-0.2c0,0,0,0,0,0.2C227.8,151.7,227.9,151.7,228.1,151.7L228.1,151.7z"
								/>
							<path fill="#414141" d="M218,143.6c-1.5-1.1-3-2.2-4.3-3.4c-0.4,0.2-0.6,0.4-0.8,0.2c0-0.4,0-0.6,0-0.8
								c-0.2-0.2-0.4-0.4-0.6-0.6c-0.2,0-0.2,0-0.4,0l0,0c-0.2,0-0.4,0.4-0.4,0.6c0,0.2-0.2,0.4-0.2,0.8c0-0.2,0-0.4,0.2-0.8
								c0-0.2,0-0.6,0-0.6c-0.2,0-0.6-0.2-0.6-0.4c0.4,0,0.6,0.2,0.6,0.4c0.2,0,0.4,0,0.6,0h0.2c-0.4-0.4-0.8-0.8-1.3-1.3
								c-0.2,0-0.2,0-0.4-0.2c-0.6,0-0.9-0.2-0.6-0.9l-0.2-0.2v0.2v-0.2c-0.4-0.4-0.6-0.6-0.9-0.9c-0.4,0.2-0.9,0.2-1.3,0.4
								c0,0,0.2-0.6,0.4-0.9c-0.4,0.4-0.8,0.4-0.9,0.4c-0.2,0.6-0.4,1.1-0.4,1.7c-0.4,0.9,1.7-1.1,0.9,0.6c0.8-1.5-1.1,0.4-0.9-0.6
								c0-0.4,0.2-0.9,0.4-1.7c-0.6,0-0.8-0.6-0.6-1.5c0.9-0.2,0.8,0.6,0.6,1.5c0.2,0,0.6-0.2,0.9-0.4c-0.2,0.4-0.4,0.9-0.4,0.9
								c0.4,0,0.9-0.2,1.3-0.4c-0.6-0.6-1.1-1.3-1.9-1.9c-3.9-4.3-8.2-7.5-12.6-11.6c-2.2-2.4-4.3-4.9-6-7.5
								c-3.6-5.2-9.4-6.8-11.6-14.1c-0.9-2.6-4.9-4.7-6.8-5.8c-4.3,0.6-7.7,7.7-7.7,8.1c-2.4,6.4,0.9,4.3,1.5,9.8
								c-0.8-3.4,4.1-2.2,3.4,2.8c-1.3,7.7,6,6.2,8.4,10.3c0.6,0.9,1.7,1.5,2.6,2.4c3.9,6,10.7,7.5,16.1,12.2
								c1.5,1.1,3.8,0.8,5.6,0.9c1.1,0.4,1.5,1.9,2.2,2.4c1.1,0.9,2.6,1.1,4.1,1.3c-1.3-0.6-2.4-0.8-3.8-1.5
								c-0.9-0.6,1.9-1.5,2.8-1.5c0.6-0.2-0.4,1.7,0.2,1.5c0.6,0.4,1.5,0,2.2,0c0.6-0.2-0.6,1.3-0.4,1.1c0.9,0.2,3-1.1,3.2-0.4
								c0.2,0.6,0.4,0.9,0.6,1.3c0.2,0.2,0.4,0.4,0.6,0.6c0.2,0,0.4,0,0.8,0c0.2-0.6,0.6-1.1,0.9-1.7c0.2,0.2,0.2,0.8,0.4,0.9
								c-0.2-0.2-0.2-0.8-0.4-0.9c-0.4,0.6-0.8,1.1-0.9,1.7c1.7-0.2,3.4,0,4.9,0.2c0,0,0,0,0-0.2c-0.8-0.4-1.1-0.9-1.1-2.2
								c0,0.6-0.4,0.9-0.8,0.8c0.2-0.4,0.2-0.6,0.4-0.9c0.8,0,1.7,0,1.5,1.5c0,0,0.6-0.2,0.8-0.2c0,0.4-0.4,0.8-0.6,1.1
								c0.2,0,0.4,0.2,0.4,0.2C218.2,145.1,218,143.6,218,143.6z"/>
							<path fill="#414141" d="M211.8,138.9c0.2,0,0.2,0,0.4,0.2c-0.4-0.4-0.8-0.8-0.9-1.1C210.9,138.8,211.4,138.9,211.8,138.9z"/>
						</g>
					</g>
				</g>
			</g>
		</g>
	</g>
	<g display="inline">
		<g>
			<g>
				<g>
					<g opacity="0.85">
						<g>
							<path fill="#414141" d="M152,145.1c0.2-0.2,0.6-0.4,0.8-0.6c0,0.2,0,0.4,0,0.8C152.6,145.7,152.4,145.3,152,145.1z"/>
							<path fill="#414141" d="M153.3,144C153.5,144,153.5,144,153.3,144c0.2,0,0.2,0,0.4,0C153.5,144,153.5,144,153.3,144z"/>
							<path fill="#414141" d="M155,143.4c-0.2,0.2-0.4,0.4-0.8,0.4C154.4,143.6,154.6,143.4,155,143.4z"/>
							<path fill="#414141" d="M154.1,144.6c0-0.2-0.2-0.6-0.4-0.6l0,0c0.2,0,0.4,0,0.6,0C154.2,144,154.1,144.4,154.1,144.6z"/>
							<path fill="#414141" d="M154.1,144.6c0,0.2,0,0.6,0.2,0.8C154.2,144.9,154.1,144.8,154.1,144.6z"/>
							<path fill="#414141" d="M158,149.6c0.2,0-0.8-1.5-0.2-1.3c0.9,0,1.9,0.4,2.4,0c0.6,0.2-0.2-1.9,0.4-1.7
								c0.9,0,3.9,0.9,2.8,1.5c-1.5,0.8-2.8,0.9-4.3,1.5c-1.5,0-3,0-4.3,0.2c-0.4,0.2-0.6,0.4-0.8,0.8c0.2-0.6,0.4-0.9,0.8-1.5
								C155,148.3,156.9,149.8,158,149.6z"/>
							<path fill="#414141" d="M146.8,149.6c0.2,0,0.8,0.2,0.8,0.2c0-1.5,0.8-1.5,1.7-1.5c0,0.4,0.2,0.6,0.2,0.9
								c-0.4,0.2-0.8-0.2-0.6-0.8c-0.2,1.3-0.8,2.1-1.5,2.2C147.1,150.6,146.8,150,146.8,149.6z"/>
							<path fill="#414141" d="M146.8,151.1c0.2,0,0.4,0,0.6-0.2c0,0,0,0,0,0.2C147.1,151.1,146.9,151.1,146.8,151.1L146.8,151.1z"
								/>
							<path fill="#414141" d="M158.8,143.1c1.9-1.1,3.6-2.2,5.1-3.6c0.4,0.2,0.6,0.6,0.8,0.2c0-0.4,0-0.6,0-0.8
								c0.2-0.2,0.4-0.4,0.8-0.6c0.2,0,0.2,0,0.4,0l0,0c0.2,0,0.4,0.4,0.4,0.6c0,0.2,0,0.4,0.2,0.8c0-0.2,0-0.4-0.2-0.8
								c0-0.2,0-0.6,0.2-0.8c0.4,0,0.6-0.2,0.8-0.4c-0.4,0-0.6,0.2-0.8,0.4c-0.2,0-0.4,0-0.6,0h-0.2c0.6-0.4,0.9-0.9,1.5-1.3
								c0.2,0,0.4,0,0.4-0.2c0.6,0,1.1-0.2,0.8-0.9l0.2-0.2v0.2v-0.2c0.4-0.4,0.8-0.8,1.1-0.9c0.4,0.2,0.9,0.4,1.3,0.4
								c0,0-0.2-0.6-0.2-0.9c0.4,0.4,0.8,0.4,0.9,0.4c0,0.6,0.2,1.3,0.2,1.7c0.2,0.9-1.7-1.1-0.9,0.6c-0.6-1.7,1.3,0.4,0.9-0.6
								c0-0.4-0.2-1.1-0.2-1.7c0.6,0,0.9-0.6,0.9-1.5c-0.9-0.4-0.9,0.6-0.9,1.5c-0.2,0-0.6-0.2-0.9-0.4c0,0.4,0.2,0.9,0.2,0.9
								c-0.4,0-0.9-0.2-1.3-0.4c0.8-0.8,1.5-1.3,2.2-2.1c4.9-4.5,9.9-7.5,15.2-11.8c2.8-2.4,5.2-4.9,7.7-7.7
								c4.7-5.4,11.2-6.8,14.4-14.2c1.3-2.8,6-4.7,8.2-6c4.5,0.8,7.1,8.1,7.3,8.6c1.9,6.7-1.5,4.5-3,10.1c1.3-3.4-4.1-2.4-3.9,2.8
								c0.4,7.9-7.3,6.4-10.5,10.5c-0.8,1.1-2.1,1.5-3.2,2.4c-5.1,6-12.8,7.5-19.1,12.2c-1.9,1.1-4.3,0.8-6.2,0.9
								c-1.3,0.4-1.9,1.9-2.8,2.4c-1.5,0.9-3,1.1-4.5,1.1c1.5-0.6,2.6-0.8,4.3-1.5c0.9-0.6-1.9-1.5-2.8-1.5
								c-0.6-0.2,0.2,1.9-0.4,1.7c-0.6,0.4-1.5,0-2.4,0c-0.6-0.2,0.6,1.3,0.2,1.3c-1.1,0.2-3-1.3-3.4-0.6c-0.2,0.6-0.6,0.9-0.8,1.5
								c-0.2,0.2-0.4,0.4-0.6,0.6c-0.2,0-0.6,0-0.8,0c-0.2-0.6-0.6-1.1-0.8-1.7c-0.2,0.2-0.4,0.8-0.4,0.9c0.2-0.2,0.4-0.8,0.4-0.9
								c0.4,0.6,0.6,1.1,0.8,1.7c-1.7-0.2-3.6-0.2-5.3,0v-0.2c0.8-0.4,1.5-0.9,1.5-2.2c-0.2,0.6,0.2,0.9,0.6,0.8
								c0-0.4-0.2-0.6-0.2-0.9c-0.9,0-1.9,0-1.7,1.5c0,0-0.6-0.2-0.8-0.2c0,0.4,0.2,0.8,0.4,1.3c-0.2,0-0.4,0.2-0.6,0.2
								C158.4,144.6,158.8,143.1,158.8,143.1z"/>
							<path fill="#414141" d="M166.1,138.2c-0.2,0-0.2,0-0.4,0.2c0.4-0.4,0.8-0.8,1.3-1.1C167.2,138.2,166.6,138.2,166.1,138.2z"/>
						</g>
					</g>
				</g>
			</g>
		</g>
	</g>
	<g display="inline">
		<g>
			<g>
				<g>
					<g opacity="0.85">
						<g>
							<path fill="#414141" d="M241.4,49.5l0.8-0.8c0,0.2,0,0.6,0,0.9C242.2,49.9,241.8,49.7,241.4,49.5z"/>
							<path fill="#414141" d="M242.9,48L242.9,48l0.4-0.2C243.1,47.8,242.9,48,242.9,48z"/>
							<path fill="#414141" d="M244.6,47.1c-0.2,0.4-0.6,0.6-0.8,0.6C244.1,47.4,244.2,47.1,244.6,47.1z"/>
							<path fill="#414141" d="M243.9,48.4c0-0.2-0.2-0.6-0.6-0.6l0,0c0.2,0,0.4-0.2,0.6-0.2C243.9,47.8,243.7,48.2,243.9,48.4z"/>
							<path fill="#414141" d="M243.9,48.4c0,0.2,0.2,0.6,0.2,0.7C243.9,48.9,243.9,48.6,243.9,48.4z"/>
							<path fill="#414141" d="M248.4,52.9c0.2,0-0.9-1.3-0.4-1.3c0.9-0.2,2.1-0.2,2.8-0.8c0.6,0-0.2-1.9,0.2-1.9
								c0.9-0.2,4.3,0,3.2,0.9c-1.7,1.1-3,1.7-4.7,2.6c-1.7,0.4-3.4,0.8-4.9,1.3c-0.4,0.2-0.6,0.6-0.8,0.9c0.2-0.6,0.4-1.1,0.8-1.7
								C244.8,52.3,247.1,53.4,248.4,52.9z"/>
							<path fill="#414141" d="M235.8,55.9c0.2,0,0.8,0,0.8,0c-0.2-1.5,0.8-1.7,1.9-2.1l0.2,0.9c-0.4,0.2-0.8,0-0.8-0.7
								c0,1.5-0.8,2.2-1.7,2.8C236.2,56.6,235.8,56.2,235.8,55.9z"/>
							<path fill="#414141" d="M235.8,57.2c0.2,0,0.4-0.2,0.6-0.4V57C236.4,57.2,236.2,57.2,235.8,57.2L235.8,57.2z"/>
							<path fill="#414141" d="M248.9,45.6c2.1-1.7,3.8-3.4,5.4-5.1c0.4,0.2,0.7,0.4,0.7,0c0-0.4,0-0.6,0-0.9l0.7-0.8
								c0.2,0,0.2,0,0.4-0.2l0,0c0.4,0,0.4,0.2,0.6,0.6c0,0.2,0,0.6,0.2,0.8c0-0.2,0-0.4-0.2-0.8c0-0.2,0-0.6,0-0.8
								c0.4-0.2,0.6-0.4,0.8-0.6c-0.4,0-0.8,0.4-0.8,0.6c-0.2,0-0.4,0.2-0.6,0.2h-0.2l1.7-1.7c0.2,0,0.4-0.2,0.6-0.2
								c0.6-0.2,1.1-0.4,0.9-1.3l0.4-0.4v0.2v-0.2l1.1-1.3c0.6,0,1.1,0,1.5,0c0,0-0.2-0.6-0.2-0.9c0.4,0.2,0.8,0.4,1.1,0.2
								c0.2,0.6,0.2,1.3,0.4,1.7c0.4,0.9-1.9-0.8-1.1,0.8c-0.7-1.7,1.3,0.2,1.1-0.8c0-0.4-0.2-1.1-0.4-1.7c0.7-0.2,0.9-0.9,1.1-2.1
								c-1.1-0.2-1.3,1.1-1.1,2.1c-0.4,0-0.8,0-1.1-0.2c0,0.4,0.2,0.9,0.2,0.9c-0.6,0-1.1,0-1.5,0c0.7-0.9,1.5-1.7,2.6-2.8
								c2.8-3.2,6-6.2,9.4-9.4s6.8-6.2,10.5-9.9c0.2,0.9,0.4,1.9,0.6,2.8c0.9,5.1,2.2,9.9,3.9,15.6c0.8,2.8,1.3,6,1.9,9.2
								c0.4,2.1,0.6,4.1,0.9,6.4c0.6,3.9,1.5,7.9,4.3,11.8c1.9,3,1.7,9,1.9,12.2c-2.6,4.5-10.5,3-10.9,3c-6.8-1.9-3.4-4.1-7.7-9
								c2.6,3.4,3.9-3-0.9-5.8c-3.8-2.1-4.3-4.9-4.3-8.1c0-1.5,0.2-3.2,0.2-4.7c0-0.8,0-1.5-0.2-2.2c0-0.6-0.2-0.4-0.2-0.6h-0.2
								c-0.4,0-0.2-0.2-0.4-0.4c-0.6,0.2-0.9,0.6-0.9,0.6s0.2-0.4,0.4-0.9c0.2-0.6,0-0.9-0.4-0.4c0,0-0.2-0.4-0.6-0.9
								c-0.2-0.4-0.8-0.9-1.1-1.1c-0.2,0-0.4,0.4-0.4,0.6s0,0.2-0.2,0.2c-0.2,0.2-0.2,0.4-0.4,0.4c-0.2,0.4-0.4,0.6-0.8,0.8
								c-1.5,1.3-3.2,2.1-5.1,2.4c1.7-0.9,3-1.5,4.7-2.6c1.1-0.8-2.2-1.1-3.2-0.9c-0.6,0,0.2,1.9-0.2,1.9c-0.6,0.6-1.7,0.4-2.8,0.8
								c-0.6,0,0.6,1.3,0.4,1.3c-1.1,0.6-3.4-0.6-3.8,0.4c-0.4,0.6-0.6,1.1-0.8,1.7c-0.2,0.4-0.4,0.6-0.8,0.8c-0.2,0-0.6,0-0.7,0.2
								c-0.2-0.6-0.6-1.1-0.9-1.7c-0.2,0.4-0.2,0.9-0.4,1.1c0.2-0.4,0.2-0.9,0.4-1.1c0.4,0.6,0.7,1.1,0.9,1.7
								c-1.9,0.2-3.9,0.8-5.8,1.3v-0.2c0.9-0.6,1.5-1.3,1.7-2.8c0,0.6,0.2,0.9,0.8,0.8l-0.4-0.9c-0.9,0.2-2.1,0.4-1.9,2.1
								c0,0-0.6,0-0.8,0c0,0.4,0.4,0.8,0.6,1.1c-0.2,0.2-0.4,0.2-0.6,0.4C248.6,47.4,248.9,45.6,248.9,45.6z"/>
							<path fill="#414141" d="M256.8,38.6c-0.2,0-0.4,0.2-0.6,0.2l1.3-1.5C258.1,38.2,257.6,38.4,256.8,38.6z"/>
						</g>
					</g>
				</g>
			</g>
		</g>
	</g>
</g>
<g id="Layer_1_copy">
	<g display="none">
		
			<image display="inline" overflow="visible" enable-background="new    " width="1224" height="1632" xlink:href="31D418289C2AD33C.jpg"  transform="matrix(0.4013 0 0 0.4013 -36.0689 -221.5408)">
		</image>
		
			<image display="inline" overflow="visible" enable-background="new    " width="1224" height="1632" xlink:href="31D418289C2AD344.jpg"  transform="matrix(0.4013 0 0 0.4013 -36.0689 -221.5408)">
		</image>
	</g>
	<g display="none">
		<g display="inline">
			<g>
				
					<rect x="83.4" y="186.2" transform="matrix(0.9992 -4.071198e-02 4.071198e-02 0.9992 -7.9483 9.7082)" fill="none" width="301.9" height="27.6"/>
				<path d="M323.4,184.9c0.2-0.2,0.4-0.2,0.8-0.2C324.1,184.9,323.8,185.1,323.4,184.9z"/>
				<path d="M336.1,203.1c0.2,0,0.9-0.4,0.9,0C336.7,203.1,336.5,203.1,336.1,203.1z"/>
				<path d="M337.4,203.4c0-0.2,0.6,0,0.9,0C338.4,203.6,337.6,203.4,337.4,203.4z"/>
				<path d="M341,200.4c0.2-0.2,0.7-0.2,0.9,0C341.9,200.4,341.4,200.4,341,200.4z"/>
				<path d="M342.9,203.4c0.4-0.2,0.7-0.2,1.5-0.2C344.2,203.2,343.4,203.2,342.9,203.4z"/>
				<path d="M346.8,188.4c0.8,0,2.4-0.4,3,0C348.9,188.2,347.8,188.6,346.8,188.4z"/>
				<path d="M349.2,194.8c0.9-0.4,2.8,0,4.1-0.4c0.2,0.4-1.9,0.2-2.2,0.4c-0.4,0-0.6,0-0.7-0.2C350,194.8,349.6,195,349.2,194.8z"/>
				<path d="M361.6,195.4c0-0.2,0-0.4,0.4-0.2c0.2,0,0.2,0.2,0.2,0.2C362,195.2,361.8,195.2,361.6,195.4z"/>
				<path d="M366.7,192.8c0.7-0.4,2.6-0.4,3.8-0.2c0.2,0,0.2-0.2,0.4-0.2c0.6,0,2.1,0,0.6,0C369.7,192.8,368.4,192.6,366.7,192.8z"
					/>
				<path d="M367.4,196.1c0.2-0.2,0.6-0.2,0.9-0.2C368.2,196.1,367.6,196.1,367.4,196.1z"/>
				<path d="M368.2,187.3c0.2-0.2,0.7,0,1.1-0.2C369.1,187.3,368.6,187.3,368.2,187.3z"/>
				<path d="M368.4,195c0.4-0.2,1.1-0.2,1.5-0.4C370.1,195,368.8,195,368.4,195z"/>
				<path d="M368.9,195.9c0.2-0.2,0.9-0.2,1.5-0.2C370.2,195.8,369.5,195.8,368.9,195.9z"/>
				<path d="M369.5,185.6c0-0.2,0.6-0.2,0.9-0.4C370.2,185.6,369.9,185.4,369.5,185.6z"/>
				<path d="M370.1,187.3c0.4-0.2,1.9-0.2,2.6-0.2C371.8,187.1,371.2,187.3,370.1,187.3z"/>
				<path d="M370.8,195.6c0.8-0.4,1.7-0.2,2.2-0.2C372.5,195.8,371.6,195.4,370.8,195.6z"/>
				<path d="M372.5,192.4c0.2-0.2,0.8-0.2,1.1-0.2C373.6,192.6,372.9,192.4,372.5,192.4z"/>
				<path d="M373.6,193.1c0.4-0.2,0.6-0.2,1.1-0.2C374.6,193.1,373.8,192.9,373.6,193.1z"/>
				<path d="M374.8,193.9c0.2-0.2,1.1-0.2,0.9,0.2c-0.2,0-0.2,0-0.2-0.2C375.1,193.7,375.1,193.9,374.8,193.9z"/>
				<path d="M377.4,188.6C376.6,188.8,375.5,188.4,377.4,188.6L377.4,188.6z"/>
				<path d="M378.7,186c0.6-0.2,1.1-0.2,1.7-0.2C380,186,378.9,186,378.7,186z"/>
				<path d="M379.1,185.6c-0.2-0.2,0.9-0.2,0.6,0C379.4,185.6,379.2,185.6,379.1,185.6z"/>
				<path d="M380.2,182.1c0.2-0.2,0.6-0.2,0.9-0.2C380.9,182.1,380.4,182.1,380.2,182.1z"/>
				<path d="M383.8,182.2C384.9,181.9,385.2,182.1,383.8,182.2L383.8,182.2z"/>
				<path d="M354.3,183.2c0.2-0.2,0.6-0.2,0.8-0.4c0.4,0.2,1.1,0,1.7,0C356,183.4,355.2,183,354.3,183.2z"/>
				<path d="M369.1,188.4c0.4,0,0.4,0.2,0.6,0c0,0.2-0.2,0.2-0.2,0.2c0.7,0,0.9,0,1.5-0.2l-0.2,0.2c0.8-0.4,1.7,0.2,3.2,0
					c-1.5,0.4-4.7,0.4-6,0.4c0.2-0.2,1.3,0,1.5-0.4C369.7,188.6,368.9,188.8,369.1,188.4z"/>
				<path d="M370.8,194.8C371,194.8,370.8,194.6,370.8,194.8c0-0.2,0.6-0.2,0.8,0C371.4,194.8,369.5,194.8,370.8,194.8z"/>
				<path d="M380.6,193.7v0.2c0.8,0,2.2-0.2,2.8,0c-0.9,0.2-3.2-0.2-3.8,0.4c-0.2,0-0.6,0-0.6-0.2c-2.2,0.6-4.9,0.2-7.3,0.6
					c1.1-0.8,3.6,0.2,4.7-0.8c0.2,0,0,0-0.2,0C377.2,194.1,379.2,194.1,380.6,193.7z"/>
				<path d="M379.2,185.1c0.2-0.2,0.6-0.2,0.8-0.4C380.2,184.9,379.6,185.2,379.2,185.1z"/>
				<path d="M116.4,190.9c-0.6,0-1.3,0.4-1.9,0.4c-1.5,0-2.8-0.2-4.1,0s-2.4,0.6-3.8,0.8c-0.9,0.2-1.3,0.2-2.1,0.4
					c-1.9,0.4-3.6,0.2-4.3,0.9c-1.3,0.6-3,0.9-4.1,1.3c-0.2,0-0.6,0-0.8,0c-3,1.1-4.7,3-8.2,3.9c-0.4,0.4-0.6,0.9-1.1,1.5
					c-0.2,0.2-0.9,0.4-1.1,0.6c-0.8,0.9,0,1.9-1.3,2.6c0,0.2,0.2,0.2,0.2,0.4c0,1.7,0.6,3,0.4,4.3c0.9,0.8,0.8,1.7,1.5,2.2
					c0.4,0.4,1.3,0.8,1.9,1.3c0.8,0.4,1.3,0.8,1.9,1.3c0,0.6,0.9,0.6,1.1,0.9c1.1,0.2,1.9,0.8,2.8,0.9c0.2,0.2,0.4,0.2,0.4,0.4
					c2.2,0.8,4.5,1.7,7.5,1.9c0.2,0,0.9,0,1.1,0c2.3-0.2,5.6,0,6.8,0.6c0.4,0,0.4-0.2,0.8,0c0.2,0.4,1.5,0.9,2.4,0.8
					c0.4,0,0.9-0.6,1.7-0.6c1.1-0.2,2.2,0.4,3.2,0.2c0.6,0,0.9-0.6,1.5-0.6c1.3-0.4,3.9-0.2,5.1-0.2c0.9,0,1.1,0.4,1.9,0.4
					c0.6,0,0.9-0.4,0.9-0.9c1.7-1.1,6-0.6,8.6-1.1c1.9,0.4,3.8-0.4,5.4-0.4c0.4,0,0.8,0.2,1.1,0.2c0.6,0,1.5-0.4,2.2-0.4
					c1.3-0.2,2.6-0.2,3.8-0.4c1.7,0.6,3-0.2,4.5-0.2c0.6,0,1.1,0.2,1.7,0.2c0.6,0,0.9-0.2,1.5-0.2c0.6,0,1.1,0.2,1.7,0.2
					c0.4,0,0.8-0.2,1.1-0.2c0.4,0,0.8,0.2,1.1,0.2c0.6,0,0.9-0.4,1.5-0.4c1.9-0.2,3.8,0,5.4-0.6c3,0.4,5.6-0.6,9.4-0.2
					c0.9-0.2,1.5-0.4,2.4-0.2c0.2,0,0.2-0.2,0.6-0.2c1.9,0.2,3.8-0.6,5.8-0.4l0.2-0.2c2.6,0.2,6,0.2,8.1-0.4
					c1.7,0.2,3.6-0.2,5.4-0.4c0.9,0,1.9,0.2,2.8,0c1.7-0.2,3.9-0.2,5.6-0.4c0.6,0,0.9-0.2,1.5-0.4c0.9,0,1.9,0,2.8,0
					c3.6-0.6,7.7-0.4,10.9-0.6c0.9,0,1.9-0.4,2.8-0.4c1.9-0.2,3.8,0,5.4,0c0.4,0,0.9-0.2,1.3-0.2c1.1-0.2,2.1,0,3.4,0
					c2.8-0.2,5.6-0.6,8.2-0.4c3.4-0.6,8.2-0.6,12.2-0.9c0.9-0.4,1.7-0.2,2.6-0.2c2.8-0.2,6.4-0.8,9.4-0.8
					c12.4-1.1,25.3-1.3,37.5-2.6c0.9,0.2,2.4,0,3.4-0.2c0.2,0.2,0.8,0.2,1.1,0.2c1.5-0.6,3.4-0.2,5.4-0.4c0.6-0.4,1.7-0.2,2.4-0.6
					c0.4,0.2-0.4,0.2,0.2,0.4c1.3-0.9,5.4-0.6,7.3-0.9c-0.2,0-0.2-0.2,0-0.2c0.4,0.2,0.7-0.2,1.1-0.2c3.4-0.2,5.8-1.1,8.8-1.5
					c0.4,0.2,1.3,0.4,1.7,0c-0.6,0-1.1,0-1.1-0.4c0.9,0,2.1-0.2,2.6-0.4c1.1,0,1.7,0,2.6-0.2c0.2,0-0.2-0.4,0.2-0.4
					c1.5,0.2,2.2-0.2,3.8-0.2c0.4-0.4,2.1-0.6,2.4-0.4c0.4-0.2-0.6-0.2-0.2-0.4c1.3-0.2,2.4-0.4,3.6-0.2c0.2-0.2,0.4-0.4,0.9-0.4
					c0.4,0,0,0.4,0.4,0.2c0.4-0.2-0.4-0.4-0.2-0.6c0.6-0.2,0.6-0.4,0.8-0.6c0.9,0.2,1.5-0.2,2.2-0.4c0.7-0.2,1.7,0,2.4-0.2
					c0.8-0.2,0.9-0.4,1.7-0.4c0.6,0,1.1,0.2,1.9,0.2c0.4,0-0.2-0.2,0.2-0.2c2.4-0.2,4.9-0.4,6.6-0.9c-2.6,0.6-4.7,0.2-7.1,0.8
					c-0.4-0.4-1.1,0.2-1.5-0.2c-0.2,0.2,0.4,0.2-0.2,0.2c-0.2,0-0.2,0-0.6,0c0.4-0.4-0.2-0.4-0.4-0.6c-2.1,0.2-3.6,0.4-5.4,0.4
					c-0.4,0.2,0.2,0.2-0.2,0.2c-0.7,0-1.1,0-2.1,0.2c-0.2-0.2-0.8-0.4-0.6-0.8c2.4,0,5.6-0.8,8.4-0.9c0.9,0,1.7,0.2,2.2-0.2
					c-1.3,0.2-2.2-0.2-3.4-0.2c-1.5,0-3,0.6-4.3,0.4c-0.4,0-0.6-0.2-0.9-0.2c-0.2,0-0.7,0.2-1.1,0.2c-0.4,0-0.4-0.2-0.6-0.2
					c-0.6,0-1.1,0.4-1.7,0.4c-1.1,0-2.2-0.2-3.4,0c-0.2-0.2-0.2-0.4,0.2-0.6c1.5,0,1.7,0,3.2-0.2c-0.2,0-0.2,0-0.2-0.2
					c0.4,0,0.6,0,0.9,0c-1.1,0-0.9-0.4-0.6-0.8c2.6,0,6-0.4,8.2-0.4c0.2-0.2,0.4-0.4,0.8-0.4c2.4-0.2,5.2-0.2,8.1-0.6
					c-3-0.2-6.4,0-9.9,0.4c-0.2,0,0-0.2-0.4-0.2c-1.5,0.2-3.4,0.2-4.5,0.4c-0.6-0.2-1.1-0.6-1.5-0.8c-3.8,0.4-6.6-0.8-10.1-0.6
					c0-0.2-0.2-0.2-0.4-0.4c0.4-0.2,0.4-0.4,0.7-0.6c0.6,0,1.1-0.2,1.7,0c3-0.8,7.3-0.6,11.1-0.9c0.4-0.4,0-0.6-0.2-0.9
					c-1.9-0.2-3.4,0.4-5.4,0c-0.8-0.8,0-1.3,1.5-1.5c2.4-0.2,6.8-0.2,8.2-0.2c7.1-0.8,14.3-0.9,21.8-1.5c-4.1,0-7.9,0.6-11.6,0.4
					c0,0.2-0.2,0.2-0.4,0.2c-3.6,0-7.7,0.2-10.7,0.6c-1.3-0.4-3.9,0.2-5.2-0.2c0.4-0.8,1.3-1.1,2.8-1.5c-1.5,0.2-2.8-0.2-3.9-0.2
					c-0.9,0-2.6,0.4-3.2,0.2c-0.2,0,0.2-0.2-0.2-0.2c0.4,0-0.8,0-0.8,0c-0.6,0.2-0.4,0.2-1.1,0.2s-0.8,0-1.3-0.2
					c-2.8,0-5.4,0.4-8.2,0.4c-0.4,0-0.9,0-0.9,0c-0.2,0,0-0.2-0.4-0.2c-0.2,0-0.2,0.2-0.4,0.2c-1.1,0-2.2,0-3.4,0
					c-2.6,0.2-6,0.2-8.1,0.2c-0.6,0,0.2-0.4-0.6-0.2c-3.8,0-7.9,0-12,0.2c-0.4,0,0-0.4-0.6-0.2c-0.6,0-0.4,0.4-0.9,0.4
					c-0.4,0-0.6-0.2-0.8-0.4c-4.7,0-9.6,0.4-14.2,0.8c-4.5,0.4-9,0.4-13.3,0.8c-3.4,0.2-6.6,0.6-9.6,0.6c-3.9,0.4-7.5,0.6-11.2,0.8
					c-2.8,0.2-5.8,0.2-8.1,0.4c-0.4,0-0.9,0.2-1.3,0.2c-0.8,0-1.3-0.2-2.1-0.2c-1.9,0-3.8,0.4-5.6,0.6c-2.1,0-4.1,0.2-6.2,0.2
					c-1.1,0-2.2,0.4-3.4,0.4c-0.8,0-1.5-0.2-2.4,0c-2.2,0.2-4.5,0.6-6.6,0.6c-2.8,0-5.6-0.2-8.6,0.4c-3.2,0-6.9,0.2-9.9,0.4
					c-2.4-0.4-5.1,0.2-7.7,0.2c-0.4,0-0.6-0.2-0.8-0.2c-4.1-0.2-8.8,0.8-12.2,0.4c-1.3,0.4-2.4,0-3.6,0c-1.3,0-2.4,0.2-3.8,0.4
					c-0.4,0-0.8-0.2-1.1-0.2c-1.3,0-2.4,0.2-3.8,0.4c-2.1,0.2-4.3-0.4-6.6,0.2c-1.9-0.2-4.5-0.4-6.6,0c-3.6-0.4-6.9,0.4-10.7,0.4
					c-1.1,0-2.2-0.4-3.6,0c-1.3-0.4-2.8,0-4.3,0c-1.5,0-3.2-0.2-4.7-0.2c-2.2,0-5.1,0.4-6.7-0.4c-0.8-1.5-2.2,0.8-4.1,0.6
					c-0.9-0.2-0.9-0.8-1.3-1.3c-0.9-0.2-1.7,0-2.4,0.2C118.4,191.4,117.7,190.9,116.4,190.9z M346.8,198
					C346.8,198.2,347,198.2,346.8,198C346.8,198.6,346.1,198,346.8,198z M347.2,197.8c1.1,0,2.6-0.4,3.4-0.2c0.2,0-0.2-0.4,0.2-0.6
					c0.6,0.2,0.9,0.2,1.9,0.2c0,0.6-1.5,0.4-1.5,0.8c-0.6,0-0.9,0-1.1,0.2c-1.3-0.2-1.5,0.2-2.4,0
					C347.6,198.2,347,198.2,347.2,197.8z"/>
			</g>
		</g>
	</g>
	<g display="none">
		<path display="inline" d="M82.4,196.3c0,0,2.4,15,16.3,16.9s93.4-5.1,108.9-5.6c15.6-0.6,104.6-1.9,137.4-5.4
			c13.5-1.5,31.1-9,31.1-9s-103.7,0-126.4-0.6C169.2,190.7,99.1,191.4,82.4,196.3z"/>
	</g>
	<path display="none" fill="none" stroke="#000000" stroke-width="0.3" stroke-miterlimit="10" d="M248.8,188.1"/>
	<g display="none">
		<path display="inline" d="M87.7,269.4c0,0,2.4,15,16.3,16.9s93.4-5.1,108.9-5.6c15.6-0.6,104.6-1.9,137.4-5.4
			c13.5-1.5,31.1-9,31.1-9s-103.7,0-126.4-0.6C174.5,263.8,104.2,264.6,87.7,269.4z"/>
	</g>
	<g display="none">
		<path display="inline" d="M99.3,231.9c0,0,2.4,15,16.3,16.9s93.4-5.1,108.9-5.6c15.6-0.6,67.1-1.9,99.9-5.4
			c13.5-1.5,31.1-9,31.1-9s-66.2,0-88.9-0.6C186.1,226.3,116,227.1,99.3,231.9z"/>
	</g>
	<polygon display="none" points="187.8,180.9 198.7,273 207.9,271.9 197,179.2 186.3,177.8 	"/>
	<g display="none">
		<path display="inline" d="M175.4,92.6c0,0-5.6,6-5.8,7.3c-0.2,1.3-0.9,4.7,0.4,6c1.3,1.5,12,16.3,12.6,17.2
			c0.6,0.9-18.9,18.2-18.9,18.2s-1.1,1.1-0.8,1.9c0.4,0.8,3.6,4.9,3.6,4.9s1.1,0.9,2.6,0s21.6-13.7,21.6-13.7s0.6-0.6,0.9,0
			c0.4,0.6,12.8,13.1,12.8,13.1s3.6,0,5.1-0.8c0.4-1.5-0.6-4.9-0.6-4.9l-11.6-15.2c0,0,16.3-12.8,18.6-16.3c2.3-3.6,3.4-5.1,3.4-8.8
			c-0.4-1.9,0-4.1-3-3.2S191,116.6,191,116.6L175.4,92.6z"/>
	</g>
	<path display="none" fill="none" stroke="#FFFFFF" stroke-miterlimit="10" d="M53.9,128.1c-0.2,7.3,10.7,23.1,39.4,34.7
		c24,9.6,56.1,12,91.1,13.9c42.6,0,93.8-4.7,114.6-9.4c21.9-4.9,44.8-18.8,47.6-26.6c0.2-6.4-4.1-12.9-24.2-34.5
		c-10.3-9.2-19.5-16.1-65.2-29.4c-53.2-15.6-81.2-9.6-109.9-6.4C125.6,72.6,55.1,87.8,53.9,128.1z"/>
	<path display="none" fill="none" stroke="#FFFFFF" stroke-miterlimit="10" d="M93.3,162.8"/>
	<g>
		<g>
			<g>
				<g>
					<g opacity="0.85">
						<g>
							<path fill="#414141" d="M128.9,64.5c-2.3,0.6-4.3,1.1-6.6,1.9c1.1-0.4,2.1-0.9,3.2-1.5C126.9,64.3,127.8,64.5,128.9,64.5z"/>
							<path fill="#414141" d="M116.4,68.2c-0.4,0.2-0.8,0.2-1.1,0.4c-0.4,0-0.8,0.2-0.9,0.2C114.9,68.4,115.6,68.4,116.4,68.2z"/>
							<path fill="#414141" d="M105.1,71.6c1.9-0.9,3.8-1.5,5.6-2.1C109.2,70.3,107.4,70.9,105.1,71.6z"/>
							<path fill="#414141" d="M113.8,68.1c-0.6,0.6-0.9,0.9,0.4,0.8l0,0c-1.1,0.2-2.2,0.6-3.4,0.9C111.9,69.2,113,68.6,113.8,68.1z
								"/>
							<path fill="#414141" d="M113.8,68.1c0.6-0.4,1.5-0.9,1.9-1.3C115.2,67.1,114.5,67.7,113.8,68.1z"/>
							<path fill="#414141" d="M108.9,63c-1.3,0.2-0.4,1.9-2.8,2.3c-5.4,1.5-10.3,2.6-15.2,5.1c-1.1,0.4-2.4,1.5-3.8,2.4
								c-1.1,1.1-2.4,2.2-3.6,2.6c-2.6,1.1-7.5,3.2-10.5,4.7c-1.5,0.8-2.8,1.1-3,1.1c-0.4,0,0.2-0.6,2.1-1.9
								c5.6-3.8,10.5-6.4,15.2-8.6c4.9-2.2,9.6-4.3,15-6.2c9.2-2.8,18.2-4.7,27.8-6.2c2.6-0.6,5.1-1.1,7.5-1.7
								c-3.2,0.9-6.4,1.9-9.9,3C122.8,61.5,116.6,60.9,108.9,63z"/>
							<path fill="#414141" d="M178.4,56.8c-0.6,0-1.5-0.2-2.2-0.4c-0.8,0-1.3-0.2-1.3-0.2c-5.3,1.5-10.9,1.5-16.5,1.5
								c0.8-0.4,1.5-0.8,2.4-1.1c3.2-0.2,3.6,0.4,0.8,0.9c3.2-0.7,6.4-1.5,9.4-1.7c1.5-0.2,3.2-0.4,4.7-0.4s3.2,0,4.7,0
								C180.1,56.1,180.3,56.6,178.4,56.8z"/>
							<path fill="#414141" d="M184.2,55.5c-1.3,0-2.4,0-3.8,0c0,0,0-0.2,0.2-0.2C182,55.5,183.1,55.5,184.2,55.5L184.2,55.5z"/>
							<path fill="#414141" d="M81.9,81.4c-6.8,4.1-12.9,8.8-18,14.4c-5.1,5.4-9.2,11.8-11.1,18.8c-0.6,0.9-1.3,1.7-1.3,3.2
								c0,1.1,0.4,2.2,0.4,3.4c0,0.9,0.2,2.1,0.2,3c0.2,0.9,0.4,2.1,0.6,3c0,0.8,0.4,1.5,0.4,2.1l0,0c0.2,1.1-0.2,0.9-0.8,0.4
								c-0.4-0.8-0.9-1.3-1.3-2.1c0.2,0.4,0.8,1.3,1.3,2.1c0.6,0.9,0.9,1.9,1.7,3c0.4,0.9,0.8,1.9,1.1,2.6c0.6,0.9,1.1,1.7,1.7,2.6
								c-0.6-1.1-1.1-1.9-1.5-2.8c-0.4-0.9-0.8-1.7-1.3-2.4c-0.6-1.1-0.8-2.2-0.9-3.4c0-0.4-0.2-0.8-0.2-0.9
								c1.3,4.5,3.8,8.6,6.8,12.2c0.4,0.4,0.6,0.9,0.9,1.3c0.4,0.4,0.6,0.8,0.9,1.1c0.6,0.6,1.1,1.3,1.7,1.9
								c0.6,0.6,1.1,1.1,1.9,1.7c0.6,0.6,1.1,0.9,1.7,1.3c0.6,0.4,1.1,0.6,1.7,0.8c0.8,0.6,1.3,0.9,2.1,1.5c-0.2,0-0.4-0.2-0.6-0.2
								c0.4,0.2,0.6,0.4,0.9,0.4c3,1.9,6.2,3.6,9.6,5.1c1.9,1.3,3.9,2.6,6.2,3.8c0,0,0.4,0,0.9,0s1.1,0,1.7,0
								c0.8,0.8,2.1,1.5,3.6,2.2c-2.1-0.2-3.9-0.2-5.6-0.4c-2.6-0.2-4.5-3.8-7.7-3.6c3.4-0.2,5.1,3.4,7.7,3.6
								c1.7,0.2,3.6,0.4,5.6,0.4c3.2,1.5,7.7,2.4,11.2,2.4c-4.1-1.9-7.9-2.2-11.2-2.4c-1.5-0.8-2.8-1.5-3.6-2.2c-0.4,0-1.1,0-1.7,0
								c-0.6,0-0.9,0-0.9,0c-2.2-1.1-4.3-2.4-6.2-3.8c6.4,3,13.3,5.3,20.4,6.9c11.4,3,22.9,4.9,34.3,6.2c11.4,1.3,22.9,2.2,34.5,2.6
								c5.8,0.2,11.6,0.4,17.4,0.6c5.8,0,11.6-0.2,17.4-0.2c11.8-0.4,23.8-0.9,36-2.1c13.3-1.3,26.2-3,38.8-5.4
								c12.6-2.6,24.8-5.8,35.6-10.7c5.4-2.4,10.5-5.3,14.8-8.4c2.1-1.7,3.9-3.4,5.6-5.3c1.5-1.9,2.6-3.8,3.4-5.8l0.6-1.5
								c0-0.6,0.2-0.9,0.2-1.5c0-0.9,0.2-2.1,0.2-3.2c-0.2-2.2-0.6-4.5-1.5-6.8c-1.5-4.7-4.5-9.2-7.9-13.3
								c-6.9-8.3-16.1-15.2-26.4-20.2c-10.3-5.2-21.6-9-33.6-11.2c-9.2-1.9-22.1-4.7-35.4-6.4c-13.3-1.7-26.6-2.8-35.8-3
								c-12.2-1.7-15.4-4.1-15.2-6.6s3.8-4.5,4.3-4.7c3.9-1.7,7.5-2.6,11.4-3.2s7.9-0.8,12.4-0.6c9,0.2,20.1,0.8,36.4,1.7
								c-5.6-0.4-7.3,0-6.6,0.6c0.8,0.6,3.9,1.3,8.6,2.2c4.7,0.9,10.5,2.1,16.7,3.2c3,0.6,6.2,1.1,9.2,1.7c1.5,0.2,3,0.6,4.5,0.8
								c1.5,0.2,2.8,0.4,4.1,0.6c15.6,1.7,33.8,9.6,49.3,23.6c7.7,7.1,14.8,15.8,19.1,26.8c2.1,5.4,3.6,11.6,3.2,18.4
								c0,0.8-0.2,1.7-0.2,2.4l-0.6,2.6c-0.4,1.7-0.9,3.2-1.5,4.7c-1.3,3-2.8,5.8-4.5,8.4c-3.6,5.1-8.1,8.8-12.9,12
								c-4.9,3.2-10.1,5.6-15.6,7.9c-14.1,6.2-28.3,9.4-42.4,11.8c-14.1,2.2-28.1,3.6-42,4.3c-14.1,0.8-28.1,0.9-42.4,0.9
								c-1.9,0-3.6,0-5.4,0s-3.8-0.2-5.6-0.2c-3.6-0.2-7.3-0.4-10.9-0.6c-7.3-0.4-14.8-0.8-22.3-1.5c-16.1-1.5-30-5.3-43.1-9.2
								c-9.8-2.4-20.2-5.1-28.1-8.4c-6-2.6-11.6-6-16.5-9.9c-4.9-3.9-9-8.4-12-13.7c3.6,5.6,7.7,9.7,12.2,13.3
								c4.5,3.6,9.4,6.7,15.6,9.6c4.1,1.9,2.8,0.8,0-1.3s-7.3-5.1-9.6-6.9c-0.9-0.9-2.6-1.3-4.1-2.1c-1.7-0.8-3.2-1.3-4.1-2.4
								c-4.5-3.8-7.7-8.4-10.3-14.4c-0.8-2.6-2.3-1.7-2.8-3c-0.4-1.1-0.6-2.1-0.9-3.2c-0.2-1.1-0.6-2.1-0.6-3s-0.2-2.1-0.2-3
								c0-0.4,0-0.9,0-1.3c0-0.6,0-0.9,0.2-1.5c0.4-3.8,1.1-6.8,1.7-9.4c0.8-4.1,2.2-7.7,3.8-10.9c0.6-0.9,1.1-1.9,1.7-3
								c0.6-0.9,1.3-1.9,2.1-2.8c0.9-1.1,2.1-2.1,3.2-3.2c-0.4,1.3-0.2,2.1,0.2,2.8c1.3-1.7,3-4.1,4.5-5.6c-1.5,1.5-3.2,3.9-4.5,5.6
								c-0.2-0.8-0.6-1.5-0.2-2.8c7.9-7.3,18.2-13.5,28.3-18v0.2c-5.6,2.8-10.9,6.4-15.4,11.4c2.1-2.1,1.5-2.2-1.3-0.4
								c-0.6,0.8-0.9,1.5-1.3,2.2c4.7-3.4,9.4-6,13.3-9.9c0,0,2.3-0.9,3.4-1.3c1.5-1.1,1.1-1.5,1.1-2.1c1.1-0.6,2.2-1.1,3.4-1.7
								c-0.9,1.1-3.2,2.6-5.1,4.3c-0.9,0.8-1.9,1.5-2.4,2.1C82.2,81,81.9,81.4,81.9,81.4z"/>
							<path fill="#414141" d="M54.5,132.8c-0.4-0.8-0.6-1.7-0.9-2.8c0.6,1.9,1.7,3.6,2.4,5.4c1.1,1.7,2.1,3.4,3.4,4.9
								c-0.6-0.2-0.9-0.8-1.5-1.1c-0.6-0.6-0.9-1.1-1.3-1.7c-0.4-0.8-0.9-1.3-1.3-2.1C55.1,134.2,54.7,133.5,54.5,132.8z"/>
						</g>
					</g>
				</g>
			</g>
		</g>
	</g>
	<g>
		<g>
			<g>
				<g>
					<g opacity="0.85">
						<g>
							<path fill="#414141" d="M302.4,200.1c-0.7,0-1.7,0-2.4,0c0.4,0.2,0.8,0.4,1.3,0.6C301.8,201,302,200.4,302.4,200.1z"/>
							<path fill="#414141" d="M297.9,200.1c-0.2,0-0.4,0-0.4,0c-0.2,0-0.2,0.2-0.4,0.2C297.3,200.1,297.5,200.1,297.9,200.1z"/>
							<path fill="#414141" d="M293.6,200.6c0.7,0,1.5,0,2.1-0.2C295.1,200.4,294.5,200.4,293.6,200.6z"/>
							<path fill="#414141" d="M296.9,201c-0.2-0.2-0.4-0.6,0-0.8l0,0c-0.4,0.2-0.8,0.2-1.3,0.2C296.2,200.6,296.6,200.8,296.9,201z
								"/>
							<path fill="#414141" d="M296.9,201c0.2,0.2,0.7,0.6,0.7,0.6C297.5,201.4,297.3,201.2,296.9,201z"/>
							<path fill="#414141" d="M296,207.4c-0.4,0.2-0.4-1.5-1.1-1.1c-1.9,0.6-3.6,1.3-5.4,1.5c-0.8,0.4-2.2-1.5-3-1.1
								c-2.1,0.6-6.9,3-3.9,2.8c4.5-0.4,7.3-0.9,11.4-1.3c3.2-0.8,6.4-1.7,9.8-2.4c0.9-0.2,1.9,0,2.6,0.2c-1.1-0.2-2.2-0.6-3.6-0.8
								C300.7,204.6,298.6,206.8,296,207.4z"/>
							<path fill="#414141" d="M320.4,200.8c-0.4,0.2-1.3,0.6-1.3,0.6c-1.9-1.3-3.9-0.8-5.8-0.2c0.4,0.4,0.6,0.6,0.9,0.9
								c1.1-0.2,1.3-0.6,0.2-0.9c2.2,1.1,4.5,1.1,6.8,0.9C320.9,201.6,320.9,201,320.4,200.8z"/>
							<path fill="#414141" d="M322.4,201.9c-0.4,0-0.9,0.2-1.3,0.2v0.2C321.5,202.1,322.1,202.1,322.4,201.9L322.4,201.9z"/>
							<path fill="#414141" d="M284.8,202.5c-5.6,0.2-10.9,0.2-16.1,0.2c-0.4,0.4-0.7,0.8-1.1,0.6c-0.4-0.4-0.8-0.6-1.3-0.6
								c-0.7,0-1.5,0-2.2,0c-0.2,0-0.6,0.2-0.7,0.2l0,0c-0.4,0.2-0.4,0.6,0,0.8s0.6,0.4,0.7,0.6c-0.2-0.2-0.6-0.4-0.7-0.6
								c-0.4-0.2-0.8-0.4-1.3-0.6c-0.8,0.2-1.3,0.2-2.1,0.2c0.7-0.2,1.5-0.2,2.1-0.2c0.4,0,0.9-0.2,1.3-0.2c0.2,0,0.2-0.2,0.4-0.2
								c-1.7,0-3.4,0-5.1-0.2c-0.4,0-0.8,0.2-1.1,0.2c-1.3,0.2-2.4,0.6-3.2-0.4c-0.4,0-0.6,0-0.9,0l0.2,0.2c-0.2,0-0.2-0.2-0.4-0.2
								c-1.3,0-2.6-0.2-3.9-0.2c-0.8,0.4-1.7,0.8-2.6,1.1c0,0-0.6-0.6-0.9-0.9c-0.4,0.4-0.8,0.8-1.5,0.9c0.8,0.6,1.3,1.1,1.9,1.5
								c0.9,0.9,1.9-1.9,3-0.2c-1.1-1.7-2.1,1.1-3,0.2c-0.6-0.4-1.3-0.9-1.9-1.5c-1.3,0.4-2.8,0-4.1-0.8c1.5-0.8,3,0,4.1,0.8
								c0.6-0.2,1.1-0.6,1.5-0.9c0.4,0.4,0.9,0.9,0.9,0.9c0.9-0.2,1.7-0.8,2.6-1.1c-2.6-0.2-5.1-0.2-7.7-0.4
								c-16.9-0.8-32.4-0.2-49.9-0.8c-9.6-0.4-18.6-0.9-27.6-1.7c-17.8-1.7-34.1,1.1-52.1-3c-6.9-1.5-19.7-0.4-26.4,0
								c-8.8,3.2-4.1,10.9-3.6,11.2c5.6,6.4,9.8,2.6,21,6.4c-7.7-2.1,5.4-4.3,12.8,0c10.5,6.6,25.3,0.8,38.1,2.2
								c3.2,0.4,6.6,0,10.5,0c19.9,1.9,38.2-1.5,59.2-1.3c5.6-0.2,10.3-1.9,15-3c3.4-0.4,7.1,0.4,9.8,0.4c4.3-0.2,8.1-0.8,11.6-1.7
								c-3.9,0.4-6.9,0.9-11.4,1.3c-3,0.2,2.1-2.4,3.9-2.8c0.7-0.4,2.2,1.5,3,1.1c1.9,0,3.6-0.9,5.4-1.5c0.7-0.4,0.7,1.3,1.1,1.1
								c2.6-0.4,4.7-2.8,6.4-2.4c1.3,0.2,2.4,0.6,3.6,0.8c0.8,0,1.5,0.2,2.2,0c0.6-0.2,0.9-0.4,1.5-0.6c-0.4-0.6-0.6-1.1-0.7-1.9
								c0.7,0,1.7,0.4,2.4,0.6c-0.8,0-1.7-0.4-2.4-0.6c0.2,0.8,0.4,1.3,0.7,1.9c3.6-1.1,7.5-2.2,11.4-3v-0.2
								c-2.2,0.2-4.3,0.2-6.8-0.9c0.9,0.4,0.9,0.9-0.2,0.9c-0.4-0.4-0.6-0.6-0.9-0.9c1.9-0.6,3.9-1.1,5.8,0.2c0,0,0.8-0.4,1.3-0.6
								c0.6,0.2,0.6,0.8,0.8,1.3c0.4,0,0.9-0.2,1.3-0.2C287.6,203.6,284.8,202.5,284.8,202.5z"/>
							<path fill="#414141" d="M261.9,202.9c0.4,0,0.8-0.2,1.1-0.2c-1.5,0-2.8-0.2-4.3-0.2C259.4,203.4,260.6,203.2,261.9,202.9z"/>
						</g>
					</g>
				</g>
			</g>
		</g>
	</g>
	<g>
		<g>
			<g>
				<g>
					<g opacity="0.85">
						<g>
							<path fill="#414141" d="M303.1,267.6c-0.8,0-1.5,0-2.2,0c0.4,0.2,0.8,0.4,1.1,0.6C302.6,268.5,302.8,267.9,303.1,267.6z"/>
							<path fill="#414141" d="M298.6,267.6c-0.2,0-0.4,0-0.4,0c-0.2,0-0.2,0.2-0.4,0.2C298.1,267.6,298.4,267.6,298.6,267.6z"/>
							<path fill="#414141" d="M294.7,268.1c0.8,0,1.5,0,2.1-0.2C296,267.9,295.4,267.9,294.7,268.1z"/>
							<path fill="#414141" d="M297.9,268.5c-0.2-0.2-0.4-0.6,0-0.8l0,0c-0.4,0.2-0.8,0.2-1.3,0.2
								C297.1,268.1,297.5,268.3,297.9,268.5z"/>
							<path fill="#414141" d="M297.9,268.5c0.2,0.2,0.6,0.6,0.7,0.6C298.4,268.9,298.1,268.7,297.9,268.5z"/>
							<path fill="#414141" d="M296.9,274.9c-0.4,0.2-0.4-1.5-1.1-1.1c-1.9,0.6-3.6,1.3-5.2,1.5c-0.7,0.4-2.1-1.5-3-1.1
								c-1.9,0.6-6.8,3-3.9,2.8c4.3-0.4,7.1-0.9,11.1-1.3c3.2-0.8,6.2-1.7,9.4-2.4c0.9-0.2,1.7,0,2.6,0.2c-1.1-0.2-2.2-0.6-3.6-0.7
								C301.4,272.1,299.6,274.3,296.9,274.9z"/>
							<path fill="#414141" d="M320.4,268.3c-0.4,0.2-1.1,0.6-1.1,0.6c-1.9-1.3-3.8-0.8-5.6-0.2c0.4,0.4,0.6,0.6,0.9,0.9
								c1.1-0.2,1.1-0.6,0.2-0.9c2.2,1.1,4.3,1.1,6.6,0.9C320.9,269.1,320.9,268.5,320.4,268.3z"/>
							<path fill="#414141" d="M322.4,269.4c-0.4,0-0.7,0.2-1.3,0.2v0.2C321.7,269.6,322.1,269.6,322.4,269.4L322.4,269.4z"/>
							<path fill="#414141" d="M286.1,270c-5.4,0.2-10.5,0.2-15.6,0.2c-0.4,0.4-0.6,0.8-1.1,0.6c-0.4-0.4-0.8-0.6-1.1-0.6
								c-0.8,0-1.5,0-2.2,0c-0.2,0-0.6,0.2-0.8,0.2l0,0c-0.4,0.2-0.2,0.6,0,0.7c0.4,0.2,0.6,0.4,0.8,0.6c-0.2-0.2-0.6-0.4-0.8-0.6
								c-0.4-0.2-0.7-0.4-1.1-0.6c-0.8,0.2-1.3,0.2-2.1,0.2c0.8-0.2,1.5-0.2,2.1-0.2c0.4,0,0.7-0.2,1.1-0.2c0.2,0,0.2-0.2,0.4-0.2
								c-1.7,0-3.4,0-4.9-0.2c-0.4,0-0.8,0.2-1.1,0.2c-1.1,0.2-2.4,0.6-3.2-0.4c-0.4,0-0.6,0-0.9,0l0.2,0.2c-0.2,0-0.2-0.2-0.4-0.2
								c-1.3,0-2.4-0.2-3.8-0.2c-0.8,0.4-1.7,0.8-2.4,1.1c0,0-0.6-0.6-0.9-0.9c-0.4,0.4-0.8,0.7-1.3,0.9c0.8,0.6,1.3,1.1,1.9,1.5
								c0.9,0.9,1.9-1.9,2.8-0.2c-0.9-1.7-2.1,1.1-2.8,0.2c-0.6-0.4-1.1-0.9-1.9-1.5c-1.1,0.4-2.6,0-3.9-0.8c1.5-0.8,2.8,0,3.9,0.8
								c0.6-0.2,1.1-0.6,1.3-0.9c0.4,0.4,0.9,0.9,0.9,0.9c0.8-0.2,1.7-0.8,2.4-1.1c-2.4-0.2-4.9-0.2-7.5-0.4
								c-16.3-0.7-31.3-0.2-48.2-0.7c-9.2-0.4-18-0.9-26.6-1.7c-17.2-1.7-32.8,1.1-50.2-3c-6.8-1.5-18.9-0.4-25.5,0
								c-8.4,3.2-3.9,10.9-3.6,11.2c5.4,6.4,9.6,2.6,20.2,6.4c-7.3-2.1,5.2-4.3,12.4,0c10.1,6.6,24.4,0.8,36.8,2.2
								c3.2,0.4,6.4,0,10.1,0c19.1,1.9,36.9-1.5,57.2-1.3c5.2-0.2,9.9-1.9,14.4-3c3.2-0.4,6.8,0.4,9.6,0.4c4.1-0.2,7.9-0.8,11.2-1.7
								c-3.9,0.4-6.8,0.9-11.1,1.3c-2.8,0.2,1.9-2.4,3.7-2.8c0.7-0.4,2.1,1.5,3,1.1c1.7,0,3.4-0.9,5.2-1.5c0.8-0.4,0.8,1.3,1.1,1.1
								c2.6-0.4,4.5-2.8,6.2-2.4c1.3,0.2,2.4,0.6,3.6,0.8c0.8,0,1.3,0.2,2.1,0c0.4-0.2,0.9-0.4,1.3-0.6c-0.4-0.6-0.6-1.1-0.7-1.9
								c0.7,0,1.7,0.4,2.4,0.6c-0.8,0-1.7-0.4-2.4-0.6c0.2,0.7,0.4,1.3,0.7,1.9c3.4-1.1,7.3-2.2,10.9-3v-0.2
								c-2.1,0.2-4.3,0.2-6.6-0.9c0.9,0.4,0.9,0.9-0.2,0.9c-0.4-0.4-0.6-0.6-0.9-0.9c1.9-0.6,3.8-1.1,5.6,0.2c0,0,0.8-0.4,1.1-0.6
								c0.6,0.2,0.6,0.8,0.7,1.3c0.4,0,0.8-0.2,1.3-0.2C288.9,271.1,286.1,270,286.1,270z"/>
							<path fill="#414141" d="M263.9,270.4c0.4,0,0.6-0.2,0.9-0.2c-1.3,0-2.8-0.2-4.1-0.2C261.7,270.9,262.8,270.8,263.9,270.4z"/>
						</g>
					</g>
				</g>
			</g>
		</g>
	</g>
	<g>
		<g>
			<g>
				<g>
					<g opacity="0.85">
						<g>
							<path fill="#414141" d="M288.7,232.7c-0.7,0-1.3,0-2.1,0c0.4,0.2,0.7,0.4,1.1,0.6C288.1,233.4,288.5,233.1,288.7,232.7z"/>
							<path fill="#414141" d="M284.8,232.5c-0.2,0-0.2,0-0.4,0c-0.2,0-0.2,0.2-0.4,0.2C284.4,232.7,284.6,232.5,284.8,232.5z"/>
							<path fill="#414141" d="M281.2,233.1c0.6,0,1.3,0,1.9-0.2C282.5,232.9,281.9,232.9,281.2,233.1z"/>
							<path fill="#414141" d="M284.2,233.4c-0.2-0.2-0.4-0.6,0-0.8l0,0c-0.4,0-0.8,0.2-1.1,0.2
								C283.4,233.1,283.8,233.2,284.2,233.4z"/>
							<path fill="#414141" d="M284.2,233.4c0.2,0.2,0.6,0.6,0.7,0.6C284.6,233.8,284.4,233.6,284.2,233.4z"/>
							<path fill="#414141" d="M283.4,239.8c-0.4,0.2-0.4-1.5-0.9-1.1c-1.7,0.6-3,1.3-4.7,1.5c-0.8,0.4-1.9-1.5-2.6-1.1
								c-1.7,0.6-5.8,3-3.4,2.8c3.8-0.4,6.2-0.9,9.6-1.3c2.8-0.8,5.4-1.7,8.2-2.4c0.8-0.2,1.5,0,2.2,0.2c-0.9-0.2-2.1-0.6-3-0.8
								C287.4,237,285.7,239.4,283.4,239.8z"/>
							<path fill="#414141" d="M303.9,233.4c-0.4,0.2-1.1,0.6-1.1,0.6c-1.7-1.3-3.2-0.8-4.9-0.2c0.2,0.4,0.6,0.6,0.7,0.9
								c0.9-0.2,1.1-0.6,0.2-0.9c1.9,1.1,3.8,1.1,5.6,0.9C304.4,234.2,304.4,233.6,303.9,233.4z"/>
							<path fill="#414141" d="M305.6,234.6c-0.4,0-0.7,0.2-1.1,0.2v0.2C305,234.8,305.4,234.6,305.6,234.6L305.6,234.6z"/>
							<path fill="#414141" d="M273.7,234.9c-4.7,0.2-9.2,0.2-13.5,0c-0.4,0.4-0.6,0.8-0.9,0.6c-0.4-0.4-0.7-0.6-1.1-0.6
								c-0.6,0-1.3,0-1.9,0c-0.2,0-0.4,0.2-0.7,0.2l0,0c-0.4,0.2-0.2,0.6,0,0.8c0.2,0.2,0.6,0.4,0.7,0.6c-0.2-0.2-0.4-0.4-0.7-0.6
								c-0.4-0.2-0.6-0.4-1.1-0.6c-0.6,0.2-1.1,0.2-1.9,0.2c0.7-0.2,1.3-0.2,1.9-0.2c0.4,0,0.7-0.2,1.1-0.2c0.2,0,0.2-0.2,0.4-0.2
								c-1.5,0-2.8-0.2-4.3-0.2c-0.4,0-0.6,0.2-0.9,0.2c-1.1,0.2-2.1,0.6-2.8-0.4c-0.2,0-0.6,0-0.8,0l0.2,0.2
								c-0.2,0-0.2-0.2-0.4-0.2c-1.1,0-2.2-0.2-3.4-0.2c-0.8,0.4-1.5,0.8-2.1,1.1c0,0-0.6-0.6-0.8-0.9c-0.4,0.4-0.8,0.8-1.1,0.9
								c0.6,0.6,1.1,1.1,1.7,1.5c0.8,0.9,1.7-1.9,2.4-0.2c-0.9-1.7-1.7,1.1-2.4,0.2c-0.6-0.4-1.1-0.9-1.7-1.5
								c-0.9,0.4-2.4,0-3.6-0.8c1.3-0.8,2.4,0,3.6,0.8c0.6-0.2,0.9-0.4,1.1-0.9c0.2,0.4,0.8,0.9,0.8,0.9c0.8-0.2,1.5-0.8,2.1-1.1
								c-2.1-0.2-4.3-0.2-6.6-0.4c-14.2-0.9-27.4-0.4-42.2-0.9c-8.1-0.4-15.8-0.9-23.3-1.9c-15-1.9-28.7,0.9-44.1-3.4
								c-5.8-1.5-16.7-0.4-22.3,0c-7.5,3.2-3.4,10.9-3,11.2c4.7,6.6,8.2,2.8,17.8,6.4c-6.6-2.1,4.7-4.3,10.9,0
								c9,6.8,21.4,0.9,32.2,2.4c2.6,0.4,5.6,0,8.8,0c16.9,2.1,32.4-1.3,50.1-1.1c4.7-0.2,8.8-1.9,12.8-2.8c2.8-0.4,6,0.4,8.2,0.4
								c3.8,0,6.8-0.7,9.9-1.7c-3.4,0.4-5.8,0.9-9.6,1.3c-2.4,0.2,1.7-2.2,3.4-2.8c0.8-0.4,1.9,1.5,2.6,1.1c1.5,0,3-0.9,4.7-1.5
								c0.8-0.4,0.8,1.3,0.9,1.1c2.2-0.4,3.9-2.8,5.4-2.2c1.1,0.2,2.1,0.6,3,0.8c0.6,0,1.3,0.2,1.9,0c0.4-0.2,0.8-0.4,1.3-0.6
								c-0.4-0.6-0.6-1.1-0.6-1.9c0.6,0,1.5,0.4,2.1,0.6c-0.6,0-1.5-0.4-2.1-0.6c0.2,0.8,0.2,1.3,0.6,1.9c3-1.1,6.4-2.1,9.6-3v-0.2
								c-1.9,0.2-3.8,0.2-5.6-0.9c0.9,0.4,0.8,0.9-0.2,0.9c-0.2-0.4-0.6-0.6-0.8-0.9c1.7-0.6,3.4-1.1,4.9,0.2c0,0,0.7-0.4,1.1-0.6
								c0.6,0.2,0.6,0.8,0.6,1.3c0.4,0,0.8-0.2,1.1-0.2C276.3,235.9,273.7,234.9,273.7,234.9z"/>
							<path fill="#414141" d="M254.6,235.1c0.2,0,0.6-0.2,0.9-0.2c-1.1,0-2.4-0.2-3.6-0.2C252.3,235.7,253.4,235.5,254.6,235.1z"/>
						</g>
					</g>
				</g>
			</g>
		</g>
	</g>
	<path display="none" fill="none" stroke="#000000" stroke-width="6" stroke-miterlimit="10" d="M97.1,72.6"/>
	<path display="none" fill="none" stroke="#000000" stroke-width="6" stroke-miterlimit="10" d="M136.4,60.2"/>
	<g>
		<g>
			<g>
				<g>
					<g opacity="0.85">
						<g>
							<path fill="#414141" d="M141.5,51.4l-0.8-0.8c0,0.2,0,0.6,0,0.9C140.8,51.8,141.1,51.6,141.5,51.4z"/>
							<path fill="#414141" d="M140,49.9L140,49.9l-0.4-0.2C139.8,49.7,139.8,49.9,140,49.9z"/>
							<path fill="#414141" d="M138.1,48.9c0.2,0.4,0.6,0.6,0.8,0.6C138.9,49.3,138.7,48.9,138.1,48.9z"/>
							<path fill="#414141" d="M139.1,50.2c0-0.2,0.2-0.6,0.6-0.6l0,0c-0.2,0-0.4-0.2-0.6-0.2C139.1,49.7,139.1,50.1,139.1,50.2z"/>
							<path fill="#414141" d="M139.1,50.2c0,0.2-0.2,0.6-0.2,0.7C139.1,50.8,139.1,50.4,139.1,50.2z"/>
							<path fill="#414141" d="M134.6,54.8c-0.2,0,0.9-1.3,0.4-1.3c-0.9-0.2-2.1-0.2-2.8-0.8c-0.6,0,0.2-1.9-0.2-1.9
								c-0.9-0.2-4.3,0-3.2,0.9c1.7,1.1,3,1.7,4.7,2.6c1.7,0.4,3.4,0.8,4.9,1.3c0.4,0.2,0.6,0.6,0.8,0.9c-0.2-0.6-0.4-1.1-0.8-1.7
								C137.9,54.2,135.7,55.3,134.6,54.8z"/>
							<path fill="#414141" d="M147.1,57.8c-0.2,0-0.8,0-0.8,0c0.2-1.5-0.8-1.7-1.9-2.1l-0.2,0.9c0.4,0.2,0.8,0,0.8-0.7
								c0,1.5,0.8,2.2,1.7,2.8C146.8,58.5,147.1,58.1,147.1,57.8z"/>
							<path fill="#414141" d="M146.9,59.1c-0.2,0-0.4-0.2-0.6-0.4v0.2C146.6,59.1,146.8,59.1,146.9,59.1L146.9,59.1z"/>
							<path fill="#414141" d="M134,47.4c-2.1-1.7-3.8-3.4-5.4-5.1c-0.4,0.2-0.8,0.4-0.8,0c0-0.4,0-0.6,0-0.9l-0.9-0.6
								c-0.2,0-0.2,0-0.4-0.2l0,0c-0.4,0-0.4,0.2-0.6,0.6c0,0.2,0,0.6-0.2,0.8c0-0.2,0-0.4,0.2-0.8c0-0.2,0-0.6,0-0.8
								c-0.4-0.2-0.6-0.4-0.8-0.6c0.4,0,0.8,0.4,0.8,0.6c0.2,0,0.4,0.2,0.6,0.2h0.2L125,39c-0.2,0-0.4-0.2-0.6-0.2
								c-0.6-0.2-1.1-0.4-0.9-1.3l-0.4-0.4v0.2v-0.2l-1.1-1.3c-0.6,0-1.1,0-1.5,0c0,0,0.2-0.6,0.2-0.9c-0.4,0.2-0.8,0.4-1.1,0.2
								c-0.2,0.6-0.2,1.3-0.4,1.7c-0.4,0.9,1.9-0.8,1.1,0.8c0.8-1.7-1.3,0.2-1.1-0.8c0-0.4,0.2-1.1,0.4-1.7
								c-0.8-0.2-0.9-0.9-1.1-2.1c1.1-0.2,1.3,1.1,1.1,2.1c0.4,0,0.8,0,1.1-0.2c0,0.4-0.2,0.9-0.2,0.9c0.6,0,1.1,0,1.5,0
								c-0.8-0.9-1.5-1.7-2.6-2.8c-2.8-3.2-6-6.2-9.4-9.4s-6.8-6.2-10.5-9.9c-0.2,0.9-0.4,1.9-0.6,2.8c-0.9,5.1-2.3,9.9-3.9,15.6
								c-0.8,2.8-1.3,6-1.9,9.2c-0.4,2.1-0.6,4.1-0.9,6.4c-0.6,3.9-1.5,7.9-4.3,11.8c-1.9,3-1.7,9-1.9,12.2c2.6,4.5,10.5,3,10.9,3
								c6.8-1.9,3.4-4.1,7.7-9c-2.6,3.4-3.9-3,0.9-5.8c3.8-2.1,4.3-4.9,4.3-8.1c0-1.5-0.2-3.2-0.2-4.7c0-0.7,0-1.5,0.2-2.2
								c0-0.6,0.2-0.4,0.2-0.6h0.2c0.4,0,0.2-0.2,0.4-0.4c0.6,0.2,0.9,0.6,0.9,0.6s-0.2-0.4-0.4-0.9c-0.2-0.6,0-0.9,0.4-0.4
								c0,0,0.2-0.4,0.6-0.9c0.2-0.4,0.8-0.9,1.1-1.1c0.2,0,0.4,0.4,0.4,0.6s0,0.2,0.2,0.2c0.2,0.2,0.2,0.4,0.4,0.4
								c0.2,0.4,0.4,0.6,0.8,0.8c1.5,1.3,3.2,2.1,5.1,2.4c-1.7-0.9-3-1.5-4.7-2.6c-1.1-0.8,2.2-1.1,3.2-0.9c0.6,0-0.2,1.9,0.2,1.9
								c0.6,0.6,1.7,0.4,2.8,0.8c0.6,0-0.6,1.3-0.4,1.3c1.1,0.6,3.4-0.6,3.8,0.4c0.4,0.6,0.6,1.1,0.8,1.7c0.2,0.4,0.4,0.6,0.8,0.8
								c0.2,0,0.6,0,0.8,0.2c0.2-0.6,0.6-1.1,0.9-1.7c0.2,0.4,0.2,0.9,0.4,1.1c-0.2-0.4-0.2-0.9-0.4-1.1c-0.4,0.6-0.8,1.1-0.9,1.7
								c1.9,0.2,3.9,0.8,5.8,1.3v-0.2c-0.9-0.6-1.5-1.3-1.7-2.8c0,0.6-0.2,0.9-0.8,0.8l0.4-0.9c0.9,0.2,2.1,0.4,1.9,2.1
								c0,0,0.6,0,0.8,0c0,0.4-0.4,0.8-0.6,1.1c0.2,0.2,0.4,0.2,0.6,0.4C134.2,49.3,134,47.4,134,47.4z"/>
							<path fill="#414141" d="M125.9,40.5c0.2,0,0.4,0.2,0.6,0.2l-1.3-1.5C124.8,40.1,125.4,40.3,125.9,40.5z"/>
						</g>
					</g>
				</g>
			</g>
		</g>
	</g>
	<g>
		<g>
			<g>
				<g>
					<g opacity="0.85">
						<g>
							<path fill="#414141" d="M194,289.3c0-0.4,0-0.7,0-1.3c-0.2,0.2-0.4,0.4-0.6,0.6C193.2,289.1,193.6,289.1,194,289.3z"/>
							<path fill="#414141" d="M194.2,287.1v-0.2l-0.2-0.2C194,286.7,194.2,286.9,194.2,287.1z"/>
							<path fill="#414141" d="M193.6,284.8c0,0.4,0,0.7,0.2,1.1C193.8,285.6,193.8,285.2,193.6,284.8z"/>
							<path fill="#414141" d="M193.2,286.5c0.2-0.2,0.6-0.2,0.8,0l0,0c0-0.2-0.2-0.4-0.2-0.6C193.6,286.1,193.4,286.3,193.2,286.5z
								"/>
							<path fill="#414141" d="M193.2,286.5c-0.2,0.2-0.6,0.4-0.6,0.4C192.9,286.9,193.1,286.7,193.2,286.5z"/>
							<path fill="#414141" d="M186.9,286.1c-0.2-0.2,1.7-0.2,1.1-0.6c-0.6-0.9-1.3-1.9-1.3-2.8c-0.4-0.4,1.5-1.1,1.1-1.5
								c-0.6-0.9-3-3.6-2.8-2.1c0.4,2.2,0.8,3.8,1.1,5.8c0.8,1.7,1.7,3.2,2.2,5.1c0.2,0.6,0,0.9-0.2,1.3c0.2-0.6,0.6-1.1,0.8-1.9
								C189.7,288.6,187.2,287.4,186.9,286.1z"/>
							<path fill="#414141" d="M193.1,298.7c-0.2-0.2-0.6-0.6-0.6-0.6c1.3-0.9,0.8-2.1,0.2-3c-0.4,0.2-0.6,0.4-0.9,0.6
								c0.2,0.6,0.6,0.6,0.9,0.2c-1.1,1.1-1.1,2.2-0.9,3.6C192.3,299.1,192.9,299.1,193.1,298.7z"/>
							<path fill="#414141" d="M191.9,299.8c0-0.2-0.2-0.4-0.2-0.8h-0.2C191.8,299.2,191.9,299.6,191.9,299.8L191.9,299.8z"/>
							<path fill="#414141" d="M191.9,280.1c-0.2-2.8-0.2-5.6,0-8.2c-0.4-0.2-0.8-0.4-0.6-0.6c0.4-0.2,0.6-0.4,0.6-0.6
								c0-0.4,0-0.8,0-1.1c0-0.2-0.2-0.2-0.2-0.4l0,0c-0.2-0.2-0.6-0.2-0.8,0c-0.2,0.2-0.4,0.4-0.6,0.4c0.2,0,0.4-0.4,0.6-0.4
								c0.2-0.2,0.4-0.4,0.6-0.6c-0.2-0.4-0.2-0.7-0.2-1.1c0.2,0.4,0.2,0.7,0.2,1.1c0,0.2,0.2,0.4,0.2,0.6l0.2,0.2
								c0-0.9,0.2-1.7,0.2-2.6c0-0.2-0.2-0.4-0.2-0.6c-0.2-0.6-0.6-1.3,0.4-1.7c0-0.2,0-0.4,0-0.6c0,0-0.2,0-0.2,0.2l0.2-0.2
								c0-0.7,0.2-1.3,0.2-2.1c-0.4-0.4-0.8-0.9-1.1-1.3c0,0,0.6-0.4,0.9-0.6c-0.4-0.2-0.8-0.4-0.9-0.8c-0.6,0.4-1.1,0.8-1.5,1.1
								c-0.9,0.6,1.9,0.9,0.2,1.5c1.7-0.6-1.1-1.1-0.2-1.5c0.4-0.4,0.9-0.8,1.5-1.1c-0.4-0.6,0-1.5,0.8-2.1c0.8,0.7,0,1.5-0.8,2.1
								c0.2,0.4,0.4,0.6,0.9,0.8c-0.4,0.2-0.9,0.6-0.9,0.6c0.2,0.4,0.8,0.9,1.1,1.3c0.2-1.3,0.2-2.6,0.4-3.9
								c0.9-8.8,0.6-16.9,1.3-25.9c0.4-4.9,1.1-9.6,2.1-14.2c1.9-9.2-0.8-17.6,3.8-27c1.5-3.6,0.6-10.3,0.2-13.7
								c-3-4.5-10.7-2.1-11.2-1.7c-6.6,3-2.8,5.1-6.6,11.1c2.1-3.9,4.3,2.8-0.2,6.6c-6.8,5.4-1.1,13.1-2.6,19.7
								c-0.4,1.7,0,3.4-0.2,5.4c-2.1,10.3,0.9,19.9,0.8,30.6c0,2.8,1.9,5.4,2.8,7.7c0.4,1.7-0.6,3.8-0.4,5.1c0,2.2,0.8,4.1,1.5,6
								c-0.4-2.1-0.9-3.6-1.1-5.8c-0.2-1.5,2.2,0.9,2.8,2.1c0.4,0.4-1.5,1.1-1.1,1.5c0,0.9,0.9,1.9,1.3,2.8c0.4,0.4-1.3,0.4-1.1,0.6
								c0.4,1.3,2.8,2.4,2.2,3.4c-0.2,0.8-0.6,1.3-0.8,1.9c0,0.4-0.2,0.8,0,1.1c0.2,0.2,0.4,0.6,0.4,0.7c0.6-0.2,1.1-0.4,1.9-0.4
								c0,0.4-0.6,0.9-0.6,1.3c0-0.4,0.6-0.9,0.6-1.3c-0.8,0-1.3,0.2-1.9,0.4c1.1,1.9,2.1,3.9,3,5.8h0.2c-0.2-1.1,0-2.2,0.9-3.6
								c-0.4,0.6-0.9,0.6-0.9-0.2c0.4-0.2,0.6-0.4,0.9-0.6c0.6,0.9,1.1,2.1-0.2,3c0,0,0.4,0.4,0.6,0.6c-0.2,0.4-0.8,0.4-1.3,0.4
								c0,0.2,0,0.4,0.2,0.8C190.8,281.8,191.9,280.1,191.9,280.1z"/>
							<path fill="#414141" d="M191.8,268.3c0,0.2,0.2,0.4,0.2,0.6c0-0.8,0.2-1.5,0.2-2.2C191.2,267.2,191.4,267.8,191.8,268.3z"/>
						</g>
					</g>
				</g>
			</g>
		</g>
	</g>
	<g>
		<g>
			<g>
				<g>
					<g opacity="0.85">
						<g>
							<path fill="#414141" d="M224,147.7c-0.2-0.2-0.4-0.4-0.6-0.6c0,0.2,0,0.4,0,0.8C223.4,148.2,223.6,148.1,224,147.7z"/>
							<path fill="#414141" d="M222.9,146.8C222.9,146.6,222.9,146.6,222.9,146.8c-0.2,0-0.2,0-0.4,0
								C222.7,146.6,222.7,146.6,222.9,146.8z"/>
							<path fill="#414141" d="M221.4,146.2c0.2,0.2,0.4,0.4,0.6,0.4C221.9,146.4,221.8,146.2,221.4,146.2z"/>
							<path fill="#414141" d="M222.1,147.1c0-0.2,0.2-0.6,0.4-0.6l0,0c-0.2,0-0.4,0-0.6,0C222.1,146.8,222.1,146.9,222.1,147.1z"/>
							<path fill="#414141" d="M222.1,147.1c0,0.2-0.2,0.6-0.2,0.8C221.9,147.7,222.1,147.5,222.1,147.1z"/>
							<path fill="#414141" d="M218,152c-0.2,0,0.9-1.3,0.4-1.1c-0.8,0-1.9,0.4-2.2,0c-0.6,0.2,0.4-1.7-0.2-1.5
								c-0.8,0-3.8,0.9-2.8,1.5c1.3,0.8,2.4,0.9,3.8,1.5c1.3,0.2,2.6,0,3.9,0.2c0.4,0.2,0.4,0.4,0.6,0.8c-0.2-0.4-0.4-0.9-0.6-1.3
								C220.8,150.9,218.9,152.4,218,152z"/>
							<path fill="#414141" d="M228.1,152.4c-0.2,0-0.8,0.2-0.8,0.2c0.2-1.5-0.6-1.5-1.5-1.5c-0.2,0.4-0.2,0.6-0.4,0.9
								c0.4,0.2,0.8-0.2,0.8-0.8c0,1.3,0.4,1.9,1.1,2.2C227.9,153.1,228.3,152.6,228.1,152.4z"/>
							<path fill="#414141" d="M228.1,153.7c-0.2,0-0.4,0-0.4-0.2c0,0,0,0,0,0.2C227.8,153.7,227.9,153.7,228.1,153.7L228.1,153.7z"
								/>
							<path fill="#414141" d="M218,145.6c-1.5-1.1-3-2.2-4.3-3.4c-0.4,0.2-0.6,0.4-0.8,0.2c0-0.4,0-0.6,0-0.8
								c-0.2-0.2-0.4-0.4-0.6-0.6c-0.2,0-0.2,0-0.4,0l0,0c-0.2,0-0.4,0.4-0.4,0.6c0,0.2-0.2,0.4-0.2,0.8c0-0.2,0-0.4,0.2-0.8
								c0-0.2,0-0.6,0-0.6c-0.2,0-0.6-0.2-0.6-0.4c0.4,0,0.6,0.2,0.6,0.4c0.2,0,0.4,0,0.6,0h0.2c-0.4-0.4-0.8-0.8-1.3-1.3
								c-0.2,0-0.2,0-0.4-0.2c-0.6,0-0.9-0.2-0.6-0.9l-0.2-0.2v0.2v-0.2c-0.4-0.4-0.6-0.6-0.9-0.9c-0.4,0.2-0.9,0.2-1.3,0.4
								c0,0,0.2-0.6,0.4-0.9c-0.4,0.4-0.8,0.4-0.9,0.4c-0.2,0.6-0.4,1.1-0.4,1.7c-0.4,0.9,1.7-1.1,0.9,0.6c0.8-1.5-1.1,0.4-0.9-0.6
								c0-0.4,0.2-0.9,0.4-1.7c-0.6,0-0.8-0.6-0.6-1.5c0.9-0.2,0.8,0.6,0.6,1.5c0.2,0,0.6-0.2,0.9-0.4c-0.2,0.4-0.4,0.9-0.4,0.9
								c0.4,0,0.9-0.2,1.3-0.4c-0.6-0.6-1.1-1.3-1.9-1.9c-3.9-4.3-8.2-7.5-12.6-11.6c-2.2-2.4-4.3-4.9-6-7.5
								c-3.6-5.2-9.4-6.8-11.6-14.1c-0.9-2.6-4.9-4.7-6.8-5.8c-4.3,0.6-7.7,7.7-7.7,8.1c-2.4,6.4,0.9,4.3,1.5,9.8
								c-0.8-3.4,4.1-2.2,3.4,2.8c-1.3,7.7,6,6.2,8.4,10.3c0.6,0.9,1.7,1.5,2.6,2.4c3.9,6,10.7,7.5,16.1,12.2
								c1.5,1.1,3.8,0.8,5.6,0.9c1.1,0.4,1.5,1.9,2.2,2.4c1.1,0.9,2.6,1.1,4.1,1.3c-1.3-0.6-2.4-0.8-3.8-1.5
								c-0.9-0.6,1.9-1.5,2.8-1.5c0.6-0.2-0.4,1.7,0.2,1.5c0.6,0.4,1.5,0,2.2,0c0.6-0.2-0.6,1.3-0.4,1.1c0.9,0.2,3-1.1,3.2-0.4
								c0.2,0.6,0.4,0.9,0.6,1.3c0.2,0.2,0.4,0.4,0.6,0.6c0.2,0,0.4,0,0.8,0c0.2-0.6,0.6-1.1,0.9-1.7c0.2,0.2,0.2,0.8,0.4,0.9
								c-0.2-0.2-0.2-0.8-0.4-0.9c-0.4,0.6-0.8,1.1-0.9,1.7c1.7-0.2,3.4,0,4.9,0.2c0,0,0,0,0-0.2c-0.8-0.4-1.1-0.9-1.1-2.2
								c0,0.6-0.4,0.9-0.8,0.8c0.2-0.4,0.2-0.6,0.4-0.9c0.8,0,1.7,0,1.5,1.5c0,0,0.6-0.2,0.8-0.2c0,0.4-0.4,0.8-0.6,1.1
								c0.2,0,0.4,0.2,0.4,0.2C218.2,147.1,218,145.6,218,145.6z"/>
							<path fill="#414141" d="M211.8,140.9c0.2,0,0.2,0,0.4,0.2c-0.4-0.4-0.8-0.8-0.9-1.1C210.9,140.8,211.4,140.9,211.8,140.9z"/>
						</g>
					</g>
				</g>
			</g>
		</g>
	</g>
	<g>
		<g>
			<g>
				<g>
					<g opacity="0.85">
						<g>
							<path fill="#414141" d="M154,150.1c0.2-0.2,0.6-0.4,0.8-0.6c0,0.2,0,0.4,0,0.8C154.6,150.7,154.4,150.3,154,150.1z"/>
							<path fill="#414141" d="M155.3,149C155.5,149,155.5,149,155.3,149c0.2,0,0.2,0,0.4,0C155.5,149,155.5,149,155.3,149z"/>
							<path fill="#414141" d="M157,148.4c-0.2,0.2-0.4,0.4-0.8,0.4C156.4,148.6,156.6,148.4,157,148.4z"/>
							<path fill="#414141" d="M156.1,149.6c0-0.2-0.2-0.6-0.4-0.6l0,0c0.2,0,0.4,0,0.6,0C156.2,149,156.1,149.4,156.1,149.6z"/>
							<path fill="#414141" d="M156.1,149.6c0,0.2,0,0.6,0.2,0.8C156.2,149.9,156.1,149.8,156.1,149.6z"/>
							<path fill="#414141" d="M160,154.6c0.2,0-0.8-1.5-0.2-1.3c0.9,0,1.9,0.4,2.4,0c0.6,0.2-0.2-1.9,0.4-1.7
								c0.9,0,3.9,0.9,2.8,1.5c-1.5,0.8-2.8,0.9-4.3,1.5c-1.5,0-3,0-4.3,0.2c-0.4,0.2-0.6,0.4-0.8,0.8c0.2-0.6,0.4-0.9,0.8-1.5
								C157,153.3,158.9,154.8,160,154.6z"/>
							<path fill="#414141" d="M148.8,154.6c0.2,0,0.8,0.2,0.8,0.2c0-1.5,0.8-1.5,1.7-1.5c0,0.4,0.2,0.6,0.2,0.9
								c-0.4,0.2-0.8-0.2-0.6-0.8c-0.2,1.3-0.8,2.1-1.5,2.2C149.1,155.6,148.8,155,148.8,154.6z"/>
							<path fill="#414141" d="M148.8,156.1c0.2,0,0.4,0,0.6-0.2c0,0,0,0,0,0.2C149.1,156.1,148.9,156.1,148.8,156.1L148.8,156.1z"
								/>
							<path fill="#414141" d="M160.8,148.1c1.9-1.1,3.6-2.2,5.1-3.6c0.4,0.2,0.6,0.6,0.8,0.2c0-0.4,0-0.6,0-0.8
								c0.2-0.2,0.4-0.4,0.8-0.6c0.2,0,0.2,0,0.4,0l0,0c0.2,0,0.4,0.4,0.4,0.6c0,0.2,0,0.4,0.2,0.8c0-0.2,0-0.4-0.2-0.8
								c0-0.2,0-0.6,0.2-0.8c0.4,0,0.6-0.2,0.8-0.4c-0.4,0-0.6,0.2-0.8,0.4c-0.2,0-0.4,0-0.6,0h-0.2c0.6-0.4,0.9-0.9,1.5-1.3
								c0.2,0,0.4,0,0.4-0.2c0.6,0,1.1-0.2,0.8-0.9l0.2-0.2v0.2v-0.2c0.4-0.4,0.8-0.8,1.1-0.9c0.4,0.2,0.9,0.4,1.3,0.4
								c0,0-0.2-0.6-0.2-0.9c0.4,0.4,0.8,0.4,0.9,0.4c0,0.6,0.2,1.3,0.2,1.7c0.2,0.9-1.7-1.1-0.9,0.6c-0.6-1.7,1.3,0.4,0.9-0.6
								c0-0.4-0.2-1.1-0.2-1.7c0.6,0,0.9-0.6,0.9-1.5c-0.9-0.4-0.9,0.6-0.9,1.5c-0.2,0-0.6-0.2-0.9-0.4c0,0.4,0.2,0.9,0.2,0.9
								c-0.4,0-0.9-0.2-1.3-0.4c0.8-0.8,1.5-1.3,2.2-2.1c4.9-4.5,9.9-7.5,15.2-11.8c2.8-2.4,5.2-4.9,7.7-7.7
								c4.7-5.4,11.2-6.8,14.4-14.2c1.3-2.8,6-4.7,8.2-6c4.5,0.8,7.1,8.1,7.3,8.6c1.9,6.7-1.5,4.5-3,10.1c1.3-3.4-4.1-2.4-3.9,2.8
								c0.4,7.9-7.3,6.4-10.5,10.5c-0.8,1.1-2.1,1.5-3.2,2.4c-5.1,6-12.8,7.5-19.1,12.2c-1.9,1.1-4.3,0.8-6.2,0.9
								c-1.3,0.4-1.9,1.9-2.8,2.4c-1.5,0.9-3,1.1-4.5,1.1c1.5-0.6,2.6-0.8,4.3-1.5c0.9-0.6-1.9-1.5-2.8-1.5
								c-0.6-0.2,0.2,1.9-0.4,1.7c-0.6,0.4-1.5,0-2.4,0c-0.6-0.2,0.6,1.3,0.2,1.3c-1.1,0.2-3-1.3-3.4-0.6c-0.2,0.6-0.6,0.9-0.8,1.5
								c-0.2,0.2-0.4,0.4-0.6,0.6c-0.2,0-0.6,0-0.8,0c-0.2-0.6-0.6-1.1-0.8-1.7c-0.2,0.2-0.4,0.8-0.4,0.9c0.2-0.2,0.4-0.8,0.4-0.9
								c0.4,0.6,0.6,1.1,0.8,1.7c-1.7-0.2-3.6-0.2-5.3,0v-0.2c0.8-0.4,1.5-0.9,1.5-2.2c-0.2,0.6,0.2,0.9,0.6,0.8
								c0-0.4-0.2-0.6-0.2-0.9c-0.9,0-1.9,0-1.7,1.5c0,0-0.6-0.2-0.8-0.2c0,0.4,0.2,0.8,0.4,1.3c-0.2,0-0.4,0.2-0.6,0.2
								C160.4,149.6,160.8,148.1,160.8,148.1z"/>
							<path fill="#414141" d="M168.1,143.2c-0.2,0-0.2,0-0.4,0.2c0.4-0.4,0.8-0.8,1.3-1.1C169.2,143.2,168.6,143.2,168.1,143.2z"/>
						</g>
					</g>
				</g>
			</g>
		</g>
	</g>
	<g>
		<g>
			<g>
				<g>
					<g opacity="0.85">
						<g>
							<path fill="#414141" d="M241.4,49.5l0.8-0.8c0,0.2,0,0.6,0,0.9C242.2,49.9,241.8,49.7,241.4,49.5z"/>
							<path fill="#414141" d="M242.9,48L242.9,48l0.4-0.2C243.1,47.8,242.9,48,242.9,48z"/>
							<path fill="#414141" d="M244.6,47.1c-0.2,0.4-0.6,0.6-0.8,0.6C244.1,47.4,244.2,47.1,244.6,47.1z"/>
							<path fill="#414141" d="M243.9,48.4c0-0.2-0.2-0.6-0.6-0.6l0,0c0.2,0,0.4-0.2,0.6-0.2C243.9,47.8,243.7,48.2,243.9,48.4z"/>
							<path fill="#414141" d="M243.9,48.4c0,0.2,0.2,0.6,0.2,0.7C243.9,48.9,243.9,48.6,243.9,48.4z"/>
							<path fill="#414141" d="M248.4,52.9c0.2,0-0.9-1.3-0.4-1.3c0.9-0.2,2.1-0.2,2.8-0.8c0.6,0-0.2-1.9,0.2-1.9
								c0.9-0.2,4.3,0,3.2,0.9c-1.7,1.1-3,1.7-4.7,2.6c-1.7,0.4-3.4,0.8-4.9,1.3c-0.4,0.2-0.6,0.6-0.8,0.9c0.2-0.6,0.4-1.1,0.8-1.7
								C244.8,52.3,247.1,53.4,248.4,52.9z"/>
							<path fill="#414141" d="M235.8,55.9c0.2,0,0.8,0,0.8,0c-0.2-1.5,0.8-1.7,1.9-2.1l0.2,0.9c-0.4,0.2-0.8,0-0.8-0.7
								c0,1.5-0.8,2.2-1.7,2.8C236.2,56.6,235.8,56.2,235.8,55.9z"/>
							<path fill="#414141" d="M235.8,57.2c0.2,0,0.4-0.2,0.6-0.4V57C236.4,57.2,236.2,57.2,235.8,57.2L235.8,57.2z"/>
							<path fill="#414141" d="M248.9,45.6c2.1-1.7,3.8-3.4,5.4-5.1c0.4,0.2,0.7,0.4,0.7,0c0-0.4,0-0.6,0-0.9l0.7-0.8
								c0.2,0,0.2,0,0.4-0.2l0,0c0.4,0,0.4,0.2,0.6,0.6c0,0.2,0,0.6,0.2,0.8c0-0.2,0-0.4-0.2-0.8c0-0.2,0-0.6,0-0.8
								c0.4-0.2,0.6-0.4,0.8-0.6c-0.4,0-0.8,0.4-0.8,0.6c-0.2,0-0.4,0.2-0.6,0.2h-0.2l1.7-1.7c0.2,0,0.4-0.2,0.6-0.2
								c0.6-0.2,1.1-0.4,0.9-1.3l0.4-0.4v0.2v-0.2l1.1-1.3c0.6,0,1.1,0,1.5,0c0,0-0.2-0.6-0.2-0.9c0.4,0.2,0.8,0.4,1.1,0.2
								c0.2,0.6,0.2,1.3,0.4,1.7c0.4,0.9-1.9-0.8-1.1,0.8c-0.7-1.7,1.3,0.2,1.1-0.8c0-0.4-0.2-1.1-0.4-1.7c0.7-0.2,0.9-0.9,1.1-2.1
								c-1.1-0.2-1.3,1.1-1.1,2.1c-0.4,0-0.8,0-1.1-0.2c0,0.4,0.2,0.9,0.2,0.9c-0.6,0-1.1,0-1.5,0c0.7-0.9,1.5-1.7,2.6-2.8
								c2.8-3.2,6-6.2,9.4-9.4s6.8-6.2,10.5-9.9c0.2,0.9,0.4,1.9,0.6,2.8c0.9,5.1,2.2,9.9,3.9,15.6c0.8,2.8,1.3,6,1.9,9.2
								c0.4,2.1,0.6,4.1,0.9,6.4c0.6,3.9,1.5,7.9,4.3,11.8c1.9,3,1.7,9,1.9,12.2c-2.6,4.5-10.5,3-10.9,3c-6.8-1.9-3.4-4.1-7.7-9
								c2.6,3.4,3.9-3-0.9-5.8c-3.8-2.1-4.3-4.9-4.3-8.1c0-1.5,0.2-3.2,0.2-4.7c0-0.8,0-1.5-0.2-2.2c0-0.6-0.2-0.4-0.2-0.6h-0.2
								c-0.4,0-0.2-0.2-0.4-0.4c-0.6,0.2-0.9,0.6-0.9,0.6s0.2-0.4,0.4-0.9c0.2-0.6,0-0.9-0.4-0.4c0,0-0.2-0.4-0.6-0.9
								c-0.2-0.4-0.8-0.9-1.1-1.1c-0.2,0-0.4,0.4-0.4,0.6s0,0.2-0.2,0.2c-0.2,0.2-0.2,0.4-0.4,0.4c-0.2,0.4-0.4,0.6-0.8,0.8
								c-1.5,1.3-3.2,2.1-5.1,2.4c1.7-0.9,3-1.5,4.7-2.6c1.1-0.8-2.2-1.1-3.2-0.9c-0.6,0,0.2,1.9-0.2,1.9c-0.6,0.6-1.7,0.4-2.8,0.8
								c-0.6,0,0.6,1.3,0.4,1.3c-1.1,0.6-3.4-0.6-3.8,0.4c-0.4,0.6-0.6,1.1-0.8,1.7c-0.2,0.4-0.4,0.6-0.8,0.8c-0.2,0-0.6,0-0.7,0.2
								c-0.2-0.6-0.6-1.1-0.9-1.7c-0.2,0.4-0.2,0.9-0.4,1.1c0.2-0.4,0.2-0.9,0.4-1.1c0.4,0.6,0.7,1.1,0.9,1.7
								c-1.9,0.2-3.9,0.8-5.8,1.3v-0.2c0.9-0.6,1.5-1.3,1.7-2.8c0,0.6,0.2,0.9,0.8,0.8l-0.4-0.9c-0.9,0.2-2.1,0.4-1.9,2.1
								c0,0-0.6,0-0.8,0c0,0.4,0.4,0.8,0.6,1.1c-0.2,0.2-0.4,0.2-0.6,0.4C248.6,47.4,248.9,45.6,248.9,45.6z"/>
							<path fill="#414141" d="M256.8,38.6c-0.2,0-0.4,0.2-0.6,0.2l1.3-1.5C258.1,38.2,257.6,38.4,256.8,38.6z"/>
						</g>
					</g>
				</g>
			</g>
		</g>
	</g>
</g>
</svg>
